<svg width="100" height="116" viewBox="0 0 100 116" fill="none" xmlns="http://www.w3.org/2000/svg">
<rect x="1" y="1" width="98" height="98" rx="29" stroke="white" stroke-width="2"/>
<path d="M26.2041 108.222H25.0215V107.381H26.1562C26.6576 107.381 27.0632 107.31 27.373 107.169C27.6829 107.028 27.9085 106.832 28.0498 106.581C28.1911 106.33 28.2617 106.041 28.2617 105.713C28.2617 105.398 28.1842 105.111 28.0293 104.852C27.8743 104.587 27.6351 104.378 27.3115 104.223C26.988 104.063 26.571 103.983 26.0605 103.983C25.6777 103.983 25.3314 104.056 25.0215 104.202C24.7116 104.343 24.4655 104.542 24.2832 104.797C24.1009 105.048 24.0098 105.337 24.0098 105.665H22.6904C22.6904 105.241 22.7793 104.861 22.957 104.523C23.1348 104.182 23.3786 103.892 23.6885 103.655C23.9984 103.414 24.3561 103.229 24.7617 103.102C25.1719 102.974 25.6048 102.91 26.0605 102.91C26.5938 102.91 27.0768 102.972 27.5098 103.095C27.9427 103.213 28.3141 103.391 28.624 103.628C28.9339 103.865 29.1709 104.159 29.335 104.51C29.499 104.861 29.5811 105.269 29.5811 105.733C29.5811 106.075 29.5013 106.396 29.3418 106.697C29.1823 106.998 28.9544 107.262 28.6582 107.49C28.362 107.718 28.0065 107.898 27.5918 108.03C27.1771 108.158 26.7145 108.222 26.2041 108.222ZM25.0215 107.641H26.2041C26.7646 107.641 27.2637 107.698 27.7012 107.812C28.1387 107.925 28.5078 108.092 28.8086 108.311C29.1094 108.529 29.3372 108.8 29.4922 109.124C29.6517 109.443 29.7314 109.81 29.7314 110.225C29.7314 110.689 29.6403 111.102 29.458 111.462C29.2803 111.822 29.0273 112.127 28.6992 112.378C28.3711 112.629 27.9814 112.818 27.5303 112.945C27.0837 113.073 26.5938 113.137 26.0605 113.137C25.6322 113.137 25.2083 113.082 24.7891 112.973C24.3743 112.859 23.9984 112.686 23.6611 112.453C23.3239 112.216 23.0527 111.915 22.8477 111.551C22.6471 111.186 22.5469 110.749 22.5469 110.238H23.8662C23.8662 110.571 23.9574 110.876 24.1396 111.154C24.3265 111.432 24.584 111.656 24.9121 111.824C25.2402 111.988 25.623 112.07 26.0605 112.07C26.5618 112.07 26.9857 111.993 27.332 111.838C27.6829 111.678 27.9495 111.462 28.1318 111.188C28.3187 110.91 28.4121 110.598 28.4121 110.252C28.4121 109.947 28.362 109.682 28.2617 109.459C28.166 109.231 28.0225 109.044 27.8311 108.898C27.6442 108.753 27.4095 108.646 27.127 108.577C26.849 108.504 26.5254 108.468 26.1562 108.468H25.0215V107.641ZM35.6377 111.735V107.928C35.6377 107.636 35.5785 107.383 35.46 107.169C35.346 106.95 35.1729 106.782 34.9404 106.663C34.708 106.545 34.4209 106.485 34.0791 106.485C33.7601 106.485 33.4798 106.54 33.2383 106.649C33.0013 106.759 32.8145 106.902 32.6777 107.08C32.5456 107.258 32.4795 107.449 32.4795 107.654H31.2148C31.2148 107.39 31.2832 107.128 31.4199 106.868C31.5566 106.608 31.7526 106.374 32.0078 106.164C32.2676 105.95 32.5775 105.781 32.9375 105.658C33.3021 105.531 33.7077 105.467 34.1543 105.467C34.6921 105.467 35.166 105.558 35.5762 105.74C35.9909 105.923 36.3145 106.198 36.5469 106.567C36.7839 106.932 36.9023 107.39 36.9023 107.941V111.387C36.9023 111.633 36.9229 111.895 36.9639 112.173C37.0094 112.451 37.0755 112.69 37.1621 112.891V113H35.8428C35.779 112.854 35.7288 112.66 35.6924 112.419C35.6559 112.173 35.6377 111.945 35.6377 111.735ZM35.8564 108.516L35.8701 109.404H34.5918C34.2318 109.404 33.9105 109.434 33.6279 109.493C33.3454 109.548 33.1084 109.632 32.917 109.746C32.7256 109.86 32.5798 110.004 32.4795 110.177C32.3792 110.345 32.3291 110.544 32.3291 110.771C32.3291 111.004 32.3815 111.216 32.4863 111.407C32.5911 111.599 32.7484 111.751 32.958 111.865C33.1722 111.975 33.4342 112.029 33.7441 112.029C34.1315 112.029 34.4733 111.947 34.7695 111.783C35.0658 111.619 35.3005 111.419 35.4736 111.182C35.6514 110.945 35.7471 110.715 35.7607 110.491L36.3008 111.1C36.2689 111.291 36.1823 111.503 36.041 111.735C35.8997 111.968 35.7106 112.191 35.4736 112.405C35.2412 112.615 34.9632 112.79 34.6396 112.932C34.3206 113.068 33.9606 113.137 33.5596 113.137C33.0583 113.137 32.6185 113.039 32.2402 112.843C31.8665 112.647 31.5749 112.385 31.3652 112.057C31.1602 111.724 31.0576 111.353 31.0576 110.942C31.0576 110.546 31.1351 110.197 31.29 109.896C31.445 109.591 31.6683 109.338 31.96 109.138C32.2516 108.933 32.6025 108.778 33.0127 108.673C33.4229 108.568 33.8809 108.516 34.3867 108.516H35.8564ZM40.2246 105.604H41.4893L41.3799 108.372C41.3525 109.074 41.2728 109.68 41.1406 110.19C41.0085 110.701 40.8398 111.136 40.6348 111.496C40.4297 111.852 40.1995 112.15 39.9443 112.392C39.6937 112.633 39.4339 112.836 39.165 113H38.5361L38.5703 111.968L38.8301 111.961C38.9805 111.783 39.1263 111.601 39.2676 111.414C39.4089 111.223 39.5387 110.997 39.6572 110.737C39.7757 110.473 39.8737 110.152 39.9512 109.773C40.0332 109.391 40.0856 108.924 40.1084 108.372L40.2246 105.604ZM40.5391 105.604H44.9893V113H43.7246V106.772H40.5391V105.604ZM38.249 111.961H45.9395V115.181H44.6748V113H39.5137V115.181H38.2422L38.249 111.961ZM51.7021 111.735V107.928C51.7021 107.636 51.6429 107.383 51.5244 107.169C51.4105 106.95 51.2373 106.782 51.0049 106.663C50.7725 106.545 50.4854 106.485 50.1436 106.485C49.8245 106.485 49.5443 106.54 49.3027 106.649C49.0658 106.759 48.8789 106.902 48.7422 107.08C48.61 107.258 48.5439 107.449 48.5439 107.654H47.2793C47.2793 107.39 47.3477 107.128 47.4844 106.868C47.6211 106.608 47.8171 106.374 48.0723 106.164C48.332 105.95 48.6419 105.781 49.002 105.658C49.3665 105.531 49.7721 105.467 50.2188 105.467C50.7565 105.467 51.2305 105.558 51.6406 105.74C52.0553 105.923 52.3789 106.198 52.6113 106.567C52.8483 106.932 52.9668 107.39 52.9668 107.941V111.387C52.9668 111.633 52.9873 111.895 53.0283 112.173C53.0739 112.451 53.14 112.69 53.2266 112.891V113H51.9072C51.8434 112.854 51.7933 112.66 51.7568 112.419C51.7204 112.173 51.7021 111.945 51.7021 111.735ZM51.9209 108.516L51.9346 109.404H50.6562C50.2962 109.404 49.9749 109.434 49.6924 109.493C49.4098 109.548 49.1729 109.632 48.9814 109.746C48.79 109.86 48.6442 110.004 48.5439 110.177C48.4437 110.345 48.3936 110.544 48.3936 110.771C48.3936 111.004 48.446 111.216 48.5508 111.407C48.6556 111.599 48.8128 111.751 49.0225 111.865C49.2367 111.975 49.4987 112.029 49.8086 112.029C50.196 112.029 50.5378 111.947 50.834 111.783C51.1302 111.619 51.3649 111.419 51.5381 111.182C51.7158 110.945 51.8115 110.715 51.8252 110.491L52.3652 111.1C52.3333 111.291 52.2467 111.503 52.1055 111.735C51.9642 111.968 51.7751 112.191 51.5381 112.405C51.3057 112.615 51.0277 112.79 50.7041 112.932C50.3851 113.068 50.0251 113.137 49.624 113.137C49.1227 113.137 48.6829 113.039 48.3047 112.843C47.931 112.647 47.6393 112.385 47.4297 112.057C47.2246 111.724 47.1221 111.353 47.1221 110.942C47.1221 110.546 47.1995 110.197 47.3545 109.896C47.5094 109.591 47.7327 109.338 48.0244 109.138C48.3161 108.933 48.667 108.778 49.0771 108.673C49.4873 108.568 49.9453 108.516 50.4512 108.516H51.9209ZM59.9736 108.81V109.835H56.0635V108.81H59.9736ZM56.3301 105.604V113H55.0654V105.604H56.3301ZM60.999 105.604V113H59.7275V105.604H60.999ZM64.4033 110.997L67.8145 105.604H69.0859V113H67.8145V107.606L64.4033 113H63.1455V105.604H64.4033V110.997ZM72.6133 109.473H73.9805L71.8408 113H70.4736L72.6133 109.473ZM73.6729 105.604H76.7627V113H75.498V106.629H73.6729C73.3128 106.629 73.0189 106.69 72.791 106.813C72.5632 106.932 72.3968 107.087 72.292 107.278C72.1872 107.47 72.1348 107.668 72.1348 107.873C72.1348 108.074 72.1826 108.267 72.2783 108.454C72.374 108.636 72.5244 108.787 72.7295 108.905C72.9346 109.024 73.1989 109.083 73.5225 109.083H75.8398V110.122H73.5225C73.0986 110.122 72.7227 110.065 72.3945 109.951C72.0664 109.837 71.7884 109.68 71.5605 109.479C71.3327 109.274 71.1595 109.035 71.041 108.762C70.9225 108.484 70.8633 108.183 70.8633 107.859C70.8633 107.536 70.9248 107.237 71.0479 106.964C71.1755 106.69 71.3577 106.451 71.5947 106.246C71.8363 106.041 72.1302 105.884 72.4766 105.774C72.8275 105.66 73.2262 105.604 73.6729 105.604Z" fill="white"/>
<path d="M58.9173 20.6667H41.0827C29.8072 20.6667 20.6667 29.8072 20.6667 41.0827V58.9173C20.6667 70.1928 29.8072 79.3333 41.0827 79.3333H58.9173C70.1928 79.3333 79.3333 70.1928 79.3333 58.9173V41.0827C79.3333 29.8072 70.1928 20.6667 58.9173 20.6667Z" fill="#F8DE40"/>
<path d="M79.3333 55.168C75.7073 60.5981 70.7815 65.0357 65.0038 68.0774C59.226 71.119 52.7796 72.6682 46.2507 72.584C31.472 72.584 28.7493 69.9173 21.872 65.84C23.2979 69.7916 25.9076 73.2075 29.3453 75.6221C32.783 78.0367 36.8817 79.3326 41.0827 79.3333H58.9173C64.332 79.3333 69.5249 77.1824 73.3536 73.3536C77.1824 69.5249 79.3333 64.332 79.3333 58.9173V55.168Z" fill="#E7C930"/>
<path d="M69.2 54.784C65.961 54.1273 63.0788 52.2973 61.1067 49.6453C60.0845 48.4412 58.6857 47.6175 57.1369 47.3077C55.588 46.998 53.98 47.2203 52.5733 47.9387C51.4646 48.7232 50.578 49.7816 50 51.0107C49.4218 49.7825 48.5364 48.7243 47.4293 47.9387C46.0225 47.2212 44.4147 46.9994 42.8661 47.3092C41.3175 47.6189 39.9187 48.442 38.896 49.6453C36.9237 52.2984 34.0402 54.1286 30.8 54.784C30.5927 54.7868 30.3897 54.8443 30.2118 54.9507C30.0339 55.0572 29.8873 55.2088 29.7868 55.3902C29.6864 55.5716 29.6357 55.7764 29.6399 55.9837C29.644 56.191 29.703 56.3935 29.8107 56.5707C30.761 58.2085 32.1674 59.5344 33.8582 60.3867C35.5491 61.239 37.4515 61.5809 39.3333 61.3707C45.664 61 48.752 58.76 50 56.4827C51.2427 58.76 54.3307 61 60.6667 61.3707C62.5556 61.582 64.4651 61.2374 66.1609 60.379C67.8568 59.5207 69.2652 58.186 70.2133 56.5387C70.3157 56.3608 70.3695 56.1591 70.3694 55.9538C70.3693 55.7486 70.3151 55.547 70.2125 55.3692C70.1098 55.1915 69.9623 55.0438 69.7846 54.9411C69.6068 54.8384 69.4053 54.7842 69.2 54.784Z" fill="#864E20"/>
<path d="M75.4773 33.1813C75.3093 32.4107 67.776 30.9707 62.488 30.9707C59.4324 30.6708 56.3588 31.3227 53.688 32.8373C52.5482 33.4333 51.2859 33.7573 50 33.784C48.7165 33.7589 47.4562 33.4377 46.3173 32.8453C43.6466 31.3307 40.573 30.6788 37.5173 30.9787C32.2293 30.9787 24.696 32.4187 24.528 33.1893C24.36 33.96 24.2267 36.4347 24.7627 36.872C25.2987 37.3093 25.9333 36.9387 26.0347 38.472C26.136 40.0053 27.3067 46.408 30.856 48.5173C34.4053 50.6267 40.832 48.952 43.1227 47.544C45.5763 46.0224 47.3657 43.6312 48.1333 40.848C48.5013 38.4693 49.0693 36.8293 50 36.8293C50.9307 36.8293 51.5067 38.4693 51.8667 40.848C52.6376 43.632 54.4309 46.0224 56.888 47.5413C59.1653 48.9493 65.592 50.6213 69.1547 48.5147C72.7173 46.408 73.8747 40.0107 73.976 38.4693C74.0773 36.928 74.712 37.2987 75.248 36.8693C75.784 36.44 75.6453 33.9493 75.4773 33.1813Z" fill="#101820"/>
</svg>
