<svg width="45" height="42" viewBox="0 0 45 42" fill="none" xmlns="http://www.w3.org/2000/svg">
<path d="M11.1303 10.9128C11.8249 8.0317 13.3313 5.51147 15.3939 3.72811C17.454 1.94696 19.9544 0.99797 22.5081 1C25.0619 1.00204 27.5612 1.95502 29.6192 3.73954C31.6797 5.52626 33.183 8.04897 33.874 10.9312" stroke="white" stroke-width="2"/>
<rect x="32.0294" y="11.6334" width="3.97059" height="10.5667" rx="1.98529" stroke="white" stroke-width="2"/>
<rect x="9" y="11.6334" width="3.97059" height="10.5667" rx="1.98529" stroke="white" stroke-width="2"/>
<path d="M1.34766 30.4688H2.44336L5.23828 37.4238L8.02734 30.4688H9.12891L5.66016 39H4.80469L1.34766 30.4688ZM0.990234 30.4688H1.95703L2.11523 35.6719V39H0.990234V30.4688ZM8.51367 30.4688H9.48047V39H8.35547V35.6719L8.51367 30.4688ZM13.084 38.3438L14.8477 32.6602H16.0078L13.4648 39.9785C13.4062 40.1348 13.3281 40.3027 13.2305 40.4824C13.1367 40.666 13.0156 40.8398 12.8672 41.0039C12.7188 41.168 12.5391 41.3008 12.3281 41.4023C12.1211 41.5078 11.873 41.5605 11.584 41.5605C11.498 41.5605 11.3887 41.5488 11.2559 41.5254C11.123 41.502 11.0293 41.4824 10.9746 41.4668L10.9688 40.5879C11 40.5918 11.0488 40.5957 11.1152 40.5996C11.1855 40.6074 11.2344 40.6113 11.2617 40.6113C11.5078 40.6113 11.7168 40.5781 11.8887 40.5117C12.0605 40.4492 12.2051 40.3418 12.3223 40.1895C12.4434 40.041 12.5469 39.8359 12.6328 39.5742L13.084 38.3438ZM11.7891 32.6602L13.4355 37.582L13.7168 38.7246L12.9375 39.123L10.6055 32.6602H11.7891ZM19.3535 35.9707H18.1875V35.3027H19.2656C19.5664 35.3027 19.8047 35.2656 19.9805 35.1914C20.1562 35.1133 20.2812 35.0059 20.3555 34.8691C20.4297 34.7324 20.4668 34.5723 20.4668 34.3887C20.4668 34.2246 20.4238 34.0703 20.3379 33.9258C20.2559 33.7773 20.123 33.6582 19.9395 33.5684C19.7559 33.4746 19.5098 33.4277 19.2012 33.4277C18.9512 33.4277 18.7246 33.4727 18.5215 33.5625C18.3184 33.6484 18.1562 33.7676 18.0352 33.9199C17.918 34.0684 17.8594 34.2363 17.8594 34.4238H16.7754C16.7754 34.0371 16.8848 33.7051 17.1035 33.4277C17.3262 33.1465 17.6211 32.9297 17.9883 32.7773C18.3594 32.625 18.7637 32.5488 19.2012 32.5488C19.5684 32.5488 19.8965 32.5898 20.1855 32.6719C20.4785 32.75 20.7266 32.8672 20.9297 33.0234C21.1328 33.1758 21.2871 33.3672 21.3926 33.5977C21.502 33.8242 21.5566 34.0879 21.5566 34.3887C21.5566 34.6035 21.5059 34.8066 21.4043 34.998C21.3027 35.1895 21.1562 35.3594 20.9648 35.5078C20.7734 35.6523 20.541 35.7656 20.2676 35.8477C19.998 35.9297 19.6934 35.9707 19.3535 35.9707ZM18.1875 35.5605H19.3535C19.7324 35.5605 20.0664 35.5977 20.3555 35.6719C20.6445 35.7422 20.8867 35.8477 21.082 35.9883C21.2773 36.1289 21.4238 36.3027 21.5215 36.5098C21.623 36.7129 21.6738 36.9473 21.6738 37.2129C21.6738 37.5098 21.6133 37.7773 21.4922 38.0156C21.375 38.25 21.207 38.4492 20.9883 38.6133C20.7695 38.7773 20.5078 38.9023 20.2031 38.9883C19.9023 39.0742 19.5684 39.1172 19.2012 39.1172C18.791 39.1172 18.3926 39.0469 18.0059 38.9062C17.6191 38.7656 17.3008 38.5488 17.0508 38.2559C16.8008 37.959 16.6758 37.582 16.6758 37.125H17.7598C17.7598 37.3164 17.8203 37.498 17.9414 37.6699C18.0625 37.8418 18.2305 37.9805 18.4453 38.0859C18.6641 38.1914 18.916 38.2441 19.2012 38.2441C19.5059 38.2441 19.7598 38.1973 19.9629 38.1035C20.166 38.0098 20.3184 37.8848 20.4199 37.7285C20.5254 37.5723 20.5781 37.4023 20.5781 37.2188C20.5781 36.9805 20.5312 36.7891 20.4375 36.6445C20.3438 36.5 20.1992 36.3945 20.0039 36.3281C19.8125 36.2578 19.5664 36.2227 19.2656 36.2227H18.1875V35.5605ZM23.9707 34.8398H25.875C26.3867 34.8398 26.8184 34.9297 27.1699 35.1094C27.5215 35.2852 27.7871 35.5293 27.9668 35.8418C28.1504 36.1504 28.2422 36.502 28.2422 36.8965C28.2422 37.1895 28.1914 37.4648 28.0898 37.7227C27.9883 37.9766 27.8359 38.1992 27.6328 38.3906C27.4336 38.582 27.1855 38.7324 26.8887 38.8418C26.5957 38.9473 26.2578 39 25.875 39H23.1797V32.6602H24.2637V38.1094H25.875C26.1875 38.1094 26.4375 38.0527 26.625 37.9395C26.8125 37.8262 26.9473 37.6797 27.0293 37.5C27.1113 37.3203 27.1523 37.1328 27.1523 36.9375C27.1523 36.7461 27.1113 36.5586 27.0293 36.375C26.9473 36.1914 26.8125 36.0391 26.625 35.918C26.4375 35.793 26.1875 35.7305 25.875 35.7305H23.9707V34.8398ZM30.498 32.6602V39H29.4141V32.6602H30.498ZM33.5742 32.6602V39H32.4902V32.6602H33.5742ZM37.7344 32.6602L34.7285 36.293H33.2109L33.0469 35.3438H34.2891L36.416 32.6602H37.7344ZM36.5684 39L34.2363 36.1289L34.9336 35.3438L37.9453 39H36.5684ZM42.627 37.916V34.6523C42.627 34.4023 42.5762 34.1855 42.4746 34.002C42.377 33.8145 42.2285 33.6699 42.0293 33.5684C41.8301 33.4668 41.584 33.416 41.291 33.416C41.0176 33.416 40.7773 33.4629 40.5703 33.5566C40.3672 33.6504 40.207 33.7734 40.0898 33.9258C39.9766 34.0781 39.9199 34.2422 39.9199 34.418H38.8359C38.8359 34.1914 38.8945 33.9668 39.0117 33.7441C39.1289 33.5215 39.2969 33.3203 39.5156 33.1406C39.7383 32.957 40.0039 32.8125 40.3125 32.707C40.625 32.5977 40.9727 32.543 41.3555 32.543C41.8164 32.543 42.2227 32.6211 42.5742 32.7773C42.9297 32.9336 43.207 33.1699 43.4062 33.4863C43.6094 33.7988 43.7109 34.1914 43.7109 34.6641V37.6172C43.7109 37.8281 43.7285 38.0527 43.7637 38.291C43.8027 38.5293 43.8594 38.7344 43.9336 38.9062V39H42.8027C42.748 38.875 42.7051 38.709 42.6738 38.502C42.6426 38.291 42.627 38.0957 42.627 37.916ZM42.8145 35.1562L42.8262 35.918H41.7305C41.4219 35.918 41.1465 35.9434 40.9043 35.9941C40.6621 36.041 40.459 36.1133 40.2949 36.2109C40.1309 36.3086 40.0059 36.4316 39.9199 36.5801C39.834 36.7246 39.791 36.8945 39.791 37.0898C39.791 37.2891 39.8359 37.4707 39.9258 37.6348C40.0156 37.7988 40.1504 37.9297 40.3301 38.0273C40.5137 38.1211 40.7383 38.168 41.0039 38.168C41.3359 38.168 41.6289 38.0977 41.8828 37.957C42.1367 37.8164 42.3379 37.6445 42.4863 37.4414C42.6387 37.2383 42.7207 37.041 42.7324 36.8496L43.1953 37.3711C43.168 37.5352 43.0938 37.7168 42.9727 37.916C42.8516 38.1152 42.6895 38.3066 42.4863 38.4902C42.2871 38.6699 42.0488 38.8203 41.7715 38.9414C41.498 39.0586 41.1895 39.1172 40.8457 39.1172C40.416 39.1172 40.0391 39.0332 39.7148 38.8652C39.3945 38.6973 39.1445 38.4727 38.9648 38.1914C38.7891 37.9062 38.7012 37.5879 38.7012 37.2363C38.7012 36.8965 38.7676 36.5977 38.9004 36.3398C39.0332 36.0781 39.2246 35.8613 39.4746 35.6895C39.7246 35.5137 40.0254 35.3809 40.377 35.291C40.7285 35.2012 41.1211 35.1562 41.5547 35.1562H42.8145Z" fill="white"/>
</svg>
