<svg width="38" height="22" viewBox="0 0 38 22" fill="none" xmlns="http://www.w3.org/2000/svg">
<path d="M19.9039 9.71667C20.8685 10.3003 20.8685 11.6996 19.9039 12.2833L10.0242 18.2617C9.02451 18.8666 7.74762 18.1468 7.74762 16.9784V5.02162C7.74762 3.85316 9.02451 3.13336 10.0242 3.73829L19.9039 9.71667Z" fill="#915382" stroke="white"/>
<path d="M33.984 9.71667C34.9485 10.3003 34.9485 11.6996 33.984 12.2833L24.1043 18.2617C23.1046 18.8666 21.8277 18.1468 21.8277 16.9784V5.02162C21.8277 3.85316 23.1046 3.13336 24.1043 3.73829L33.984 9.71667Z" fill="#915382" stroke="white"/>
<line y1="-0.5" x2="38.3249" y2="-0.5" transform="matrix(0.930105 0.367294 0.367294 -0.930105 1 5)" stroke="#915382"/>
<line y1="-0.5" x2="38.3249" y2="-0.5" transform="matrix(0.886273 -0.463163 -0.463163 -0.886273 1.67993 17.7507)" stroke="#915382"/>
</svg>
