<svg width="37" height="22" viewBox="0 0 37 22" fill="none" xmlns="http://www.w3.org/2000/svg">
<path d="M17.2278 9.71926C16.2689 10.3039 16.2689 11.6961 17.2278 12.2807L27.0108 18.2452C28.0104 18.8547 29.2917 18.1352 29.2917 16.9645V5.03549C29.2917 3.86479 28.0104 3.14533 27.0108 3.75475L17.2278 9.71926Z" fill="#915382" stroke="white"/>
<path d="M3.06117 9.71926C2.10229 10.3039 2.10229 11.6961 3.06117 12.2807L12.8442 18.2452C13.8437 18.8547 15.125 18.1352 15.125 16.9645V5.03549C15.125 3.86479 13.8437 3.14533 12.8442 3.75475L3.06117 9.71926Z" fill="#915382" stroke="white"/>
<line x1="35.8299" y1="5.46505" x2="0.183721" y2="19.5415" stroke="#915382"/>
<line x1="34.7348" y1="18.1938" x2="0.768414" y2="0.44313" stroke="#915382"/>
</svg>
