<svg width="100" height="116" viewBox="0 0 100 116" fill="none" xmlns="http://www.w3.org/2000/svg">
<rect x="1" y="1" width="98" height="98" rx="29" stroke="white" stroke-width="2"/>
<path d="M21.6562 107.326V108.399H16.2695V107.326H21.6562ZM16.4746 103.047V113H15.1553V103.047H16.4746ZM22.8047 103.047V113H21.4922V103.047H22.8047ZM29.3193 111.735V107.928C29.3193 107.636 29.2601 107.383 29.1416 107.169C29.0277 106.95 28.8545 106.782 28.6221 106.663C28.3896 106.545 28.1025 106.485 27.7607 106.485C27.4417 106.485 27.1615 106.54 26.9199 106.649C26.6829 106.759 26.4961 106.902 26.3594 107.08C26.2272 107.258 26.1611 107.449 26.1611 107.654H24.8965C24.8965 107.39 24.9648 107.128 25.1016 106.868C25.2383 106.608 25.4342 106.374 25.6895 106.164C25.9492 105.95 26.2591 105.781 26.6191 105.658C26.9837 105.531 27.3893 105.467 27.8359 105.467C28.3737 105.467 28.8477 105.558 29.2578 105.74C29.6725 105.923 29.9961 106.198 30.2285 106.567C30.4655 106.932 30.584 107.39 30.584 107.941V111.387C30.584 111.633 30.6045 111.895 30.6455 112.173C30.6911 112.451 30.7572 112.69 30.8438 112.891V113H29.5244C29.4606 112.854 29.4105 112.66 29.374 112.419C29.3376 112.173 29.3193 111.945 29.3193 111.735ZM29.5381 108.516L29.5518 109.404H28.2734C27.9134 109.404 27.5921 109.434 27.3096 109.493C27.027 109.548 26.79 109.632 26.5986 109.746C26.4072 109.86 26.2614 110.004 26.1611 110.177C26.0609 110.345 26.0107 110.544 26.0107 110.771C26.0107 111.004 26.0632 111.216 26.168 111.407C26.2728 111.599 26.43 111.751 26.6396 111.865C26.8538 111.975 27.1159 112.029 27.4258 112.029C27.8132 112.029 28.1549 111.947 28.4512 111.783C28.7474 111.619 28.9821 111.419 29.1553 111.182C29.333 110.945 29.4287 110.715 29.4424 110.491L29.9824 111.1C29.9505 111.291 29.8639 111.503 29.7227 111.735C29.5814 111.968 29.3923 112.191 29.1553 112.405C28.9229 112.615 28.6449 112.79 28.3213 112.932C28.0023 113.068 27.6423 113.137 27.2412 113.137C26.7399 113.137 26.3001 113.039 25.9219 112.843C25.5482 112.647 25.2565 112.385 25.0469 112.057C24.8418 111.724 24.7393 111.353 24.7393 110.942C24.7393 110.546 24.8167 110.197 24.9717 109.896C25.1266 109.591 25.3499 109.338 25.6416 109.138C25.9333 108.933 26.2842 108.778 26.6943 108.673C27.1045 108.568 27.5625 108.516 28.0684 108.516H29.5381ZM35.5332 112.098C35.834 112.098 36.112 112.036 36.3672 111.913C36.6224 111.79 36.832 111.621 36.9961 111.407C37.1602 111.188 37.2536 110.94 37.2764 110.662H38.4795C38.4567 111.1 38.3086 111.507 38.0352 111.886C37.7663 112.259 37.4131 112.562 36.9756 112.795C36.5381 113.023 36.0573 113.137 35.5332 113.137C34.9772 113.137 34.4919 113.039 34.0771 112.843C33.667 112.647 33.3252 112.378 33.0518 112.036C32.7829 111.694 32.5801 111.302 32.4434 110.86C32.3112 110.414 32.2451 109.942 32.2451 109.445V109.158C32.2451 108.661 32.3112 108.192 32.4434 107.75C32.5801 107.303 32.7829 106.909 33.0518 106.567C33.3252 106.226 33.667 105.957 34.0771 105.761C34.4919 105.565 34.9772 105.467 35.5332 105.467C36.112 105.467 36.6178 105.585 37.0508 105.822C37.4837 106.055 37.8232 106.374 38.0693 106.779C38.32 107.18 38.4567 107.636 38.4795 108.146H37.2764C37.2536 107.841 37.167 107.565 37.0166 107.319C36.8708 107.073 36.6702 106.877 36.415 106.731C36.1644 106.581 35.8704 106.506 35.5332 106.506C35.1458 106.506 34.82 106.583 34.5557 106.738C34.2959 106.889 34.0885 107.094 33.9336 107.354C33.7832 107.609 33.6738 107.894 33.6055 108.208C33.5417 108.518 33.5098 108.835 33.5098 109.158V109.445C33.5098 109.769 33.5417 110.088 33.6055 110.402C33.6693 110.717 33.7764 111.002 33.9268 111.257C34.0817 111.512 34.2891 111.717 34.5488 111.872C34.8132 112.022 35.1413 112.098 35.5332 112.098ZM42.916 105.604V113H41.6445V105.604H42.916ZM45.3975 105.604V106.629H39.2109V105.604H45.3975ZM47.9062 107.025V115.844H46.6348V105.604H47.7969L47.9062 107.025ZM52.8896 109.24V109.384C52.8896 109.922 52.8258 110.421 52.6982 110.881C52.5706 111.337 52.3838 111.733 52.1377 112.07C51.8962 112.408 51.5977 112.67 51.2422 112.856C50.8867 113.043 50.4788 113.137 50.0186 113.137C49.5492 113.137 49.1344 113.059 48.7744 112.904C48.4144 112.749 48.109 112.524 47.8584 112.228C47.6077 111.931 47.4072 111.576 47.2568 111.161C47.111 110.746 47.0107 110.279 46.9561 109.76V108.994C47.0107 108.447 47.1133 107.957 47.2637 107.524C47.4141 107.091 47.6123 106.722 47.8584 106.417C48.109 106.107 48.4121 105.872 48.7676 105.713C49.123 105.549 49.5332 105.467 49.998 105.467C50.4629 105.467 50.8753 105.558 51.2354 105.74C51.5954 105.918 51.8984 106.173 52.1445 106.506C52.3906 106.839 52.5752 107.237 52.6982 107.702C52.8258 108.162 52.8896 108.675 52.8896 109.24ZM51.6182 109.384V109.24C51.6182 108.871 51.5794 108.525 51.502 108.201C51.4245 107.873 51.3037 107.586 51.1396 107.34C50.9801 107.089 50.7751 106.893 50.5244 106.752C50.2738 106.606 49.9753 106.533 49.6289 106.533C49.3099 106.533 49.0319 106.588 48.7949 106.697C48.5625 106.807 48.3643 106.955 48.2002 107.142C48.0361 107.324 47.9017 107.534 47.7969 107.771C47.6966 108.003 47.6214 108.244 47.5713 108.495V110.266C47.6624 110.585 47.79 110.885 47.9541 111.168C48.1182 111.446 48.3369 111.672 48.6104 111.845C48.8838 112.013 49.2279 112.098 49.6426 112.098C49.9844 112.098 50.2783 112.027 50.5244 111.886C50.7751 111.74 50.9801 111.542 51.1396 111.291C51.3037 111.04 51.4245 110.753 51.502 110.43C51.5794 110.102 51.6182 109.753 51.6182 109.384ZM54.168 109.384V109.227C54.168 108.693 54.2454 108.199 54.4004 107.743C54.5553 107.283 54.7786 106.884 55.0703 106.547C55.362 106.205 55.7152 105.941 56.1299 105.754C56.5446 105.562 57.0094 105.467 57.5244 105.467C58.0439 105.467 58.5111 105.562 58.9258 105.754C59.3451 105.941 59.7005 106.205 59.9922 106.547C60.2884 106.884 60.514 107.283 60.6689 107.743C60.8239 108.199 60.9014 108.693 60.9014 109.227V109.384C60.9014 109.917 60.8239 110.411 60.6689 110.867C60.514 111.323 60.2884 111.722 59.9922 112.063C59.7005 112.401 59.3473 112.665 58.9326 112.856C58.5225 113.043 58.0576 113.137 57.5381 113.137C57.0186 113.137 56.5514 113.043 56.1367 112.856C55.722 112.665 55.3665 112.401 55.0703 112.063C54.7786 111.722 54.5553 111.323 54.4004 110.867C54.2454 110.411 54.168 109.917 54.168 109.384ZM55.4326 109.227V109.384C55.4326 109.753 55.4759 110.102 55.5625 110.43C55.6491 110.753 55.779 111.04 55.9521 111.291C56.1299 111.542 56.3509 111.74 56.6152 111.886C56.8796 112.027 57.1872 112.098 57.5381 112.098C57.8844 112.098 58.1875 112.027 58.4473 111.886C58.7116 111.74 58.9303 111.542 59.1035 111.291C59.2767 111.04 59.4066 110.753 59.4932 110.43C59.5843 110.102 59.6299 109.753 59.6299 109.384V109.227C59.6299 108.862 59.5843 108.518 59.4932 108.194C59.4066 107.866 59.2744 107.577 59.0967 107.326C58.9235 107.071 58.7048 106.87 58.4404 106.725C58.1807 106.579 57.8753 106.506 57.5244 106.506C57.1781 106.506 56.8727 106.579 56.6084 106.725C56.3486 106.87 56.1299 107.071 55.9521 107.326C55.779 107.577 55.6491 107.866 55.5625 108.194C55.4759 108.518 55.4326 108.862 55.4326 109.227ZM63.8545 110.997L67.2656 105.604H68.5371V113H67.2656V107.606L63.8545 113H62.5967V105.604H63.8545V110.997ZM66.5752 102.924H67.6006C67.6006 103.279 67.5186 103.596 67.3545 103.874C67.1904 104.147 66.9557 104.362 66.6504 104.517C66.3451 104.672 65.9827 104.749 65.5635 104.749C64.93 104.749 64.4287 104.58 64.0596 104.243C63.695 103.901 63.5127 103.462 63.5127 102.924H64.5381C64.5381 103.193 64.6156 103.43 64.7705 103.635C64.9255 103.84 65.1898 103.942 65.5635 103.942C65.9281 103.942 66.1878 103.84 66.3428 103.635C66.4977 103.43 66.5752 103.193 66.5752 102.924ZM71.9414 105.604V113H70.6768V105.604H71.9414ZM76.7949 105.604L73.2881 109.842H71.5176L71.3262 108.734H72.7754L75.2568 105.604H76.7949ZM75.4346 113L72.7139 109.65L73.5273 108.734L77.041 113H75.4346ZM79.5088 110.997L82.9199 105.604H84.1914V113H82.9199V107.606L79.5088 113H78.251V105.604H79.5088V110.997Z" fill="white"/>
<g clip-path="url(#clip0_302_264)">
<path fill-rule="evenodd" clip-rule="evenodd" d="M56.7578 20.7812C58.3984 21.1719 59.9609 21.6797 61.4844 22.3047C63.0078 22.9297 64.4922 23.7109 65.8984 24.5703L66.9531 25.2344L66.3281 26.2891L64.3359 29.5312C65.5078 30.3516 66.6406 31.2891 67.6562 32.3047C68.6719 33.3203 69.6484 34.4531 70.4688 35.625L73.75 33.6719L74.8047 33.0469L75.4688 34.0625C76.3672 35.4688 77.1094 36.9531 77.7734 38.4766C78.3984 40 78.9062 41.5625 79.2969 43.2031L79.5703 44.4141L78.3594 44.7266L74.6484 45.625C74.7266 46.1328 74.8047 46.6797 74.8828 47.1875C75 48.125 75.0391 49.0625 75.0391 50C75.0391 50.9375 75 51.8359 74.8828 52.7734C74.8438 53.2812 74.7656 53.7891 74.6484 54.2969L78.3594 55.2344L79.5312 55.5469L79.2578 56.7578C78.8672 58.3984 78.3594 59.9609 77.7344 61.4844C77.1094 63.0469 76.3281 64.5312 75.4688 65.8984L74.8047 66.9531L73.75 66.3281L70.5078 64.3359C69.6875 65.5078 68.75 66.6406 67.7344 67.6562C66.7188 68.6719 65.5859 69.6484 64.4141 70.4688L66.3672 73.75L66.9922 74.8047L65.9766 75.4688C64.5703 76.3672 63.0859 77.1094 61.5625 77.7734C60.0391 78.3984 58.4766 78.9062 56.8359 79.2969L55.625 79.5703L55.3125 78.3594L54.4141 74.6484C53.9062 74.7266 53.3594 74.8047 52.8516 74.8828C51.9141 75 50.9766 75.0391 50.0391 75.0391C49.1016 75.0391 48.2031 75 47.2656 74.8828C46.7578 74.8438 46.25 74.7656 45.7422 74.6484L44.8047 78.3594L44.4922 79.5312L43.2812 79.2578C41.6406 78.8672 40.0391 78.3594 38.5156 77.7344C36.9531 77.1094 35.4688 76.3281 34.0625 75.4297L33.0469 74.7656L33.6719 73.7109L35.625 70.4297C34.4531 69.6094 33.3203 68.6719 32.3047 67.6172C31.2891 66.6016 30.3516 65.4688 29.5312 64.2969L26.2891 66.2891L25.2344 66.9141L24.5703 65.8594C23.7109 64.4531 22.9297 62.9688 22.3047 61.4453C21.6797 59.9219 21.1719 58.3203 20.7812 56.7188L20.5078 55.5078L21.6797 55.1953L25.3906 54.2578C25.3125 53.75 25.2344 53.2422 25.1562 52.7344C25.0391 51.7969 25 50.8984 25 49.9609C25 49.0234 25.0391 48.0859 25.1562 47.1484C25.2344 46.6406 25.2734 46.0938 25.3906 45.5859L21.6797 44.6875L20.4688 44.375L20.7422 43.1641C21.1328 41.5234 21.6406 39.9609 22.2656 38.4375C22.8906 36.9141 23.6719 35.4297 24.5703 34.0234L25.2344 33.0078L26.2891 33.6328L29.5703 35.5859C30.3906 34.4141 31.3281 33.2812 32.3828 32.2656C33.3984 31.25 34.5312 30.3125 35.7031 29.4922L33.7109 26.25L33.0859 25.1953L34.1406 24.5312C35.5469 23.6719 37.0312 22.8906 38.5547 22.2656C40.0781 21.6406 41.6797 21.1328 43.2812 20.7422L44.4922 20.4688L44.8047 21.6406L45.7422 25.3516C46.25 25.2734 46.7578 25.1953 47.2656 25.1172C48.2031 25 49.1016 24.9609 50.0391 24.9609C50.9766 24.9609 51.9141 25 52.8516 25.1172C53.3594 25.1953 53.9062 25.2344 54.4141 25.3516L55.3125 21.6406L55.625 20.4297L56.8359 20.7031L56.7578 20.7812Z" fill="#009688"/>
<path fill-rule="evenodd" clip-rule="evenodd" d="M50 32.8125C54.7266 32.8125 59.0234 34.7266 62.1484 37.8516C65.2734 40.9766 67.1875 45.2344 67.1875 50C67.1875 54.7266 65.2734 59.0234 62.1484 62.1484C59.0234 65.2734 54.7656 67.1875 50 67.1875C45.2734 67.1875 40.9766 65.2734 37.8516 62.1484C34.7266 59.0234 32.8125 54.7656 32.8125 50C32.8125 45.2734 34.7266 40.9766 37.8516 37.8516C40.9766 34.7266 45.2344 32.8125 50 32.8125Z" fill="#00695C"/>
<path fill-rule="evenodd" clip-rule="evenodd" d="M50 42.5C52.0703 42.5 53.9453 43.3203 55.3125 44.6875C56.6797 46.0547 57.5 47.9297 57.5 50C57.5 52.0703 56.6797 53.9453 55.3125 55.3125C53.9453 56.6797 52.0703 57.5 50 57.5C47.9297 57.5 46.0547 56.6797 44.6875 55.3125C43.3203 53.9453 42.5 52.0703 42.5 50C42.5 47.9297 43.3203 46.0547 44.6875 44.6875C46.0547 43.3203 47.9297 42.5 50 42.5Z" fill="#009688"/>
<path fill-rule="evenodd" clip-rule="evenodd" d="M50 43.75C51.7188 43.75 53.2812 44.4531 54.4141 45.5859C55.5469 46.7188 56.25 48.2812 56.25 50C56.25 51.7188 55.5469 53.2812 54.4141 54.4141C53.2812 55.5469 51.7188 56.25 50 56.25C48.2812 56.25 46.7188 55.5469 45.5859 54.4141C44.4531 53.2812 43.75 51.7188 43.75 50C43.75 48.2812 44.4531 46.7188 45.5859 45.5859C46.7188 44.4531 48.2812 43.75 50 43.75Z" fill="#004D40"/>
</g>
<defs>
<clipPath id="clip0_302_264">
<rect width="80" height="80" fill="white" transform="translate(10 10)"/>
</clipPath>
</defs>
</svg>
