<svg width="41" height="43" viewBox="0 0 41 43" fill="none" xmlns="http://www.w3.org/2000/svg">
<circle cx="20.5" cy="13.5" r="12.5" fill="white" stroke="#CD2266" stroke-width="2"/>
<path d="M16.6786 6.88107L28.1429 13.5L16.6786 20.1189V6.88107Z" fill="white" stroke="#CD2266" stroke-width="2"/>
<path d="M24.3214 20.1189L12.8571 13.5L24.3214 6.88112L24.3214 20.1189Z" fill="white" stroke="#CD2266" stroke-width="2"/>
<path d="M18.6071 10.2215L24.2857 13.5L18.6071 16.7785V10.2215Z" fill="white" stroke="white" stroke-width="2"/>
<path d="M4.14844 32.2246L1.32422 40H0.169922L3.42188 31.4688H4.16602L4.14844 32.2246ZM6.51562 40L3.68555 32.2246L3.66797 31.4688H4.41211L7.67578 40H6.51562ZM6.36914 36.8418V37.7676H1.57617V36.8418H6.36914ZM9.83203 33.6602V40H8.74219V33.6602H9.83203ZM8.66016 31.9785C8.66016 31.8027 8.71289 31.6543 8.81836 31.5332C8.92773 31.4121 9.08789 31.3516 9.29883 31.3516C9.50586 31.3516 9.66406 31.4121 9.77344 31.5332C9.88672 31.6543 9.94336 31.8027 9.94336 31.9785C9.94336 32.1465 9.88672 32.291 9.77344 32.4121C9.66406 32.5293 9.50586 32.5879 9.29883 32.5879C9.08789 32.5879 8.92773 32.5293 8.81836 32.4121C8.71289 32.291 8.66016 32.1465 8.66016 31.9785ZM12.6562 34.6562V40H11.5723V33.6602H12.627L12.6562 34.6562ZM14.6367 33.625L14.6309 34.6328C14.541 34.6133 14.4551 34.6016 14.373 34.5977C14.2949 34.5898 14.2051 34.5859 14.1035 34.5859C13.8535 34.5859 13.6328 34.625 13.4414 34.7031C13.25 34.7812 13.0879 34.8906 12.9551 35.0312C12.8223 35.1719 12.7168 35.3398 12.6387 35.5352C12.5645 35.7266 12.5156 35.9375 12.4922 36.168L12.1875 36.3438C12.1875 35.9609 12.2246 35.6016 12.2988 35.2656C12.377 34.9297 12.4961 34.6328 12.6562 34.375C12.8164 34.1133 13.0195 33.9102 13.2656 33.7656C13.5156 33.6172 13.8125 33.543 14.1562 33.543C14.2344 33.543 14.3242 33.5527 14.4258 33.5723C14.5273 33.5879 14.5977 33.6055 14.6367 33.625ZM18.1113 40H16.3301L16.3418 39.0801H18.1113C18.7207 39.0801 19.2285 38.9531 19.6348 38.6992C20.041 38.4414 20.3457 38.082 20.5488 37.6211C20.7559 37.1562 20.8594 36.6133 20.8594 35.9922V35.4707C20.8594 34.9824 20.8008 34.5488 20.6836 34.1699C20.5664 33.7871 20.3945 33.4648 20.168 33.2031C19.9414 32.9375 19.6641 32.7363 19.3359 32.5996C19.0117 32.4629 18.6387 32.3945 18.2168 32.3945H16.2949V31.4688H18.2168C18.7754 31.4688 19.2852 31.5625 19.7461 31.75C20.207 31.9336 20.6035 32.2012 20.9355 32.5527C21.2715 32.9004 21.5293 33.3223 21.709 33.8184C21.8887 34.3105 21.9785 34.8652 21.9785 35.4824V35.9922C21.9785 36.6094 21.8887 37.166 21.709 37.6621C21.5293 38.1543 21.2695 38.5742 20.9297 38.9219C20.5938 39.2695 20.1875 39.5371 19.7109 39.7246C19.2383 39.9082 18.7051 40 18.1113 40ZM16.9336 31.4688V40H15.8027V31.4688H16.9336ZM24.5977 34.6562V40H23.5137V33.6602H24.5684L24.5977 34.6562ZM26.5781 33.625L26.5723 34.6328C26.4824 34.6133 26.3965 34.6016 26.3145 34.5977C26.2363 34.5898 26.1465 34.5859 26.0449 34.5859C25.7949 34.5859 25.5742 34.625 25.3828 34.7031C25.1914 34.7812 25.0293 34.8906 24.8965 35.0312C24.7637 35.1719 24.6582 35.3398 24.5801 35.5352C24.5059 35.7266 24.457 35.9375 24.4336 36.168L24.1289 36.3438C24.1289 35.9609 24.166 35.6016 24.2402 35.2656C24.3184 34.9297 24.4375 34.6328 24.5977 34.375C24.7578 34.1133 24.9609 33.9102 25.207 33.7656C25.457 33.6172 25.7539 33.543 26.0977 33.543C26.1758 33.543 26.2656 33.5527 26.3672 33.5723C26.4688 33.5879 26.5391 33.6055 26.5781 33.625ZM27.1758 36.9004V36.7656C27.1758 36.3086 27.2422 35.8848 27.375 35.4941C27.5078 35.0996 27.6992 34.7578 27.9492 34.4688C28.1992 34.1758 28.502 33.9492 28.8574 33.7891C29.2129 33.625 29.6113 33.543 30.0527 33.543C30.498 33.543 30.8984 33.625 31.2539 33.7891C31.6133 33.9492 31.918 34.1758 32.168 34.4688C32.4219 34.7578 32.6152 35.0996 32.748 35.4941C32.8809 35.8848 32.9473 36.3086 32.9473 36.7656V36.9004C32.9473 37.3574 32.8809 37.7812 32.748 38.1719C32.6152 38.5625 32.4219 38.9043 32.168 39.1973C31.918 39.4863 31.6152 39.7129 31.2598 39.877C30.9082 40.0371 30.5098 40.1172 30.0645 40.1172C29.6191 40.1172 29.2188 40.0371 28.8633 39.877C28.5078 39.7129 28.2031 39.4863 27.9492 39.1973C27.6992 38.9043 27.5078 38.5625 27.375 38.1719C27.2422 37.7812 27.1758 37.3574 27.1758 36.9004ZM28.2598 36.7656V36.9004C28.2598 37.2168 28.2969 37.5156 28.3711 37.7969C28.4453 38.0742 28.5566 38.3203 28.7051 38.5352C28.8574 38.75 29.0469 38.9199 29.2734 39.0449C29.5 39.166 29.7637 39.2266 30.0645 39.2266C30.3613 39.2266 30.6211 39.166 30.8438 39.0449C31.0703 38.9199 31.2578 38.75 31.4062 38.5352C31.5547 38.3203 31.666 38.0742 31.7402 37.7969C31.8184 37.5156 31.8574 37.2168 31.8574 36.9004V36.7656C31.8574 36.4531 31.8184 36.1582 31.7402 35.8809C31.666 35.5996 31.5527 35.3516 31.4004 35.1367C31.252 34.918 31.0645 34.7461 30.8379 34.6211C30.6152 34.4961 30.3535 34.4336 30.0527 34.4336C29.7559 34.4336 29.4941 34.4961 29.2676 34.6211C29.0449 34.7461 28.8574 34.918 28.7051 35.1367C28.5566 35.3516 28.4453 35.5996 28.3711 35.8809C28.2969 36.1582 28.2598 36.4531 28.2598 36.7656ZM35.3906 34.8789V42.4375H34.3008V33.6602H35.2969L35.3906 34.8789ZM39.6621 36.7773V36.9004C39.6621 37.3613 39.6074 37.7891 39.498 38.1836C39.3887 38.5742 39.2285 38.9141 39.0176 39.2031C38.8105 39.4922 38.5547 39.7168 38.25 39.877C37.9453 40.0371 37.5957 40.1172 37.2012 40.1172C36.7988 40.1172 36.4434 40.0508 36.1348 39.918C35.8262 39.7852 35.5645 39.5918 35.3496 39.3379C35.1348 39.084 34.9629 38.7793 34.834 38.4238C34.709 38.0684 34.623 37.668 34.5762 37.2227V36.5664C34.623 36.0977 34.7109 35.6777 34.8398 35.3066C34.9688 34.9355 35.1387 34.6191 35.3496 34.3574C35.5645 34.0918 35.8242 33.8906 36.1289 33.7539C36.4336 33.6133 36.7852 33.543 37.1836 33.543C37.582 33.543 37.9355 33.6211 38.2441 33.7773C38.5527 33.9297 38.8125 34.1484 39.0234 34.4336C39.2344 34.7188 39.3926 35.0605 39.498 35.459C39.6074 35.8535 39.6621 36.293 39.6621 36.7773ZM38.5723 36.9004V36.7773C38.5723 36.4609 38.5391 36.1641 38.4727 35.8867C38.4062 35.6055 38.3027 35.3594 38.1621 35.1484C38.0254 34.9336 37.8496 34.7656 37.6348 34.6445C37.4199 34.5195 37.1641 34.457 36.8672 34.457C36.5938 34.457 36.3555 34.5039 36.1523 34.5977C35.9531 34.6914 35.7832 34.8184 35.6426 34.9785C35.502 35.1348 35.3867 35.3145 35.2969 35.5176C35.2109 35.7168 35.1465 35.9238 35.1035 36.1387V37.6562C35.1816 37.9297 35.291 38.1875 35.4316 38.4297C35.5723 38.668 35.7598 38.8613 35.9941 39.0098C36.2285 39.1543 36.5234 39.2266 36.8789 39.2266C37.1719 39.2266 37.4238 39.166 37.6348 39.0449C37.8496 38.9199 38.0254 38.75 38.1621 38.5352C38.3027 38.3203 38.4062 38.0742 38.4727 37.7969C38.5391 37.5156 38.5723 37.2168 38.5723 36.9004Z" fill="white"/>
</svg>
