<svg width="107" height="132" viewBox="0 0 107 132" fill="none" xmlns="http://www.w3.org/2000/svg">
<rect x="5" y="1" width="98" height="98" rx="29" stroke="white" stroke-width="2"/>
<path d="M22.7656 103.047V113H21.4531V104.127H16.5449V113H15.2256V103.047H22.7656ZM26.2314 107.025V115.844H24.96V105.604H26.1221L26.2314 107.025ZM31.2148 109.24V109.384C31.2148 109.922 31.151 110.421 31.0234 110.881C30.8958 111.337 30.709 111.733 30.4629 112.07C30.2214 112.408 29.9229 112.67 29.5674 112.856C29.2119 113.043 28.804 113.137 28.3438 113.137C27.8743 113.137 27.4596 113.059 27.0996 112.904C26.7396 112.749 26.4342 112.524 26.1836 112.228C25.9329 111.931 25.7324 111.576 25.582 111.161C25.4362 110.746 25.3359 110.279 25.2812 109.76V108.994C25.3359 108.447 25.4385 107.957 25.5889 107.524C25.7393 107.091 25.9375 106.722 26.1836 106.417C26.4342 106.107 26.7373 105.872 27.0928 105.713C27.4482 105.549 27.8584 105.467 28.3232 105.467C28.7881 105.467 29.2005 105.558 29.5605 105.74C29.9206 105.918 30.2236 106.173 30.4697 106.506C30.7158 106.839 30.9004 107.237 31.0234 107.702C31.151 108.162 31.2148 108.675 31.2148 109.24ZM29.9434 109.384V109.24C29.9434 108.871 29.9046 108.525 29.8271 108.201C29.7497 107.873 29.6289 107.586 29.4648 107.34C29.3053 107.089 29.1003 106.893 28.8496 106.752C28.599 106.606 28.3005 106.533 27.9541 106.533C27.6351 106.533 27.3571 106.588 27.1201 106.697C26.8877 106.807 26.6895 106.955 26.5254 107.142C26.3613 107.324 26.2269 107.534 26.1221 107.771C26.0218 108.003 25.9466 108.244 25.8965 108.495V110.266C25.9876 110.585 26.1152 110.885 26.2793 111.168C26.4434 111.446 26.6621 111.672 26.9355 111.845C27.209 112.013 27.5531 112.098 27.9678 112.098C28.3096 112.098 28.6035 112.027 28.8496 111.886C29.1003 111.74 29.3053 111.542 29.4648 111.291C29.6289 111.04 29.7497 110.753 29.8271 110.43C29.9046 110.102 29.9434 109.753 29.9434 109.384ZM34.1953 110.997L37.6064 105.604H38.8779V113H37.6064V107.606L34.1953 113H32.9375V105.604H34.1953V110.997ZM40.5732 109.384V109.227C40.5732 108.693 40.6507 108.199 40.8057 107.743C40.9606 107.283 41.1839 106.884 41.4756 106.547C41.7673 106.205 42.1204 105.941 42.5352 105.754C42.9499 105.562 43.4147 105.467 43.9297 105.467C44.4492 105.467 44.9163 105.562 45.3311 105.754C45.7503 105.941 46.1058 106.205 46.3975 106.547C46.6937 106.884 46.9193 107.283 47.0742 107.743C47.2292 108.199 47.3066 108.693 47.3066 109.227V109.384C47.3066 109.917 47.2292 110.411 47.0742 110.867C46.9193 111.323 46.6937 111.722 46.3975 112.063C46.1058 112.401 45.7526 112.665 45.3379 112.856C44.9277 113.043 44.4629 113.137 43.9434 113.137C43.4238 113.137 42.9567 113.043 42.542 112.856C42.1273 112.665 41.7718 112.401 41.4756 112.063C41.1839 111.722 40.9606 111.323 40.8057 110.867C40.6507 110.411 40.5732 109.917 40.5732 109.384ZM41.8379 109.227V109.384C41.8379 109.753 41.8812 110.102 41.9678 110.43C42.0544 110.753 42.1842 111.04 42.3574 111.291C42.5352 111.542 42.7562 111.74 43.0205 111.886C43.2848 112.027 43.5924 112.098 43.9434 112.098C44.2897 112.098 44.5928 112.027 44.8525 111.886C45.1169 111.74 45.3356 111.542 45.5088 111.291C45.682 111.04 45.8118 110.753 45.8984 110.43C45.9896 110.102 46.0352 109.753 46.0352 109.384V109.227C46.0352 108.862 45.9896 108.518 45.8984 108.194C45.8118 107.866 45.6797 107.577 45.502 107.326C45.3288 107.071 45.11 106.87 44.8457 106.725C44.5859 106.579 44.2806 106.506 43.9297 106.506C43.5833 106.506 43.278 106.579 43.0137 106.725C42.7539 106.87 42.5352 107.071 42.3574 107.326C42.1842 107.577 42.0544 107.866 41.9678 108.194C41.8812 108.518 41.8379 108.862 41.8379 109.227ZM53.6367 102.384H54.6758C54.6758 102.83 54.6074 103.186 54.4707 103.45C54.334 103.71 54.1471 103.91 53.9102 104.052C53.6777 104.193 53.4134 104.3 53.1172 104.373C52.8255 104.446 52.5225 104.517 52.208 104.585C51.8161 104.667 51.4515 104.797 51.1143 104.975C50.7816 105.148 50.4945 105.394 50.2529 105.713C50.016 106.032 49.8405 106.447 49.7266 106.957C49.6172 107.467 49.5876 108.099 49.6377 108.851V109.479H48.5986V108.851C48.5986 108.007 48.6784 107.271 48.8379 106.643C49.002 106.014 49.2321 105.483 49.5283 105.05C49.8245 104.617 50.1755 104.273 50.5811 104.018C50.9912 103.762 51.4424 103.587 51.9346 103.491C52.29 103.423 52.5954 103.35 52.8506 103.272C53.1058 103.19 53.2995 103.081 53.4316 102.944C53.5684 102.808 53.6367 102.621 53.6367 102.384ZM52.1396 106.027C52.6227 106.027 53.0534 106.112 53.4316 106.28C53.8099 106.449 54.1312 106.684 54.3955 106.984C54.6598 107.285 54.8604 107.641 54.9971 108.051C55.1383 108.456 55.209 108.898 55.209 109.377V109.527C55.209 110.042 55.1338 110.521 54.9834 110.963C54.8376 111.4 54.6211 111.783 54.334 112.111C54.0514 112.435 53.7051 112.688 53.2949 112.87C52.8893 113.052 52.4268 113.144 51.9072 113.144C51.3877 113.144 50.9229 113.052 50.5127 112.87C50.1071 112.688 49.7607 112.435 49.4736 112.111C49.1865 111.783 48.9678 111.4 48.8174 110.963C48.6715 110.521 48.5986 110.042 48.5986 109.527V109.377C48.5986 109.263 48.6191 109.151 48.6602 109.042C48.7012 108.933 48.7513 108.821 48.8105 108.707C48.8743 108.593 48.9313 108.472 48.9814 108.345C49.1501 107.935 49.3802 107.554 49.6719 107.203C49.9681 106.852 50.3213 106.57 50.7314 106.355C51.1462 106.137 51.6156 106.027 52.1396 106.027ZM51.8936 107.06C51.4287 107.06 51.0459 107.167 50.7451 107.381C50.4489 107.595 50.2279 107.88 50.082 108.235C49.9362 108.586 49.8633 108.967 49.8633 109.377V109.527C49.8633 109.874 49.9043 110.202 49.9863 110.512C50.0684 110.822 50.1914 111.097 50.3555 111.339C50.5241 111.576 50.736 111.763 50.9912 111.899C51.251 112.036 51.5563 112.104 51.9072 112.104C52.2581 112.104 52.5612 112.036 52.8164 111.899C53.0716 111.763 53.2812 111.576 53.4453 111.339C53.6094 111.097 53.7324 110.822 53.8145 110.512C53.8965 110.202 53.9375 109.874 53.9375 109.527V109.377C53.9375 109.067 53.8965 108.773 53.8145 108.495C53.7324 108.217 53.6071 107.971 53.4385 107.757C53.2744 107.543 53.0625 107.374 52.8027 107.251C52.5475 107.123 52.2445 107.06 51.8936 107.06ZM57.7861 107.025V115.844H56.5146V105.604H57.6768L57.7861 107.025ZM62.7695 109.24V109.384C62.7695 109.922 62.7057 110.421 62.5781 110.881C62.4505 111.337 62.2637 111.733 62.0176 112.07C61.776 112.408 61.4775 112.67 61.1221 112.856C60.7666 113.043 60.3587 113.137 59.8984 113.137C59.429 113.137 59.0143 113.059 58.6543 112.904C58.2943 112.749 57.9889 112.524 57.7383 112.228C57.4876 111.931 57.2871 111.576 57.1367 111.161C56.9909 110.746 56.8906 110.279 56.8359 109.76V108.994C56.8906 108.447 56.9932 107.957 57.1436 107.524C57.2939 107.091 57.4922 106.722 57.7383 106.417C57.9889 106.107 58.292 105.872 58.6475 105.713C59.0029 105.549 59.4131 105.467 59.8779 105.467C60.3428 105.467 60.7552 105.558 61.1152 105.74C61.4753 105.918 61.7783 106.173 62.0244 106.506C62.2705 106.839 62.4551 107.237 62.5781 107.702C62.7057 108.162 62.7695 108.675 62.7695 109.24ZM61.498 109.384V109.24C61.498 108.871 61.4593 108.525 61.3818 108.201C61.3044 107.873 61.1836 107.586 61.0195 107.34C60.86 107.089 60.6549 106.893 60.4043 106.752C60.1536 106.606 59.8551 106.533 59.5088 106.533C59.1898 106.533 58.9118 106.588 58.6748 106.697C58.4424 106.807 58.2441 106.955 58.0801 107.142C57.916 107.324 57.7816 107.534 57.6768 107.771C57.5765 108.003 57.5013 108.244 57.4512 108.495V110.266C57.5423 110.585 57.6699 110.885 57.834 111.168C57.998 111.446 58.2168 111.672 58.4902 111.845C58.7637 112.013 59.1077 112.098 59.5225 112.098C59.8643 112.098 60.1582 112.027 60.4043 111.886C60.6549 111.74 60.86 111.542 61.0195 111.291C61.1836 111.04 61.3044 110.753 61.3818 110.43C61.4593 110.102 61.498 109.753 61.498 109.384ZM67.4521 113.137C66.9372 113.137 66.4701 113.05 66.0508 112.877C65.6361 112.699 65.2783 112.451 64.9775 112.132C64.6813 111.813 64.4535 111.435 64.2939 110.997C64.1344 110.56 64.0547 110.081 64.0547 109.562V109.274C64.0547 108.673 64.1436 108.137 64.3213 107.668C64.499 107.194 64.7406 106.793 65.0459 106.465C65.3512 106.137 65.6976 105.888 66.085 105.72C66.4723 105.551 66.8734 105.467 67.2881 105.467C67.8167 105.467 68.2725 105.558 68.6553 105.74C69.0426 105.923 69.3594 106.178 69.6055 106.506C69.8516 106.829 70.0339 107.212 70.1523 107.654C70.2708 108.092 70.3301 108.57 70.3301 109.09V109.657H64.8066V108.625H69.0654V108.529C69.0472 108.201 68.9788 107.882 68.8604 107.572C68.7464 107.262 68.5641 107.007 68.3135 106.807C68.0628 106.606 67.721 106.506 67.2881 106.506C67.001 106.506 66.7367 106.567 66.4951 106.69C66.2536 106.809 66.0462 106.987 65.873 107.224C65.6999 107.461 65.5654 107.75 65.4697 108.092C65.374 108.434 65.3262 108.828 65.3262 109.274V109.562C65.3262 109.912 65.374 110.243 65.4697 110.553C65.57 110.858 65.7135 111.127 65.9004 111.359C66.0918 111.592 66.3219 111.774 66.5908 111.906C66.8643 112.038 67.1742 112.104 67.5205 112.104C67.9671 112.104 68.3454 112.013 68.6553 111.831C68.9652 111.649 69.2363 111.405 69.4688 111.1L70.2344 111.708C70.0749 111.95 69.8721 112.18 69.626 112.398C69.3799 112.617 69.0768 112.795 68.7168 112.932C68.3613 113.068 67.9398 113.137 67.4521 113.137ZM74.7666 112.098C75.0674 112.098 75.3454 112.036 75.6006 111.913C75.8558 111.79 76.0654 111.621 76.2295 111.407C76.3936 111.188 76.487 110.94 76.5098 110.662H77.7129C77.6901 111.1 77.542 111.507 77.2686 111.886C76.9997 112.259 76.6465 112.562 76.209 112.795C75.7715 113.023 75.2907 113.137 74.7666 113.137C74.2106 113.137 73.7253 113.039 73.3105 112.843C72.9004 112.647 72.5586 112.378 72.2852 112.036C72.0163 111.694 71.8135 111.302 71.6768 110.86C71.5446 110.414 71.4785 109.942 71.4785 109.445V109.158C71.4785 108.661 71.5446 108.192 71.6768 107.75C71.8135 107.303 72.0163 106.909 72.2852 106.567C72.5586 106.226 72.9004 105.957 73.3105 105.761C73.7253 105.565 74.2106 105.467 74.7666 105.467C75.3454 105.467 75.8512 105.585 76.2842 105.822C76.7171 106.055 77.0566 106.374 77.3027 106.779C77.5534 107.18 77.6901 107.636 77.7129 108.146H76.5098C76.487 107.841 76.4004 107.565 76.25 107.319C76.1042 107.073 75.9036 106.877 75.6484 106.731C75.3978 106.581 75.1038 106.506 74.7666 106.506C74.3792 106.506 74.0534 106.583 73.7891 106.738C73.5293 106.889 73.3219 107.094 73.167 107.354C73.0166 107.609 72.9072 107.894 72.8389 108.208C72.7751 108.518 72.7432 108.835 72.7432 109.158V109.445C72.7432 109.769 72.7751 110.088 72.8389 110.402C72.9027 110.717 73.0098 111.002 73.1602 111.257C73.3151 111.512 73.5225 111.717 73.7822 111.872C74.0465 112.022 74.3747 112.098 74.7666 112.098ZM82.1494 105.604V113H80.8779V105.604H82.1494ZM84.6309 105.604V106.629H78.4443V105.604H84.6309ZM87.2422 110.997L90.6533 105.604H91.9248V113H90.6533V107.606L87.2422 113H85.9844V105.604H87.2422V110.997ZM6.96094 121.604V122.649H3.22168V121.604H6.96094ZM3.40625 121.604V129H2.1416V121.604H3.40625ZM8.08203 121.604V129H6.81055V121.604H8.08203ZM11.377 123.025V131.844H10.1055V121.604H11.2676L11.377 123.025ZM16.3604 125.24V125.384C16.3604 125.922 16.2965 126.421 16.1689 126.881C16.0413 127.337 15.8545 127.733 15.6084 128.07C15.3669 128.408 15.0684 128.67 14.7129 128.856C14.3574 129.043 13.9495 129.137 13.4893 129.137C13.0199 129.137 12.6051 129.059 12.2451 128.904C11.8851 128.749 11.5798 128.524 11.3291 128.228C11.0785 127.931 10.8779 127.576 10.7275 127.161C10.5817 126.746 10.4814 126.279 10.4268 125.76V124.994C10.4814 124.447 10.584 123.957 10.7344 123.524C10.8848 123.091 11.083 122.722 11.3291 122.417C11.5798 122.107 11.8828 121.872 12.2383 121.713C12.5938 121.549 13.0039 121.467 13.4688 121.467C13.9336 121.467 14.346 121.558 14.7061 121.74C15.0661 121.918 15.3691 122.173 15.6152 122.506C15.8613 122.839 16.0459 123.237 16.1689 123.702C16.2965 124.162 16.3604 124.675 16.3604 125.24ZM15.0889 125.384V125.24C15.0889 124.871 15.0501 124.525 14.9727 124.201C14.8952 123.873 14.7744 123.586 14.6104 123.34C14.4508 123.089 14.2458 122.893 13.9951 122.752C13.7445 122.606 13.446 122.533 13.0996 122.533C12.7806 122.533 12.5026 122.588 12.2656 122.697C12.0332 122.807 11.835 122.955 11.6709 123.142C11.5068 123.324 11.3724 123.534 11.2676 123.771C11.1673 124.003 11.0921 124.244 11.042 124.495V126.266C11.1331 126.585 11.2607 126.885 11.4248 127.168C11.5889 127.446 11.8076 127.672 12.0811 127.845C12.3545 128.013 12.6986 128.098 13.1133 128.098C13.4551 128.098 13.749 128.027 13.9951 127.886C14.2458 127.74 14.4508 127.542 14.6104 127.291C14.7744 127.04 14.8952 126.753 14.9727 126.43C15.0501 126.102 15.0889 125.753 15.0889 125.384ZM17.6387 125.384V125.227C17.6387 124.693 17.7161 124.199 17.8711 123.743C18.026 123.283 18.2493 122.884 18.541 122.547C18.8327 122.205 19.1859 121.941 19.6006 121.754C20.0153 121.562 20.4801 121.467 20.9951 121.467C21.5146 121.467 21.9818 121.562 22.3965 121.754C22.8158 121.941 23.1712 122.205 23.4629 122.547C23.7591 122.884 23.9847 123.283 24.1396 123.743C24.2946 124.199 24.3721 124.693 24.3721 125.227V125.384C24.3721 125.917 24.2946 126.411 24.1396 126.867C23.9847 127.323 23.7591 127.722 23.4629 128.063C23.1712 128.401 22.818 128.665 22.4033 128.856C21.9932 129.043 21.5283 129.137 21.0088 129.137C20.4893 129.137 20.0221 129.043 19.6074 128.856C19.1927 128.665 18.8372 128.401 18.541 128.063C18.2493 127.722 18.026 127.323 17.8711 126.867C17.7161 126.411 17.6387 125.917 17.6387 125.384ZM18.9033 125.227V125.384C18.9033 125.753 18.9466 126.102 19.0332 126.43C19.1198 126.753 19.2497 127.04 19.4229 127.291C19.6006 127.542 19.8216 127.74 20.0859 127.886C20.3503 128.027 20.6579 128.098 21.0088 128.098C21.3551 128.098 21.6582 128.027 21.918 127.886C22.1823 127.74 22.401 127.542 22.5742 127.291C22.7474 127.04 22.8773 126.753 22.9639 126.43C23.055 126.102 23.1006 125.753 23.1006 125.384V125.227C23.1006 124.862 23.055 124.518 22.9639 124.194C22.8773 123.866 22.7451 123.577 22.5674 123.326C22.3942 123.071 22.1755 122.87 21.9111 122.725C21.6514 122.579 21.346 122.506 20.9951 122.506C20.6488 122.506 20.3434 122.579 20.0791 122.725C19.8193 122.87 19.6006 123.071 19.4229 123.326C19.2497 123.577 19.1198 123.866 19.0332 124.194C18.9466 124.518 18.9033 124.862 18.9033 125.227ZM28.918 128.098C29.2188 128.098 29.4967 128.036 29.752 127.913C30.0072 127.79 30.2168 127.621 30.3809 127.407C30.5449 127.188 30.6383 126.94 30.6611 126.662H31.8643C31.8415 127.1 31.6934 127.507 31.4199 127.886C31.151 128.259 30.7979 128.562 30.3604 128.795C29.9229 129.023 29.4421 129.137 28.918 129.137C28.362 129.137 27.8766 129.039 27.4619 128.843C27.0518 128.647 26.71 128.378 26.4365 128.036C26.1676 127.694 25.9648 127.302 25.8281 126.86C25.696 126.414 25.6299 125.942 25.6299 125.445V125.158C25.6299 124.661 25.696 124.192 25.8281 123.75C25.9648 123.303 26.1676 122.909 26.4365 122.567C26.71 122.226 27.0518 121.957 27.4619 121.761C27.8766 121.565 28.362 121.467 28.918 121.467C29.4967 121.467 30.0026 121.585 30.4355 121.822C30.8685 122.055 31.208 122.374 31.4541 122.779C31.7048 123.18 31.8415 123.636 31.8643 124.146H30.6611C30.6383 123.841 30.5518 123.565 30.4014 123.319C30.2555 123.073 30.055 122.877 29.7998 122.731C29.5492 122.581 29.2552 122.506 28.918 122.506C28.5306 122.506 28.2048 122.583 27.9404 122.738C27.6807 122.889 27.4733 123.094 27.3184 123.354C27.168 123.609 27.0586 123.894 26.9902 124.208C26.9264 124.518 26.8945 124.835 26.8945 125.158V125.445C26.8945 125.769 26.9264 126.088 26.9902 126.402C27.054 126.717 27.1611 127.002 27.3115 127.257C27.4665 127.512 27.6738 127.717 27.9336 127.872C28.1979 128.022 28.526 128.098 28.918 128.098ZM38.2285 121.604V122.649H34.6533V121.604H38.2285ZM39.3428 121.604V129H38.0781V121.604H39.3428ZM34.3457 121.604H35.6172L35.4258 125.172C35.3939 125.723 35.3415 126.211 35.2686 126.635C35.2002 127.054 35.1045 127.414 34.9814 127.715C34.863 128.016 34.7126 128.262 34.5303 128.453C34.3525 128.64 34.1383 128.779 33.8877 128.87C33.637 128.957 33.3477 129 33.0195 129H32.623V127.886L32.8965 127.865C33.0924 127.852 33.2588 127.806 33.3955 127.729C33.5368 127.651 33.6553 127.537 33.751 127.387C33.8467 127.232 33.9242 127.034 33.9834 126.792C34.0472 126.55 34.0951 126.263 34.127 125.931C34.1634 125.598 34.1908 125.211 34.209 124.769L34.3457 121.604ZM43.458 128.234L45.5156 121.604H46.8691L43.9023 130.142C43.834 130.324 43.7428 130.52 43.6289 130.729C43.5195 130.944 43.3783 131.146 43.2051 131.338C43.0319 131.529 42.8223 131.684 42.5762 131.803C42.3346 131.926 42.0452 131.987 41.708 131.987C41.6077 131.987 41.4801 131.974 41.3252 131.946C41.1702 131.919 41.0609 131.896 40.9971 131.878L40.9902 130.853C41.0267 130.857 41.0837 130.862 41.1611 130.866C41.2432 130.875 41.3001 130.88 41.332 130.88C41.6191 130.88 41.863 130.841 42.0635 130.764C42.264 130.691 42.4326 130.565 42.5693 130.388C42.7106 130.215 42.8314 129.975 42.9316 129.67L43.458 128.234ZM41.9473 121.604L43.8682 127.346L44.1963 128.679L43.2871 129.144L40.5664 121.604H41.9473ZM48.1201 121.604H49.3848V127.961H52.0918V121.604H53.3633V127.961H56.0635V121.604H57.3281V129H48.1201V121.604ZM60.7119 126.997L64.123 121.604H65.3945V129H64.123V123.606L60.7119 129H59.4541V121.604H60.7119V126.997ZM70.8975 125.746H68.4707L68.457 124.734H70.4395C70.8314 124.734 71.1572 124.696 71.417 124.618C71.6813 124.541 71.8796 124.424 72.0117 124.27C72.1439 124.115 72.21 123.923 72.21 123.695C72.21 123.518 72.1712 123.363 72.0938 123.23C72.0208 123.094 71.9092 122.982 71.7588 122.896C71.6084 122.804 71.4215 122.738 71.1982 122.697C70.9795 122.652 70.722 122.629 70.4258 122.629H68.8057V129H67.541V121.604H70.4258C70.8952 121.604 71.3167 121.645 71.6904 121.727C72.0687 121.809 72.39 121.934 72.6543 122.103C72.9232 122.267 73.1283 122.476 73.2695 122.731C73.4108 122.987 73.4814 123.287 73.4814 123.634C73.4814 123.857 73.4359 124.069 73.3447 124.27C73.2536 124.47 73.1191 124.648 72.9414 124.803C72.7637 124.958 72.5449 125.085 72.2852 125.186C72.0254 125.281 71.7269 125.343 71.3896 125.37L70.8975 125.746ZM70.8975 129H68.0127L68.6416 127.975H70.8975C71.2484 127.975 71.54 127.931 71.7725 127.845C72.0049 127.754 72.1781 127.626 72.292 127.462C72.4105 127.293 72.4697 127.093 72.4697 126.86C72.4697 126.628 72.4105 126.43 72.292 126.266C72.1781 126.097 72.0049 125.969 71.7725 125.883C71.54 125.792 71.2484 125.746 70.8975 125.746H68.9766L68.9902 124.734H71.3896L71.8477 125.117C72.2533 125.149 72.5973 125.249 72.8799 125.418C73.1624 125.587 73.3766 125.801 73.5225 126.061C73.6683 126.316 73.7412 126.594 73.7412 126.895C73.7412 127.241 73.6751 127.546 73.543 127.811C73.4154 128.075 73.2285 128.296 72.9824 128.474C72.7363 128.647 72.4378 128.779 72.0869 128.87C71.736 128.957 71.3395 129 70.8975 129ZM79.7979 127.735V123.928C79.7979 123.636 79.7386 123.383 79.6201 123.169C79.5062 122.95 79.333 122.782 79.1006 122.663C78.8682 122.545 78.5811 122.485 78.2393 122.485C77.9202 122.485 77.64 122.54 77.3984 122.649C77.1615 122.759 76.9746 122.902 76.8379 123.08C76.7057 123.258 76.6396 123.449 76.6396 123.654H75.375C75.375 123.39 75.4434 123.128 75.5801 122.868C75.7168 122.608 75.9128 122.374 76.168 122.164C76.4277 121.95 76.7376 121.781 77.0977 121.658C77.4622 121.531 77.8678 121.467 78.3145 121.467C78.8522 121.467 79.3262 121.558 79.7363 121.74C80.151 121.923 80.4746 122.198 80.707 122.567C80.944 122.932 81.0625 123.39 81.0625 123.941V127.387C81.0625 127.633 81.083 127.895 81.124 128.173C81.1696 128.451 81.2357 128.69 81.3223 128.891V129H80.0029C79.9391 128.854 79.889 128.66 79.8525 128.419C79.8161 128.173 79.7979 127.945 79.7979 127.735ZM80.0166 124.516L80.0303 125.404H78.752C78.3919 125.404 78.0706 125.434 77.7881 125.493C77.5055 125.548 77.2686 125.632 77.0771 125.746C76.8857 125.86 76.7399 126.004 76.6396 126.177C76.5394 126.345 76.4893 126.544 76.4893 126.771C76.4893 127.004 76.5417 127.216 76.6465 127.407C76.7513 127.599 76.9085 127.751 77.1182 127.865C77.3324 127.975 77.5944 128.029 77.9043 128.029C78.2917 128.029 78.6335 127.947 78.9297 127.783C79.2259 127.619 79.4606 127.419 79.6338 127.182C79.8115 126.945 79.9072 126.715 79.9209 126.491L80.4609 127.1C80.429 127.291 80.3424 127.503 80.2012 127.735C80.0599 127.968 79.8708 128.191 79.6338 128.405C79.4014 128.615 79.1234 128.79 78.7998 128.932C78.4808 129.068 78.1208 129.137 77.7197 129.137C77.2184 129.137 76.7786 129.039 76.4004 128.843C76.0267 128.647 75.735 128.385 75.5254 128.057C75.3203 127.724 75.2178 127.353 75.2178 126.942C75.2178 126.546 75.2952 126.197 75.4502 125.896C75.6051 125.591 75.8285 125.338 76.1201 125.138C76.4118 124.933 76.7627 124.778 77.1729 124.673C77.583 124.568 78.041 124.516 78.5469 124.516H80.0166ZM88.0693 124.81V125.835H84.1592V124.81H88.0693ZM84.4258 121.604V129H83.1611V121.604H84.4258ZM89.0947 121.604V129H87.8232V121.604H89.0947ZM92.499 126.997L95.9102 121.604H97.1816V129H95.9102V123.606L92.499 129H91.2412V121.604H92.499V126.997ZM100.709 125.473H102.076L99.9365 129H98.5693L100.709 125.473ZM101.769 121.604H104.858V129H103.594V122.629H101.769C101.409 122.629 101.115 122.69 100.887 122.813C100.659 122.932 100.493 123.087 100.388 123.278C100.283 123.47 100.23 123.668 100.23 123.873C100.23 124.074 100.278 124.267 100.374 124.454C100.47 124.636 100.62 124.787 100.825 124.905C101.03 125.024 101.295 125.083 101.618 125.083H103.936V126.122H101.618C101.194 126.122 100.818 126.065 100.49 125.951C100.162 125.837 99.8841 125.68 99.6562 125.479C99.4284 125.274 99.2552 125.035 99.1367 124.762C99.0182 124.484 98.959 124.183 98.959 123.859C98.959 123.536 99.0205 123.237 99.1436 122.964C99.2712 122.69 99.4535 122.451 99.6904 122.246C99.932 122.041 100.226 121.884 100.572 121.774C100.923 121.66 101.322 121.604 101.769 121.604Z" fill="white"/>
<path d="M75.0173 38.8323H28.4572C27.5907 38.8323 26.8882 39.5347 26.8882 40.4013V44.4088C26.8882 45.2753 27.5907 45.9777 28.4572 45.9777H75.0176C75.8841 45.9777 76.5866 45.2753 76.5866 44.4088V40.4013C76.5863 39.5347 75.8838 38.8323 75.0173 38.8323Z" fill="#F16C7A"/>
<path d="M75.0176 38.4221H40.6249C40.3985 38.4221 40.2147 38.6059 40.2147 38.8323C40.2147 39.0587 40.3985 39.2424 40.6249 39.2424H75.0173C75.6563 39.2424 76.1759 39.7622 76.1759 40.4013V44.4088C76.1759 45.0478 75.6563 45.5673 75.0173 45.5673H28.4569C27.8179 45.5673 27.2981 45.0478 27.2981 44.4088V40.4013C27.2981 39.7622 27.8179 39.2424 28.4569 39.2424H36.6059C36.8323 39.2424 37.0161 39.0587 37.0161 38.8323C37.0161 38.6059 36.8323 38.4221 36.6059 38.4221H28.4569C27.3656 38.4221 26.4778 39.31 26.4778 40.4013V44.4088C26.4778 45.4998 27.3656 46.3876 28.4569 46.3876H75.0173C76.1083 46.3876 76.9962 45.4998 76.9962 44.4088V40.4013C76.9965 39.31 76.1086 38.4221 75.0176 38.4221Z" fill="#3A312A"/>
<path d="M29.6628 45.9778V52.5419V56.5308V78.761C29.6628 79.7257 30.4448 80.5074 31.4095 80.5074H71.3251C72.2898 80.5074 73.0718 79.7257 73.0718 78.761V45.9778H29.6628Z" fill="#F16C7A"/>
<path d="M73.0716 45.5676H29.6628C29.4364 45.5676 29.2527 45.7513 29.2527 45.9778V52.5419C29.2527 52.7683 29.4364 52.9521 29.6628 52.9521C29.8892 52.9521 30.073 52.7683 30.073 52.5419V46.3879H72.6614V78.761C72.6614 79.4979 72.062 80.0976 71.3248 80.0976H31.4093C30.6726 80.0976 30.073 79.4982 30.073 78.761V56.5308C30.073 56.3044 29.8892 56.1206 29.6628 56.1206C29.4364 56.1206 29.2527 56.3044 29.2527 56.5308V78.761C29.2527 79.9504 30.2201 80.9179 31.4093 80.9179H71.3251C72.5146 80.9179 73.482 79.9504 73.482 78.761V45.9778C73.4817 45.7513 73.298 45.5676 73.0716 45.5676Z" fill="#3A312A"/>
<path d="M60.2708 38.8323H43.6491V45.9777H60.2708V38.8323Z" fill="#D7E057"/>
<path d="M60.2711 38.4221H43.6491C43.4227 38.4221 43.239 38.6059 43.239 38.8323V45.9777C43.239 46.2042 43.4227 46.3879 43.6491 46.3879H60.2711C60.4975 46.3879 60.6813 46.2042 60.6813 45.9777V38.8323C60.6813 38.6059 60.4975 38.4221 60.2711 38.4221ZM59.8609 45.5676H44.0593V39.2424H59.8609V45.5676Z" fill="#3A312A"/>
<path d="M43.6491 45.9824V56.9956L48.6916 53.4297L50.4 56.9956L52.4429 55.1384L54.8201 56.9956L57.4202 54.9342L60.2711 56.9956V45.9824H43.6491Z" fill="#D7E057"/>
<path d="M60.2711 45.5725H43.6491C43.4227 45.5725 43.239 45.7563 43.239 45.9827V56.9956C43.239 57.149 43.3245 57.2893 43.4607 57.3599C43.5966 57.4304 43.7609 57.4195 43.8862 57.3306L48.5316 54.0452L50.0303 57.1728C50.0864 57.2899 50.1944 57.373 50.3215 57.3979C50.3478 57.4033 50.374 57.4055 50.4003 57.4055C50.5015 57.4055 50.5999 57.3681 50.6762 57.2989L52.4631 55.6744L54.5677 57.3186C54.7168 57.4356 54.9268 57.4345 55.0752 57.3169L57.432 55.4483L60.031 57.3279C60.1563 57.4181 60.3209 57.4304 60.4581 57.3607C60.5954 57.2904 60.6815 57.1496 60.6815 56.9954V45.9824C60.6813 45.756 60.4975 45.5725 60.2711 45.5725ZM59.8609 56.1928L57.6606 54.6017C57.5116 54.4942 57.3095 54.4986 57.1657 54.6126L54.8185 56.4736L52.6955 54.8155C52.6211 54.7573 52.5317 54.7286 52.4429 54.7286C52.3439 54.7286 52.2449 54.7644 52.167 54.8352L50.5321 56.3219L49.0613 53.2528C49.0093 53.144 48.9114 53.0636 48.7944 53.033C48.6779 53.0026 48.5529 53.0256 48.4545 53.0953L44.0593 56.2035V46.3931H59.8609V56.1928Z" fill="#3A312A"/>
<path d="M47.7813 73.5616H34.8182C34.2847 73.5616 33.8524 73.9939 33.8524 74.5274V75.5675C33.8524 76.101 34.2847 76.5333 34.8182 76.5333H47.7813C48.3148 76.5333 48.7471 76.101 48.7471 75.5675V74.5274C48.7471 73.9942 48.3148 73.5616 47.7813 73.5616Z" fill="#87796F"/>
<path d="M47.7813 73.1514H34.8182C34.0597 73.1514 33.4425 73.7688 33.4425 74.5274V75.5675C33.4425 76.326 34.0597 76.9435 34.8182 76.9435H47.7813C48.5398 76.9435 49.1573 76.326 49.1573 75.5675V74.5274C49.1573 73.7688 48.5398 73.1514 47.7813 73.1514ZM48.3369 75.5675C48.3369 75.8738 48.0876 76.1231 47.7813 76.1231H34.8182C34.5119 76.1231 34.2628 75.8738 34.2628 75.5675V74.5274C34.2628 74.2211 34.5119 73.9717 34.8182 73.9717H47.7813C48.0876 73.9717 48.3369 74.2211 48.3369 74.5274V75.5675Z" fill="#3A312A"/>
<path d="M35.21 22.1384C34.9437 25.3004 31.6485 25.7997 31.6485 25.7997C34.4778 25.9329 35.1827 29.644 35.1827 29.644C35.2431 26.9979 38.8251 25.7606 38.8251 25.7606C36.1419 25.6001 35.21 22.1384 35.21 22.1384Z" fill="#D7E057"/>
<path d="M38.85 25.351C36.4974 25.2102 35.6147 22.0632 35.6062 22.0312C35.5543 21.8392 35.3733 21.714 35.1731 21.7299C34.9749 21.7479 34.8182 21.9054 34.8015 22.1037C34.5666 24.8968 31.7081 25.3751 31.5875 25.3937C31.3789 25.4254 31.2285 25.6099 31.2395 25.8205C31.2504 26.0313 31.4191 26.1992 31.6299 26.209C34.0982 26.3253 34.7739 29.6866 34.7802 29.7208C34.8179 29.9152 34.988 30.0536 35.183 30.0536C35.1945 30.0536 35.2059 30.053 35.2174 30.0522C35.4266 30.0347 35.5885 29.8627 35.5934 29.653C35.6462 27.3263 38.9269 26.1593 38.9602 26.1478C39.1451 26.0838 39.2588 25.8979 39.232 25.7043C39.2047 25.5104 39.0453 25.3625 38.85 25.351ZM35.1406 28.18C34.7698 27.3239 34.1264 26.2914 33.066 25.753C33.8677 25.3688 34.8185 24.683 35.3087 23.4908C35.7329 24.3305 36.4569 25.3721 37.5876 25.876C36.7651 26.3242 35.6946 27.0805 35.1406 28.18Z" fill="#3A312A"/>
<path d="M29.2767 26.7816C29.0883 29.0181 26.7578 29.3713 26.7578 29.3713C28.7588 29.4654 29.2576 32.0904 29.2576 32.0904C29.3002 30.2187 31.8339 29.3435 31.8339 29.3435C29.936 29.23 29.2767 26.7816 29.2767 26.7816Z" fill="#D7E057"/>
<path d="M31.8585 28.9341C30.2819 28.8398 29.6787 26.6958 29.6726 26.6742C29.6207 26.4822 29.4378 26.3564 29.2403 26.3728C29.0418 26.3906 28.8849 26.5487 28.8682 26.7469C28.7101 28.6254 26.7775 28.9524 26.6968 28.9653C26.4882 28.997 26.3378 29.1816 26.3487 29.3921C26.3597 29.603 26.5284 29.7708 26.7392 29.7807C28.3891 29.8583 28.851 32.1446 28.8551 32.167C28.8923 32.3619 29.0626 32.5006 29.2578 32.5006C29.269 32.5006 29.2805 32.5 29.292 32.4992C29.5012 32.482 29.6633 32.3097 29.6683 32.0997C29.7038 30.5387 31.9463 29.7388 31.9684 29.7312C32.1533 29.6672 32.2673 29.4815 32.2408 29.2877C32.2134 29.0938 32.0537 28.9456 31.8585 28.9341ZM29.2376 30.7921C28.9849 30.2764 28.5978 29.7129 28.0219 29.3487C28.5291 29.0637 29.0328 28.6295 29.3535 28.0042C29.6428 28.5166 30.0792 29.0853 30.7046 29.4326C30.1987 29.7334 29.6139 30.1815 29.2376 30.7921Z" fill="#3A312A"/>
<path d="M29.2767 19.4923C29.0886 21.7288 26.7578 22.082 26.7578 22.082C28.7588 22.1761 29.2576 24.8011 29.2576 24.8011C29.3002 22.9297 31.8339 22.0544 31.8339 22.0544C29.936 21.9407 29.2767 19.4923 29.2767 19.4923Z" fill="#D7E057"/>
<path d="M31.8585 21.645C30.2819 21.5507 29.6787 19.4066 29.6726 19.385C29.6207 19.1931 29.4378 19.0676 29.2403 19.0837C29.0418 19.1015 28.8849 19.2595 28.8682 19.4578C28.7101 21.3363 26.7775 21.663 26.6968 21.6759C26.4882 21.7076 26.3378 21.8922 26.3487 22.1027C26.3597 22.3135 26.5284 22.4814 26.7392 22.4913C28.3891 22.5689 28.851 24.8551 28.8551 24.8776C28.8923 25.0725 29.0626 25.2112 29.2578 25.2112C29.269 25.2112 29.2805 25.2106 29.292 25.2098C29.5012 25.1926 29.6633 25.0203 29.6683 24.8103C29.7038 23.2492 31.9463 22.4497 31.9682 22.4421C32.1533 22.3783 32.2673 22.1924 32.2408 21.9985C32.2134 21.8047 32.0537 21.6565 31.8585 21.645ZM29.2376 23.5027C28.9849 22.9873 28.5978 22.4237 28.0219 22.0592C28.5291 21.7746 29.0328 21.3401 29.3535 20.715C29.6428 21.2274 30.0792 21.7962 30.7046 22.1435C30.1987 22.4442 29.6139 22.8924 29.2376 23.5027Z" fill="#3A312A"/>
<path d="M64.5381 55.2992C62.7567 55.2992 61.04 54.3698 60.0917 52.7453C59.7297 52.1235 59.2441 51.5898 58.6726 51.1752C58.1033 50.7629 57.4501 50.4635 56.7487 50.3106L52.5181 61.4346L59.1623 58.1711L61.9612 65.0246L65.7125 55.1587C65.3231 55.253 64.9294 55.2992 64.5381 55.2992Z" fill="#87796F"/>
<path d="M66.0199 54.8877C65.9192 54.7737 65.7626 54.7244 65.6157 54.7603C65.263 54.8459 64.9004 54.8891 64.5378 54.8891C62.8603 54.8891 61.2924 53.9884 60.4461 52.5386C60.0551 51.8681 59.5397 51.2975 58.9132 50.843C58.2829 50.3869 57.5843 50.0733 56.8359 49.91C56.6382 49.8674 56.4375 49.9751 56.3651 50.1652L52.1344 61.2891C52.0745 61.4466 52.1172 61.6249 52.2419 61.7384C52.3663 61.8519 52.5476 61.877 52.6988 61.8032L58.9488 58.7333L61.5814 65.1802C61.6443 65.3344 61.7947 65.4353 61.9612 65.4353H61.9664C62.1349 65.4331 62.285 65.3284 62.3449 65.1709L66.0961 55.305C66.1497 55.1625 66.1205 55.002 66.0199 54.8877ZM61.9476 63.9065L59.5421 58.0161C59.4992 57.9108 59.4144 57.8282 59.3083 57.7878C59.2613 57.77 59.2118 57.761 59.1626 57.761C59.1005 57.761 59.0387 57.7752 58.9819 57.8028L53.2717 60.6075L57.0019 50.799C57.5113 50.9507 57.9912 51.1881 58.432 51.5069C58.9652 51.8938 59.4046 52.38 59.7376 52.9518C60.7305 54.6525 62.5699 55.7091 64.5381 55.7091C64.7172 55.7091 64.8966 55.7001 65.0746 55.6823L61.9476 63.9065Z" fill="#3A312A"/>
<path d="M80.6129 50.3106C79.2083 50.6204 77.9942 51.5017 77.2699 52.7453C76.3216 54.3698 74.605 55.2992 72.8235 55.2992C72.432 55.2992 72.0385 55.2533 71.6491 55.159L75.4004 65.0249L78.1993 58.1714L84.8436 61.4349L80.6129 50.3106Z" fill="#87796F"/>
<path d="M85.2269 61.2889L80.996 50.1649C80.9233 49.9746 80.7218 49.8666 80.5241 49.9101C79.0087 50.2445 77.6932 51.2026 76.9155 52.5381C76.0687 53.9881 74.5008 54.8888 72.8233 54.8888C72.4607 54.8888 72.0981 54.8456 71.7454 54.76C71.5983 54.7242 71.4419 54.7734 71.3412 54.8874C71.2406 55.0017 71.2114 55.1622 71.2655 55.3044L75.0168 65.1703C75.0767 65.3278 75.2268 65.4326 75.3952 65.4347H75.4004C75.5667 65.4347 75.7171 65.3341 75.7802 65.1796L78.4129 58.7328L84.6628 61.8027C84.8138 61.8762 84.9953 61.8513 85.1198 61.7376C85.2444 61.6247 85.2868 61.4464 85.2269 61.2889ZM78.3798 57.8031C78.2773 57.7528 78.1591 57.7476 78.0533 57.7878C77.9469 57.8283 77.8624 57.9108 77.8195 58.0161L75.4141 63.9065L72.2871 55.6826C72.4651 55.7001 72.6444 55.7094 72.8235 55.7094C74.7915 55.7094 76.6309 54.6531 77.6243 52.9518C78.2286 51.9144 79.213 51.1446 80.36 50.8001L84.0905 60.6078L78.3798 57.8031Z" fill="#3A312A"/>
<path d="M85.9395 33.9741L85.9302 33.9637C84.9738 32.8894 84.5106 31.4637 84.653 30.0325L84.6541 30.021C84.9131 27.4209 83.1819 25.0395 80.6286 24.4839L80.6206 24.4823C79.2122 24.1757 77.9967 23.2923 77.2705 22.047L77.2702 22.0465C75.952 19.7865 73.1479 18.8754 70.7531 19.9295C69.4324 20.5106 67.9285 20.5109 66.6081 19.9295C64.2136 18.8757 61.4092 19.7865 60.091 22.0465L60.0907 22.047C59.3644 23.2923 58.149 24.1757 56.7405 24.4823L56.7326 24.4839C54.1792 25.0395 52.4481 27.4209 52.707 30.021L52.7081 30.0325C52.8506 31.4639 52.3874 32.8896 51.4309 33.964L51.4216 33.9744C49.6847 35.9248 49.6847 38.867 51.4216 40.8174L51.4309 40.8278C52.3874 41.9021 52.8506 43.3279 52.7081 44.7593L52.707 44.7708C52.4481 47.3709 54.1792 49.7523 56.7326 50.3079L56.7405 50.3095C58.149 50.6161 59.3644 51.4995 60.0907 52.7448L60.091 52.7453C61.4092 55.0053 64.2133 55.9164 66.6081 54.8623C67.9288 54.2812 69.4327 54.2812 70.7531 54.8623C73.1479 55.9161 75.952 55.0053 77.2702 52.7453L77.2705 52.7448C77.9967 51.4995 79.2122 50.6161 80.6206 50.3095L80.6286 50.3079C83.1819 49.7523 84.9131 47.3709 84.6541 44.7708L84.653 44.7593C84.5106 43.3279 84.9738 41.9021 85.9302 40.8278L85.9395 40.8174C87.6764 38.8667 87.6764 35.9245 85.9395 33.9741Z" fill="#87796F"/>
<path d="M86.2368 33.6906C85.359 32.7051 84.9305 31.3863 85.0623 30.0615C85.3421 27.253 83.4737 24.683 80.7081 24.0811C79.4153 23.8 78.2918 22.9827 77.6248 21.8395C76.2005 19.3974 73.1752 18.4144 70.5882 19.5538C69.3755 20.0873 67.9851 20.0873 66.7738 19.5538C64.1865 18.4152 61.1614 19.3977 59.7368 21.8401C59.0699 22.983 57.9464 23.8001 56.6459 24.0828C53.8886 24.6827 52.0199 27.2533 52.3007 30.073C52.4314 31.3866 52.0027 32.7054 51.1159 33.7015C49.2407 35.8075 49.2407 38.9838 51.1252 41.1004C52.0027 42.0862 52.4311 43.405 52.2993 44.7298C52.0196 47.5383 53.8886 50.1086 56.6536 50.7101C57.9464 50.9912 59.0699 51.8085 59.7368 52.9518C61.1612 55.3938 64.1868 56.3763 66.7735 55.2374C67.9851 54.704 69.3758 54.704 70.5882 55.2374C71.3145 55.5571 72.0752 55.7097 72.8252 55.7097C74.7475 55.7097 76.6005 54.7081 77.6251 52.9512C78.2918 51.8083 79.4156 50.9912 80.7163 50.7085C83.4739 50.1083 85.3423 47.538 85.0615 44.7183C84.9305 43.4047 85.3593 42.0862 86.24 41.0972L86.2477 41.0884C88.121 38.9818 88.1207 35.8067 86.2368 33.6906ZM85.6333 40.5445L85.9395 40.8172L85.6243 40.5547C84.5942 41.711 84.0919 43.2584 84.2464 44.8107C84.4846 47.2044 82.8921 49.3952 80.5337 49.9084C79.0172 50.2384 77.6989 51.1968 76.9164 52.5383C75.7029 54.6192 73.1254 55.4573 70.9188 54.4866C70.2076 54.1735 69.4444 54.0171 68.6807 54.0171C67.9175 54.0171 67.1541 54.1735 66.4429 54.4866C64.2382 55.4573 61.6596 54.6197 60.445 52.5378C59.6627 51.1968 58.3442 50.2384 56.8201 49.9068C54.4696 49.3954 52.8768 47.2044 53.1164 44.7995C53.2695 43.2581 52.7672 41.711 51.7281 40.5443C50.1296 38.7492 50.1296 36.0416 51.7371 34.2363C52.7672 33.08 53.2698 31.5329 53.115 29.9803C52.8768 27.5866 54.4696 25.3956 56.8277 24.8826C58.3442 24.5525 59.6625 23.5942 60.445 22.2527C61.6586 20.1718 64.2363 19.3334 66.4426 20.3044C67.8642 20.9301 69.4955 20.9306 70.9182 20.3044C73.1235 19.3337 75.702 20.1715 76.9161 22.2532C77.6984 23.5942 79.0169 24.5525 80.5413 24.8842C82.8918 25.3958 84.4843 27.5866 84.245 29.9918C84.0914 31.5329 84.5939 33.08 85.633 34.2467C87.2318 36.0418 87.2318 38.7492 85.6333 40.5445Z" fill="#3A312A"/>
<path d="M82.5223 38.1608C82.9457 30.5168 77.0921 23.9768 69.448 23.5534C61.804 23.1301 55.264 28.9837 54.8406 36.6277C54.4173 44.2718 60.2709 50.8118 67.9149 51.2351C75.559 51.6585 82.099 45.8049 82.5223 38.1608Z" fill="#D5DC57"/>
<path d="M68.681 23.1238C60.8114 23.1238 54.4092 29.5261 54.4092 37.3956C54.4092 45.2649 60.8114 51.6672 68.681 51.6672C76.5502 51.6672 82.9525 45.2649 82.9525 37.3956C82.9525 29.5261 76.5502 23.1238 68.681 23.1238ZM68.681 50.8471C61.2637 50.8471 55.2295 44.8129 55.2295 37.3959C55.2295 29.9786 61.2637 23.9444 68.681 23.9444C76.098 23.9444 82.1322 29.9786 82.1322 37.3959C82.1322 44.8126 76.098 50.8471 68.681 50.8471Z" fill="#3A312A"/>
<path d="M76.6186 33.5894H71.5485C71.0577 33.5894 70.6601 33.1918 70.6601 32.701V29.8078C70.6601 28.8168 69.8567 28.0135 68.8672 28.0135C68.3717 28.0135 67.9235 28.2139 67.599 28.5385C67.2747 28.8641 67.074 29.3123 67.074 29.8078V32.0467C67.074 32.9692 66.4866 33.7901 65.6124 34.0873L63.8715 34.6807C63.8786 34.7337 63.8821 34.7881 63.8821 34.8434V42.9568C63.8821 42.9817 63.881 43.0052 63.881 43.0287L64.2573 43.1244C66.0811 43.5879 67.9542 43.8263 69.8357 43.8381C69.851 43.8381 69.8652 43.8392 69.8805 43.8392H69.9533H71.522H74.2558C74.9588 43.8392 75.5286 43.2694 75.5286 42.5663V42.5497C75.5286 41.8467 74.9591 41.2768 74.2558 41.2768H75.1264C75.8294 41.2768 76.3993 40.7072 76.3993 40.004V39.9873C76.3993 39.2993 75.8538 38.739 75.1715 38.7153C75.1576 38.7147 74.4327 38.7144 74.3296 38.7144H75.997C76.7001 38.7144 77.2699 38.1446 77.2699 37.4416V37.4249C77.2699 36.7219 76.7001 36.1521 75.997 36.1521H74.5484L74.5495 36.151H76.6186C77.3216 36.151 77.8914 35.5814 77.8914 34.8781V34.8617C77.8914 34.1592 77.3218 33.5894 76.6186 33.5894Z" fill="#F5E1C5"/>
<path d="M78.3016 34.8625C78.3016 33.9345 77.5463 33.1795 76.6186 33.1795H71.5488C71.2849 33.1795 71.0705 32.9651 71.0705 32.7015V29.8075C71.0705 28.5921 70.0823 27.603 68.8672 27.603C68.2782 27.603 67.7247 27.8322 67.3088 28.2486C66.8929 28.6656 66.6643 29.2193 66.6643 29.8072V32.0461C66.6643 32.7937 66.1888 33.4576 65.4806 33.6985L63.7397 34.2919C63.5545 34.3547 63.4397 34.5396 63.4651 34.7332C63.4698 34.769 63.4722 34.8056 63.4722 34.8428L63.4717 42.9817L63.4709 43.0285C63.4709 43.2163 63.5983 43.3798 63.7804 43.426L64.1561 43.5215C66.0045 43.9915 67.9145 44.2357 69.8436 44.248C69.8488 44.2483 69.8756 44.2488 69.8808 44.2488H74.2561C75.1841 44.2488 75.9388 43.4938 75.9388 42.5494C75.9388 42.1991 75.8313 41.8735 75.6476 41.6038C76.3216 41.3835 76.8097 40.7466 76.8097 39.9873C76.8097 39.6362 76.7036 39.3103 76.5209 39.0409C77.1933 38.8197 77.68 38.1834 77.68 37.4252C77.68 37.0407 77.5502 36.6858 77.3325 36.402C77.9045 36.1326 78.3016 35.5475 78.3016 34.8625ZM76.6186 35.7413H74.5497C74.4412 35.7413 74.3354 35.7859 74.2585 35.8628C74.1412 35.9801 74.1059 36.1564 74.1697 36.3098C74.2334 36.4632 74.3827 36.563 74.5486 36.563H75.9973C76.4731 36.563 76.86 36.9499 76.86 37.4421C76.86 37.9176 76.4731 38.3046 75.9973 38.3046H74.3179C74.0914 38.3046 73.9077 38.4883 73.9077 38.7147C73.9077 38.9411 74.0914 39.1249 74.3179 39.1249C74.3329 39.1249 75.1302 39.1254 75.1576 39.1254C75.6241 39.1418 75.9894 39.5203 75.9894 40.0042C75.9894 40.4797 75.6025 40.8667 75.1267 40.8667H74.2561C74.0297 40.8667 73.8459 41.0504 73.8459 41.2768C73.8459 41.5032 74.0297 41.687 74.2561 41.687C74.7316 41.687 75.1185 42.0739 75.1185 42.5663C75.1185 43.0419 74.7316 43.4288 74.2561 43.4288L69.8734 43.4285C69.8693 43.4282 69.8428 43.4277 69.8387 43.4277C67.9861 43.4162 66.1423 43.1802 64.3582 42.7266L64.2928 42.7099V34.9705L65.745 34.4753C66.786 34.1215 67.4849 33.1456 67.4849 32.0464V29.8075C67.4849 29.4378 67.6288 29.09 67.8899 28.8283C68.1505 28.5672 68.4977 28.4236 68.8674 28.4236C69.63 28.4236 70.2505 29.0446 70.2505 29.8078V32.7015C70.2505 33.4174 70.8332 33.9998 71.549 33.9998H76.6188C77.0946 33.9998 77.4815 34.3867 77.4815 34.8789C77.4813 35.3544 77.0943 35.7413 76.6186 35.7413Z" fill="#3A312A"/>
<path d="M62.5437 33.5043H60.78C60.0565 33.5043 59.47 34.0909 59.47 34.8144V42.9858C59.47 43.7093 60.0565 44.2958 60.78 44.2958H62.5437C63.2833 44.2958 63.8827 43.6962 63.8827 42.9568V34.8434C63.883 34.1037 63.2833 33.5043 62.5437 33.5043Z" fill="#8AC1D8"/>
<path d="M62.5437 33.0942H60.78C59.8315 33.0942 59.0598 33.8658 59.0598 34.8144V42.9858C59.0598 43.9343 59.8315 44.7057 60.78 44.7057H62.5437C63.5081 44.7057 64.2929 43.9212 64.2929 42.9568V34.8431C64.2931 33.8787 63.5084 33.0942 62.5437 33.0942ZM63.4728 42.9565C63.4728 43.4687 63.0561 43.8851 62.544 43.8851H60.7803C60.2843 43.8851 59.8804 43.4815 59.8804 42.9855V34.8144C59.8804 34.3184 60.2843 33.9145 60.7803 33.9145H62.544C63.0561 33.9145 63.4728 34.3309 63.4728 34.8431V42.9565Z" fill="#3A312A"/>
<path d="M61.6686 43.2032C62.1153 43.2032 62.4775 42.841 62.4775 42.3943C62.4775 41.9476 62.1153 41.5855 61.6686 41.5855C61.2219 41.5855 60.8598 41.9476 60.8598 42.3943C60.8598 42.841 61.2219 43.2032 61.6686 43.2032Z" fill="#87796F"/>
<path d="M61.6684 41.1756C60.9963 41.1756 60.4494 41.7225 60.4494 42.3946C60.4494 43.0667 60.9963 43.6136 61.6684 43.6136C62.3405 43.6136 62.8874 43.0667 62.8874 42.3946C62.8874 41.7225 62.3405 41.1756 61.6684 41.1756ZM61.6684 42.7933C61.4485 42.7933 61.2697 42.6145 61.2697 42.3946C61.2697 42.1748 61.4485 41.9959 61.6684 41.9959C61.8882 41.9959 62.0671 42.1748 62.0671 42.3946C62.0671 42.6145 61.8882 42.7933 61.6684 42.7933Z" fill="#3A312A"/>
<path d="M71.341 55.5043C71.0894 55.436 70.8351 55.3457 70.589 55.2363C69.859 54.9164 69.066 54.7879 68.2867 54.8535V78.7602C68.2867 79.4985 67.6879 80.0973 66.9496 80.0973H71.3246C72.0629 80.0973 72.6617 79.4985 72.6617 78.7602V58.977L71.341 55.5043Z" fill="#CE4E61"/>
<circle cx="68.5" cy="37.5" r="13.5" fill="url(#paint0_linear_302_260)" stroke="white" stroke-width="2"/>
<path d="M64.3214 30.2625L76.8571 37.5L64.3214 44.7375V30.2625Z" fill="#61BAC8" stroke="white" stroke-width="2"/>
<path d="M72.6786 44.7375L60.1429 37.5L72.6786 30.2625V44.7375Z" fill="#61BAC8" stroke="white" stroke-width="2"/>
<path d="M75 37.5L65.25 43.1292V31.8708L75 37.5Z" fill="#61BAC8"/>
<defs>
<linearGradient id="paint0_linear_302_260" x1="60.2372" y1="23" x2="76.7628" y2="52" gradientUnits="userSpaceOnUse">
<stop stop-color="#00DAFE"/>
<stop offset="0.605" stop-color="#78AEC9"/>
</linearGradient>
</defs>
</svg>
