<svg width="100" height="132" viewBox="0 0 100 132" fill="none" xmlns="http://www.w3.org/2000/svg">
<rect x="1" y="1" width="98" height="98" rx="29" stroke="white" stroke-width="2"/>
<path d="M21.8008 103.047V113H20.4883V104.127H15.5801V113H14.2607V103.047H21.8008ZM25.2666 107.025V115.844H23.9951V105.604H25.1572L25.2666 107.025ZM30.25 109.24V109.384C30.25 109.922 30.1862 110.421 30.0586 110.881C29.931 111.337 29.7441 111.733 29.498 112.07C29.2565 112.408 28.958 112.67 28.6025 112.856C28.2471 113.043 27.8392 113.137 27.3789 113.137C26.9095 113.137 26.4948 113.059 26.1348 112.904C25.7747 112.749 25.4694 112.524 25.2188 112.228C24.9681 111.931 24.7676 111.576 24.6172 111.161C24.4714 110.746 24.3711 110.279 24.3164 109.76V108.994C24.3711 108.447 24.4736 107.957 24.624 107.524C24.7744 107.091 24.9727 106.722 25.2188 106.417C25.4694 106.107 25.7725 105.872 26.1279 105.713C26.4834 105.549 26.8936 105.467 27.3584 105.467C27.8232 105.467 28.2357 105.558 28.5957 105.74C28.9557 105.918 29.2588 106.173 29.5049 106.506C29.751 106.839 29.9355 107.237 30.0586 107.702C30.1862 108.162 30.25 108.675 30.25 109.24ZM28.9785 109.384V109.24C28.9785 108.871 28.9398 108.525 28.8623 108.201C28.7848 107.873 28.6641 107.586 28.5 107.34C28.3405 107.089 28.1354 106.893 27.8848 106.752C27.6341 106.606 27.3356 106.533 26.9893 106.533C26.6702 106.533 26.3923 106.588 26.1553 106.697C25.9229 106.807 25.7246 106.955 25.5605 107.142C25.3965 107.324 25.262 107.534 25.1572 107.771C25.057 108.003 24.9818 108.244 24.9316 108.495V110.266C25.0228 110.585 25.1504 110.885 25.3145 111.168C25.4785 111.446 25.6973 111.672 25.9707 111.845C26.2441 112.013 26.5882 112.098 27.0029 112.098C27.3447 112.098 27.6387 112.027 27.8848 111.886C28.1354 111.74 28.3405 111.542 28.5 111.291C28.6641 111.04 28.7848 110.753 28.8623 110.43C28.9398 110.102 28.9785 109.753 28.9785 109.384ZM36.2246 111.735V107.928C36.2246 107.636 36.1654 107.383 36.0469 107.169C35.9329 106.95 35.7598 106.782 35.5273 106.663C35.2949 106.545 35.0078 106.485 34.666 106.485C34.347 106.485 34.0667 106.54 33.8252 106.649C33.5882 106.759 33.4014 106.902 33.2646 107.08C33.1325 107.258 33.0664 107.449 33.0664 107.654H31.8018C31.8018 107.39 31.8701 107.128 32.0068 106.868C32.1436 106.608 32.3395 106.374 32.5947 106.164C32.8545 105.95 33.1644 105.781 33.5244 105.658C33.889 105.531 34.2946 105.467 34.7412 105.467C35.279 105.467 35.7529 105.558 36.1631 105.74C36.5778 105.923 36.9014 106.198 37.1338 106.567C37.3708 106.932 37.4893 107.39 37.4893 107.941V111.387C37.4893 111.633 37.5098 111.895 37.5508 112.173C37.5964 112.451 37.6624 112.69 37.749 112.891V113H36.4297C36.3659 112.854 36.3158 112.66 36.2793 112.419C36.2428 112.173 36.2246 111.945 36.2246 111.735ZM36.4434 108.516L36.457 109.404H35.1787C34.8187 109.404 34.4974 109.434 34.2148 109.493C33.9323 109.548 33.6953 109.632 33.5039 109.746C33.3125 109.86 33.1667 110.004 33.0664 110.177C32.9661 110.345 32.916 110.544 32.916 110.771C32.916 111.004 32.9684 111.216 33.0732 111.407C33.1781 111.599 33.3353 111.751 33.5449 111.865C33.7591 111.975 34.0212 112.029 34.3311 112.029C34.7184 112.029 35.0602 111.947 35.3564 111.783C35.6527 111.619 35.8874 111.419 36.0605 111.182C36.2383 110.945 36.334 110.715 36.3477 110.491L36.8877 111.1C36.8558 111.291 36.7692 111.503 36.6279 111.735C36.4867 111.968 36.2975 112.191 36.0605 112.405C35.8281 112.615 35.5501 112.79 35.2266 112.932C34.9076 113.068 34.5475 113.137 34.1465 113.137C33.6452 113.137 33.2054 113.039 32.8271 112.843C32.4535 112.647 32.1618 112.385 31.9521 112.057C31.7471 111.724 31.6445 111.353 31.6445 110.942C31.6445 110.546 31.722 110.197 31.877 109.896C32.0319 109.591 32.2552 109.338 32.5469 109.138C32.8385 108.933 33.1895 108.778 33.5996 108.673C34.0098 108.568 34.4678 108.516 34.9736 108.516H36.4434ZM42.9512 109.746H40.5244L40.5107 108.734H42.4932C42.8851 108.734 43.2109 108.696 43.4707 108.618C43.735 108.541 43.9333 108.424 44.0654 108.27C44.1976 108.115 44.2637 107.923 44.2637 107.695C44.2637 107.518 44.2249 107.363 44.1475 107.23C44.0745 107.094 43.9629 106.982 43.8125 106.896C43.6621 106.804 43.4753 106.738 43.252 106.697C43.0332 106.652 42.7757 106.629 42.4795 106.629H40.8594V113H39.5947V105.604H42.4795C42.9489 105.604 43.3704 105.645 43.7441 105.727C44.1224 105.809 44.4437 105.934 44.708 106.103C44.9769 106.267 45.182 106.476 45.3232 106.731C45.4645 106.987 45.5352 107.287 45.5352 107.634C45.5352 107.857 45.4896 108.069 45.3984 108.27C45.3073 108.47 45.1729 108.648 44.9951 108.803C44.8174 108.958 44.5986 109.085 44.3389 109.186C44.0791 109.281 43.7806 109.343 43.4434 109.37L42.9512 109.746ZM42.9512 113H40.0664L40.6953 111.975H42.9512C43.3021 111.975 43.5938 111.931 43.8262 111.845C44.0586 111.754 44.2318 111.626 44.3457 111.462C44.4642 111.293 44.5234 111.093 44.5234 110.86C44.5234 110.628 44.4642 110.43 44.3457 110.266C44.2318 110.097 44.0586 109.969 43.8262 109.883C43.5938 109.792 43.3021 109.746 42.9512 109.746H41.0303L41.0439 108.734H43.4434L43.9014 109.117C44.307 109.149 44.651 109.249 44.9336 109.418C45.2161 109.587 45.4303 109.801 45.5762 110.061C45.722 110.316 45.7949 110.594 45.7949 110.895C45.7949 111.241 45.7288 111.546 45.5967 111.811C45.4691 112.075 45.2822 112.296 45.0361 112.474C44.79 112.647 44.4915 112.779 44.1406 112.87C43.7897 112.957 43.3932 113 42.9512 113ZM47.1553 109.384V109.227C47.1553 108.693 47.2327 108.199 47.3877 107.743C47.5426 107.283 47.766 106.884 48.0576 106.547C48.3493 106.205 48.7025 105.941 49.1172 105.754C49.5319 105.562 49.9967 105.467 50.5117 105.467C51.0312 105.467 51.4984 105.562 51.9131 105.754C52.3324 105.941 52.6878 106.205 52.9795 106.547C53.2757 106.884 53.5013 107.283 53.6562 107.743C53.8112 108.199 53.8887 108.693 53.8887 109.227V109.384C53.8887 109.917 53.8112 110.411 53.6562 110.867C53.5013 111.323 53.2757 111.722 52.9795 112.063C52.6878 112.401 52.3346 112.665 51.9199 112.856C51.5098 113.043 51.0449 113.137 50.5254 113.137C50.0059 113.137 49.5387 113.043 49.124 112.856C48.7093 112.665 48.3538 112.401 48.0576 112.063C47.766 111.722 47.5426 111.323 47.3877 110.867C47.2327 110.411 47.1553 109.917 47.1553 109.384ZM48.4199 109.227V109.384C48.4199 109.753 48.4632 110.102 48.5498 110.43C48.6364 110.753 48.7663 111.04 48.9395 111.291C49.1172 111.542 49.3382 111.74 49.6025 111.886C49.8669 112.027 50.1745 112.098 50.5254 112.098C50.8717 112.098 51.1748 112.027 51.4346 111.886C51.6989 111.74 51.9176 111.542 52.0908 111.291C52.264 111.04 52.3939 110.753 52.4805 110.43C52.5716 110.102 52.6172 109.753 52.6172 109.384V109.227C52.6172 108.862 52.5716 108.518 52.4805 108.194C52.3939 107.866 52.2617 107.577 52.084 107.326C51.9108 107.071 51.6921 106.87 51.4277 106.725C51.168 106.579 50.8626 106.506 50.5117 106.506C50.1654 106.506 49.86 106.579 49.5957 106.725C49.3359 106.87 49.1172 107.071 48.9395 107.326C48.7663 107.577 48.6364 107.866 48.5498 108.194C48.4632 108.518 48.4199 108.862 48.4199 109.227ZM55.1396 109.384V109.227C55.1396 108.693 55.2171 108.199 55.3721 107.743C55.527 107.283 55.7503 106.884 56.042 106.547C56.3337 106.205 56.6868 105.941 57.1016 105.754C57.5163 105.562 57.9811 105.467 58.4961 105.467C59.0156 105.467 59.4827 105.562 59.8975 105.754C60.3167 105.941 60.6722 106.205 60.9639 106.547C61.2601 106.884 61.4857 107.283 61.6406 107.743C61.7956 108.199 61.873 108.693 61.873 109.227V109.384C61.873 109.917 61.7956 110.411 61.6406 110.867C61.4857 111.323 61.2601 111.722 60.9639 112.063C60.6722 112.401 60.319 112.665 59.9043 112.856C59.4941 113.043 59.0293 113.137 58.5098 113.137C57.9902 113.137 57.5231 113.043 57.1084 112.856C56.6937 112.665 56.3382 112.401 56.042 112.063C55.7503 111.722 55.527 111.323 55.3721 110.867C55.2171 110.411 55.1396 109.917 55.1396 109.384ZM56.4043 109.227V109.384C56.4043 109.753 56.4476 110.102 56.5342 110.43C56.6208 110.753 56.7507 111.04 56.9238 111.291C57.1016 111.542 57.3226 111.74 57.5869 111.886C57.8512 112.027 58.1589 112.098 58.5098 112.098C58.8561 112.098 59.1592 112.027 59.4189 111.886C59.6833 111.74 59.902 111.542 60.0752 111.291C60.2484 111.04 60.3783 110.753 60.4648 110.43C60.556 110.102 60.6016 109.753 60.6016 109.384V109.227C60.6016 108.862 60.556 108.518 60.4648 108.194C60.3783 107.866 60.2461 107.577 60.0684 107.326C59.8952 107.071 59.6764 106.87 59.4121 106.725C59.1523 106.579 58.847 106.506 58.4961 106.506C58.1497 106.506 57.8444 106.579 57.5801 106.725C57.3203 106.87 57.1016 107.071 56.9238 107.326C56.7507 107.577 56.6208 107.866 56.5342 108.194C56.4476 108.518 56.4043 108.862 56.4043 109.227ZM68.2031 102.384H69.2422C69.2422 102.83 69.1738 103.186 69.0371 103.45C68.9004 103.71 68.7135 103.91 68.4766 104.052C68.2441 104.193 67.9798 104.3 67.6836 104.373C67.3919 104.446 67.0889 104.517 66.7744 104.585C66.3825 104.667 66.0179 104.797 65.6807 104.975C65.348 105.148 65.0609 105.394 64.8193 105.713C64.5824 106.032 64.4069 106.447 64.293 106.957C64.1836 107.467 64.154 108.099 64.2041 108.851V109.479H63.165V108.851C63.165 108.007 63.2448 107.271 63.4043 106.643C63.5684 106.014 63.7985 105.483 64.0947 105.05C64.391 104.617 64.7419 104.273 65.1475 104.018C65.5576 103.762 66.0088 103.587 66.501 103.491C66.8564 103.423 67.1618 103.35 67.417 103.272C67.6722 103.19 67.8659 103.081 67.998 102.944C68.1348 102.808 68.2031 102.621 68.2031 102.384ZM66.7061 106.027C67.1891 106.027 67.6198 106.112 67.998 106.28C68.3763 106.449 68.6976 106.684 68.9619 106.984C69.2262 107.285 69.4268 107.641 69.5635 108.051C69.7048 108.456 69.7754 108.898 69.7754 109.377V109.527C69.7754 110.042 69.7002 110.521 69.5498 110.963C69.404 111.4 69.1875 111.783 68.9004 112.111C68.6178 112.435 68.2715 112.688 67.8613 112.87C67.4557 113.052 66.9932 113.144 66.4736 113.144C65.9541 113.144 65.4893 113.052 65.0791 112.87C64.6735 112.688 64.3271 112.435 64.04 112.111C63.7529 111.783 63.5342 111.4 63.3838 110.963C63.238 110.521 63.165 110.042 63.165 109.527V109.377C63.165 109.263 63.1855 109.151 63.2266 109.042C63.2676 108.933 63.3177 108.821 63.377 108.707C63.4408 108.593 63.4977 108.472 63.5479 108.345C63.7165 107.935 63.9466 107.554 64.2383 107.203C64.5345 106.852 64.8877 106.57 65.2979 106.355C65.7126 106.137 66.182 106.027 66.7061 106.027ZM66.46 107.06C65.9951 107.06 65.6123 107.167 65.3115 107.381C65.0153 107.595 64.7943 107.88 64.6484 108.235C64.5026 108.586 64.4297 108.967 64.4297 109.377V109.527C64.4297 109.874 64.4707 110.202 64.5527 110.512C64.6348 110.822 64.7578 111.097 64.9219 111.339C65.0905 111.576 65.3024 111.763 65.5576 111.899C65.8174 112.036 66.1227 112.104 66.4736 112.104C66.8245 112.104 67.1276 112.036 67.3828 111.899C67.638 111.763 67.8477 111.576 68.0117 111.339C68.1758 111.097 68.2988 110.822 68.3809 110.512C68.4629 110.202 68.5039 109.874 68.5039 109.527V109.377C68.5039 109.067 68.4629 108.773 68.3809 108.495C68.2988 108.217 68.1735 107.971 68.0049 107.757C67.8408 107.543 67.6289 107.374 67.3691 107.251C67.1139 107.123 66.8109 107.06 66.46 107.06ZM76.1533 105.604V106.649H72.5781V105.604H76.1533ZM77.2676 105.604V113H76.0029V105.604H77.2676ZM72.2705 105.604H73.542L73.3506 109.172C73.3187 109.723 73.2663 110.211 73.1934 110.635C73.125 111.054 73.0293 111.414 72.9062 111.715C72.7878 112.016 72.6374 112.262 72.4551 112.453C72.2773 112.64 72.0632 112.779 71.8125 112.87C71.5618 112.957 71.2725 113 70.9443 113H70.5479V111.886L70.8213 111.865C71.0173 111.852 71.1836 111.806 71.3203 111.729C71.4616 111.651 71.5801 111.537 71.6758 111.387C71.7715 111.232 71.849 111.034 71.9082 110.792C71.972 110.55 72.0199 110.263 72.0518 109.931C72.0882 109.598 72.1156 109.211 72.1338 108.769L72.2705 105.604ZM83.666 111.735V107.928C83.666 107.636 83.6068 107.383 83.4883 107.169C83.3743 106.95 83.2012 106.782 82.9688 106.663C82.7363 106.545 82.4492 106.485 82.1074 106.485C81.7884 106.485 81.5081 106.54 81.2666 106.649C81.0296 106.759 80.8428 106.902 80.7061 107.08C80.5739 107.258 80.5078 107.449 80.5078 107.654H79.2432C79.2432 107.39 79.3115 107.128 79.4482 106.868C79.585 106.608 79.7809 106.374 80.0361 106.164C80.2959 105.95 80.6058 105.781 80.9658 105.658C81.3304 105.531 81.736 105.467 82.1826 105.467C82.7204 105.467 83.1943 105.558 83.6045 105.74C84.0192 105.923 84.3428 106.198 84.5752 106.567C84.8122 106.932 84.9307 107.39 84.9307 107.941V111.387C84.9307 111.633 84.9512 111.895 84.9922 112.173C85.0378 112.451 85.1038 112.69 85.1904 112.891V113H83.8711C83.8073 112.854 83.7572 112.66 83.7207 112.419C83.6842 112.173 83.666 111.945 83.666 111.735ZM83.8848 108.516L83.8984 109.404H82.6201C82.2601 109.404 81.9388 109.434 81.6562 109.493C81.3737 109.548 81.1367 109.632 80.9453 109.746C80.7539 109.86 80.6081 110.004 80.5078 110.177C80.4076 110.345 80.3574 110.544 80.3574 110.771C80.3574 111.004 80.4098 111.216 80.5146 111.407C80.6195 111.599 80.7767 111.751 80.9863 111.865C81.2005 111.975 81.4626 112.029 81.7725 112.029C82.1598 112.029 82.5016 111.947 82.7979 111.783C83.0941 111.619 83.3288 111.419 83.502 111.182C83.6797 110.945 83.7754 110.715 83.7891 110.491L84.3291 111.1C84.2972 111.291 84.2106 111.503 84.0693 111.735C83.9281 111.968 83.7389 112.191 83.502 112.405C83.2695 112.615 82.9915 112.79 82.668 112.932C82.349 113.068 81.9889 113.137 81.5879 113.137C81.0866 113.137 80.6468 113.039 80.2686 112.843C79.8949 112.647 79.6032 112.385 79.3936 112.057C79.1885 111.724 79.0859 111.353 79.0859 110.942C79.0859 110.546 79.1634 110.197 79.3184 109.896C79.4733 109.591 79.6966 109.338 79.9883 109.138C80.2799 108.933 80.6309 108.778 81.041 108.673C81.4512 108.568 81.9092 108.516 82.415 108.516H83.8848ZM23.9268 121.604H25.1914L25.082 124.372C25.0547 125.074 24.9749 125.68 24.8428 126.19C24.7106 126.701 24.542 127.136 24.3369 127.496C24.1318 127.852 23.9017 128.15 23.6465 128.392C23.3958 128.633 23.1361 128.836 22.8672 129H22.2383L22.2725 127.968L22.5322 127.961C22.6826 127.783 22.8285 127.601 22.9697 127.414C23.111 127.223 23.2409 126.997 23.3594 126.737C23.4779 126.473 23.5758 126.152 23.6533 125.773C23.7354 125.391 23.7878 124.924 23.8105 124.372L23.9268 121.604ZM24.2412 121.604H28.6914V129H27.4268V122.772H24.2412V121.604ZM21.9512 127.961H29.6416V131.181H28.377V129H23.2158V131.181H21.9443L21.9512 127.961ZM35.4043 127.735V123.928C35.4043 123.636 35.3451 123.383 35.2266 123.169C35.1126 122.95 34.9395 122.782 34.707 122.663C34.4746 122.545 34.1875 122.485 33.8457 122.485C33.5267 122.485 33.2464 122.54 33.0049 122.649C32.7679 122.759 32.5811 122.902 32.4443 123.08C32.3122 123.258 32.2461 123.449 32.2461 123.654H30.9814C30.9814 123.39 31.0498 123.128 31.1865 122.868C31.3232 122.608 31.5192 122.374 31.7744 122.164C32.0342 121.95 32.3441 121.781 32.7041 121.658C33.0687 121.531 33.4743 121.467 33.9209 121.467C34.4587 121.467 34.9326 121.558 35.3428 121.74C35.7575 121.923 36.0811 122.198 36.3135 122.567C36.5505 122.932 36.6689 123.39 36.6689 123.941V127.387C36.6689 127.633 36.6895 127.895 36.7305 128.173C36.776 128.451 36.8421 128.69 36.9287 128.891V129H35.6094C35.5456 128.854 35.4954 128.66 35.459 128.419C35.4225 128.173 35.4043 127.945 35.4043 127.735ZM35.623 124.516L35.6367 125.404H34.3584C33.9984 125.404 33.6771 125.434 33.3945 125.493C33.112 125.548 32.875 125.632 32.6836 125.746C32.4922 125.86 32.3464 126.004 32.2461 126.177C32.1458 126.345 32.0957 126.544 32.0957 126.771C32.0957 127.004 32.1481 127.216 32.2529 127.407C32.3577 127.599 32.515 127.751 32.7246 127.865C32.9388 127.975 33.2008 128.029 33.5107 128.029C33.8981 128.029 34.2399 127.947 34.5361 127.783C34.8324 127.619 35.0671 127.419 35.2402 127.182C35.418 126.945 35.5137 126.715 35.5273 126.491L36.0674 127.1C36.0355 127.291 35.9489 127.503 35.8076 127.735C35.6663 127.968 35.4772 128.191 35.2402 128.405C35.0078 128.615 34.7298 128.79 34.4062 128.932C34.0872 129.068 33.7272 129.137 33.3262 129.137C32.8249 129.137 32.3851 129.039 32.0068 128.843C31.6331 128.647 31.3415 128.385 31.1318 128.057C30.9268 127.724 30.8242 127.353 30.8242 126.942C30.8242 126.546 30.9017 126.197 31.0566 125.896C31.2116 125.591 31.4349 125.338 31.7266 125.138C32.0182 124.933 32.3691 124.778 32.7793 124.673C33.1895 124.568 33.6475 124.516 34.1533 124.516H35.623ZM41.5635 121.604V129H40.292V121.604H41.5635ZM44.0449 121.604V122.629H37.8584V121.604H44.0449ZM47.8115 129.137C47.2965 129.137 46.8294 129.05 46.4102 128.877C45.9954 128.699 45.6377 128.451 45.3369 128.132C45.0407 127.813 44.8128 127.435 44.6533 126.997C44.4938 126.56 44.4141 126.081 44.4141 125.562V125.274C44.4141 124.673 44.5029 124.137 44.6807 123.668C44.8584 123.194 45.0999 122.793 45.4053 122.465C45.7106 122.137 46.057 121.888 46.4443 121.72C46.8317 121.551 47.2327 121.467 47.6475 121.467C48.1761 121.467 48.6318 121.558 49.0146 121.74C49.402 121.923 49.7188 122.178 49.9648 122.506C50.2109 122.829 50.3932 123.212 50.5117 123.654C50.6302 124.092 50.6895 124.57 50.6895 125.09V125.657H45.166V124.625H49.4248V124.529C49.4066 124.201 49.3382 123.882 49.2197 123.572C49.1058 123.262 48.9235 123.007 48.6729 122.807C48.4222 122.606 48.0804 122.506 47.6475 122.506C47.3604 122.506 47.096 122.567 46.8545 122.69C46.613 122.809 46.4056 122.987 46.2324 123.224C46.0592 123.461 45.9248 123.75 45.8291 124.092C45.7334 124.434 45.6855 124.828 45.6855 125.274V125.562C45.6855 125.912 45.7334 126.243 45.8291 126.553C45.9294 126.858 46.0729 127.127 46.2598 127.359C46.4512 127.592 46.6813 127.774 46.9502 127.906C47.2236 128.038 47.5335 128.104 47.8799 128.104C48.3265 128.104 48.7048 128.013 49.0146 127.831C49.3245 127.649 49.5957 127.405 49.8281 127.1L50.5938 127.708C50.4342 127.95 50.2314 128.18 49.9854 128.398C49.7393 128.617 49.4362 128.795 49.0762 128.932C48.7207 129.068 48.2992 129.137 47.8115 129.137ZM57.1084 121.604V122.649H53.5332V121.604H57.1084ZM58.2227 121.604V129H56.958V121.604H58.2227ZM53.2256 121.604H54.4971L54.3057 125.172C54.2738 125.723 54.2214 126.211 54.1484 126.635C54.0801 127.054 53.9844 127.414 53.8613 127.715C53.7428 128.016 53.5924 128.262 53.4102 128.453C53.2324 128.64 53.0182 128.779 52.7676 128.87C52.5169 128.957 52.2275 129 51.8994 129H51.5029V127.886L51.7764 127.865C51.9723 127.852 52.1387 127.806 52.2754 127.729C52.4167 127.651 52.5352 127.537 52.6309 127.387C52.7266 127.232 52.804 127.034 52.8633 126.792C52.9271 126.55 52.9749 126.263 53.0068 125.931C53.0433 125.598 53.0706 125.211 53.0889 124.769L53.2256 121.604ZM61.7568 125.473H63.124L60.9844 129H59.6172L61.7568 125.473ZM62.8164 121.604H65.9062V129H64.6416V122.629H62.8164C62.4564 122.629 62.1624 122.69 61.9346 122.813C61.7067 122.932 61.5404 123.087 61.4355 123.278C61.3307 123.47 61.2783 123.668 61.2783 123.873C61.2783 124.074 61.3262 124.267 61.4219 124.454C61.5176 124.636 61.668 124.787 61.873 124.905C62.0781 125.024 62.3424 125.083 62.666 125.083H64.9834V126.122H62.666C62.2422 126.122 61.8662 126.065 61.5381 125.951C61.21 125.837 60.932 125.68 60.7041 125.479C60.4762 125.274 60.3031 125.035 60.1846 124.762C60.0661 124.484 60.0068 124.183 60.0068 123.859C60.0068 123.536 60.0684 123.237 60.1914 122.964C60.319 122.69 60.5013 122.451 60.7383 122.246C60.9798 122.041 61.2738 121.884 61.6201 121.774C61.971 121.66 62.3698 121.604 62.8164 121.604ZM72.1953 127.318L74.7109 121.604H75.9277L72.6328 129H71.7578L68.4766 121.604H69.6934L72.1953 127.318ZM69.3242 121.604V129H68.0596V121.604H69.3242ZM75.0254 129V121.604H76.2969V129H75.0254Z" fill="white"/>
<g clip-path="url(#clip0_316_23)">
<path fill-rule="evenodd" clip-rule="evenodd" d="M50 17C68.2254 17 83 31.7746 83 50C83 68.2254 68.2254 83 50 83C31.7746 83 17 68.2254 17 50C17 31.7746 31.7746 17 50 17Z" fill="#4DB6AC"/>
<mask id="mask0_316_23" style="mask-type:luminance" maskUnits="userSpaceOnUse" x="17" y="17" width="66" height="66">
<path d="M50 17C68.2254 17 83 31.7746 83 50C83 68.2254 68.2254 83 50 83C31.7746 83 17 68.2254 17 50C17 31.7746 31.7746 17 50 17Z" fill="white"/>
</mask>
<g mask="url(#mask0_316_23)">
<path fill-rule="evenodd" clip-rule="evenodd" d="M67.9387 68.0432L104.544 104.649L104.544 104.649L104.544 104.65L104.545 104.65L104.545 104.651V104.651L104.545 104.652V104.652L104.545 104.652L67.9396 68.0469L67.9395 68.0464L67.9394 68.046L67.9393 68.0455L67.9392 68.045L67.9391 68.0446L67.9389 68.044V68.0436L67.9387 68.0432Z" fill="#00897B"/>
<path fill-rule="evenodd" clip-rule="evenodd" d="M56.5253 54.0112L93.1308 90.6168V91.5644L56.5253 54.9588V54.0112Z" fill="#00897B"/>
<path fill-rule="evenodd" clip-rule="evenodd" d="M67.797 67.3606L104.403 103.966L104.411 104.007L104.419 104.049L104.428 104.09L104.436 104.131L104.445 104.172L104.453 104.213L104.462 104.254L104.47 104.294L104.479 104.335L104.487 104.376L104.496 104.417L104.504 104.458L104.513 104.498L104.521 104.539L104.53 104.579L104.538 104.62L67.9327 68.0142L67.9242 67.9737L67.9157 67.9332L67.9072 67.8926L67.8987 67.852L67.8902 67.8113L67.8817 67.7705L67.8733 67.7298L67.8648 67.6889L67.8563 67.648L67.8479 67.6071L67.8393 67.5661L67.8308 67.525L67.8224 67.4841L67.8139 67.443L67.8054 67.4018L67.797 67.3606Z" fill="#00897B"/>
<path fill-rule="evenodd" clip-rule="evenodd" d="M67.9327 68.0143L104.538 104.62L104.539 104.622L104.539 104.624L104.54 104.627L104.54 104.629L104.541 104.631L104.541 104.634L104.542 104.636L104.542 104.638L67.9365 68.0325L67.9361 68.0302L67.9355 68.028L67.9352 68.0257L67.9347 68.0234L67.9341 68.0211L67.9336 68.0188L67.9332 68.0166L67.9327 68.0143Z" fill="#00897B"/>
<path fill-rule="evenodd" clip-rule="evenodd" d="M55.7966 32.4102L92.4022 69.0159L92.4066 69.0279L92.3957 69.0485L92.3703 69.0769L92.3316 69.1123L92.281 69.1544L92.2192 69.2024L92.1476 69.2556L92.0674 69.3134L91.9796 69.3752L91.8854 69.4405L91.7859 69.5084L91.6822 69.5786L91.5756 69.6502L91.467 69.7227L91.3578 69.7953L91.2489 69.8676L91.1416 69.9389L91.0369 70.0085L90.936 70.0758L90.84 70.1402L90.7502 70.2011L90.6677 70.2577L90.5934 70.3096L90.5287 70.356L90.4746 70.3964L90.4322 70.4301L90.4028 70.4565L90.3874 70.4749L90.3872 70.4847L53.7816 33.8791L53.7818 33.8693L53.7972 33.8509L53.8267 33.8245L53.869 33.7909L53.9232 33.7505L53.9878 33.7041L54.0621 33.6521L54.1447 33.5955L54.2346 33.5346L54.3305 33.4702L54.4313 33.4029L54.536 33.3333L54.6433 33.262L54.7522 33.1897L54.8614 33.1171L54.97 33.0446L55.0766 32.973L55.1803 32.9029L55.2799 32.8349L55.374 32.7696L55.4619 32.7078L55.5421 32.65L55.6136 32.5968L55.6754 32.5488L55.7261 32.5068L55.7647 32.4713L55.7901 32.443L55.8012 32.4224L55.7966 32.4102Z" fill="#00897B"/>
<path fill-rule="evenodd" clip-rule="evenodd" d="M52.5312 32.9932L89.1367 69.5987L89.1382 69.6098L89.1305 69.6282L89.1149 69.6531L89.0919 69.684L89.0624 69.7203L89.0273 69.7613L88.9874 69.8065L88.9435 69.8554L88.8965 69.9072L88.8471 69.9615L88.7961 70.0175L88.7445 70.0747L88.693 70.1326L88.6424 70.1905L88.5937 70.2478L88.5474 70.304L88.5047 70.3584L88.4662 70.4105L88.4327 70.4596L88.4051 70.5051L88.3843 70.5465L88.371 70.5831L88.3661 70.6144L88.3703 70.6399L88.3845 70.6587L51.779 34.0532L51.7648 34.0343L51.7605 34.0089L51.7654 33.9776L51.7788 33.9409L51.7997 33.8995L51.8272 33.854L51.8607 33.8049L51.8991 33.7528L51.9419 33.6984L51.9881 33.6423L52.0369 33.5849L52.0874 33.527L52.1389 33.4691L52.1905 33.4119L52.2415 33.3559L52.2909 33.3017L52.338 33.2498L52.3819 33.2009L52.4218 33.1557L52.4569 33.1147L52.4863 33.0784L52.5093 33.0475L52.5249 33.0227L52.5326 33.0043L52.5312 32.9932Z" fill="#00897B"/>
<path fill-rule="evenodd" clip-rule="evenodd" d="M60.8913 47.5964L97.4968 84.202L97.4644 84.215L97.4319 84.2267L97.3995 84.2369L97.3672 84.2458L97.3349 84.2533L97.3027 84.2594L97.2705 84.264L97.2386 84.2672L97.2067 84.2689L97.175 84.2691L97.1435 84.2678L97.1122 84.2649L97.0811 84.2605L97.0502 84.2546L97.0197 84.2471L96.9894 84.2379L60.3839 47.6323L60.4141 47.6415L60.4447 47.6489L60.4756 47.6549L60.5066 47.6593L60.538 47.6622L60.5694 47.6634L60.6011 47.6632L60.633 47.6616L60.665 47.6584L60.6971 47.6538L60.7293 47.6477L60.7616 47.6402L60.794 47.6313L60.8264 47.6211L60.8588 47.6094L60.8913 47.5964Z" fill="#00897B"/>
<path fill-rule="evenodd" clip-rule="evenodd" d="M49.6103 33.8031L86.2158 70.4087L86.2213 70.4242L86.217 70.4454L86.2038 70.4718L86.1827 70.5031L86.1543 70.5386L86.1195 70.5778L86.0792 70.6203L86.0341 70.6654L85.985 70.7128L85.9328 70.7619L85.8781 70.8123L85.8221 70.8633L85.7652 70.9145L85.7085 70.9656L85.6526 71.0158L85.5984 71.0646L85.5468 71.1117L85.4986 71.1564L85.4545 71.1983L85.4153 71.2369L85.382 71.2717L85.3553 71.302L85.3359 71.3277L85.3247 71.3479L85.3226 71.3623L48.717 34.7567L48.7192 34.7423L48.7303 34.7221L48.7497 34.6965L48.7765 34.6661L48.8098 34.6313L48.8489 34.5927L48.893 34.5508L48.9413 34.5061L48.9929 34.459L49.047 34.4102L49.1029 34.36L49.1596 34.309L49.2165 34.2577L49.2726 34.2067L49.3272 34.1563L49.3795 34.1072L49.4285 34.0598L49.4737 34.0146L49.5141 33.9721L49.5488 33.933L49.5771 33.8975L49.5983 33.8663L49.6114 33.8398L49.6157 33.8186L49.6103 33.8031Z" fill="#00897B"/>
<path fill-rule="evenodd" clip-rule="evenodd" d="M60.3839 47.6323L96.9894 84.2379L96.971 84.2315L96.9528 84.2246L96.935 84.2171L96.9174 84.2091L96.9001 84.2005L96.883 84.1914L96.8663 84.1818L96.8497 84.1716L60.2443 47.5661L60.2607 47.5762L60.2774 47.5858L60.2945 47.5949L60.3118 47.6035L60.3294 47.6115L60.3472 47.619L60.3654 47.6259L60.3839 47.6323Z" fill="#00897B"/>
<path fill-rule="evenodd" clip-rule="evenodd" d="M60.2442 47.5661L96.8497 84.1716L96.8228 84.2947L96.7955 84.4156L96.7677 84.5343L96.7397 84.6508L96.7115 84.765L96.6829 84.8768L96.6543 84.9861L96.6256 85.093L96.5968 85.1972L96.568 85.2987L96.5392 85.3976L96.5106 85.4936L96.482 85.5869L96.4536 85.6771L96.4256 85.7644L96.3977 85.8487L96.3702 85.9297L96.3431 86.0075L96.3164 86.082L96.2902 86.1533L96.2646 86.2211L96.2396 86.2854L96.2151 86.3462L96.1913 86.4033L96.1683 86.4568L96.1461 86.5065L96.1246 86.5523L96.104 86.5942L96.0845 86.6321L96.0658 86.6662L96.0482 86.696L96.0316 86.7217L59.426 50.116L59.4427 50.0904L59.4603 50.0605L59.4789 50.0266L59.4985 49.9886L59.519 49.9466L59.5405 49.9008L59.5627 49.8512L59.5857 49.7977L59.6095 49.7406L59.634 49.6798L59.659 49.6155L59.6847 49.5477L59.7108 49.4765L59.7375 49.4019L59.7646 49.3241L59.7922 49.2431L59.82 49.1589L59.848 49.0716L59.8765 48.9813L59.905 48.8881L59.9336 48.7921L59.9624 48.6932L59.9912 48.5916L60.02 48.4873L60.0487 48.3805L60.0775 48.2713L60.1059 48.1594L60.1342 48.0452L60.1621 47.9287L60.1899 47.81L60.2173 47.6891L60.2442 47.5661Z" fill="#00897B"/>
<path fill-rule="evenodd" clip-rule="evenodd" d="M59.426 50.116L96.0316 86.7217L95.9916 86.7787L95.947 86.8387L95.8979 86.9014L95.8445 86.9669L95.787 87.0348L95.7254 87.1051L95.6599 87.1777L95.5906 87.2524L95.5177 87.3291L95.4412 87.4077L95.3612 87.4881L95.2781 87.5699L95.1919 87.6533L95.1025 87.738L95.0104 87.8239L94.9155 87.9108L94.818 87.9987L94.7179 88.0874L94.6157 88.1768L94.511 88.2666L94.4044 88.3569L94.2958 88.4475L94.1853 88.5382L94.0733 88.6289L93.9595 88.7195L93.8444 88.8098L93.7279 88.8997L93.6104 88.989L93.4917 89.0777L93.3722 89.1656L93.2518 89.2527L93.1308 89.3385L56.5253 52.7329L56.6462 52.6471L56.7666 52.5601L56.8862 52.4721L57.0048 52.3834L57.1225 52.294L57.2389 52.2041L57.3539 52.1139L57.4677 52.0233L57.5799 51.9326L57.6903 51.8419L57.7988 51.7513L57.9056 51.661L58.0101 51.5712L58.1125 51.4818L58.2124 51.3931L58.31 51.3053L58.4048 51.2183L58.497 51.1324L58.5863 51.0477L58.6725 50.9644L58.7558 50.8825L58.8356 50.8021L58.9121 50.7235L58.9851 50.6469L59.0544 50.5721L59.1199 50.4995L59.1814 50.4291L59.239 50.3613L59.2923 50.2958L59.3415 50.2331L59.386 50.1731L59.426 50.116Z" fill="#00897B"/>
<path fill-rule="evenodd" clip-rule="evenodd" d="M56.5253 52.7329L93.1308 89.3385V90.6168L56.5253 54.0112V52.7329Z" fill="#00897B"/>
<path fill-rule="evenodd" clip-rule="evenodd" d="M67.7941 67.3465L104.4 103.952L104.386 103.886L104.372 103.818L104.358 103.749L104.343 103.68L104.329 103.609L104.314 103.538L104.299 103.466L104.284 103.394L104.269 103.321L104.254 103.249L104.24 103.177L104.225 103.105L104.21 103.033L104.195 102.963L104.181 102.893L104.167 102.824L104.153 102.756L104.139 102.69L104.126 102.625L104.113 102.562L104.1 102.501L104.088 102.441L104.076 102.384L104.065 102.33L104.054 102.277L104.044 102.228L104.035 102.181L104.026 102.138L104.017 102.097L104.01 102.06L104.003 102.027L103.997 101.997L67.3913 65.3913L67.3974 65.4212L67.4043 65.4547L67.4119 65.4917L67.4202 65.5321L67.4291 65.5757L67.4387 65.6224L67.4489 65.6719L67.4596 65.7241L67.4709 65.7788L67.4826 65.8359L67.4947 65.8951L67.5074 65.9564L67.5204 66.0196L67.5337 66.0843L67.5473 66.1507L67.5614 66.2184L67.5755 66.2873L67.5899 66.3571L67.6045 66.4278L67.6192 66.4992L67.634 66.571L67.6489 66.6432L67.6637 66.7156L67.6787 66.788L67.6936 66.8602L67.7084 66.932L67.7232 67.0034L67.7377 67.074L67.7522 67.1438L67.7663 67.2126L67.7803 67.2802L67.7941 67.3465Z" fill="#00897B"/>
<path fill-rule="evenodd" clip-rule="evenodd" d="M58.8976 56.0023L95.5031 92.6078L95.5024 92.6118L95.5018 92.6158L95.5011 92.6198L95.5004 92.6238L95.4997 92.6278L95.499 92.6317L95.4983 92.6357L95.4977 92.6397L58.8921 56.0341L58.8928 56.0301L58.8934 56.0261L58.8942 56.0222L58.8949 56.0182L58.8956 56.0142L58.8962 56.0102L58.8968 56.0062L58.8976 56.0023Z" fill="#00897B"/>
<path fill-rule="evenodd" clip-rule="evenodd" d="M65.5247 59.946L102.13 96.5517L102.18 96.6053L102.228 96.6625L102.276 96.7228L102.324 96.7864L102.37 96.8532L102.417 96.9232L102.462 96.9961L102.507 97.0721L102.552 97.151L102.596 97.2328L102.64 97.3174L102.682 97.4047L102.725 97.4947L102.767 97.5873L66.1612 60.9817L66.1193 60.8891L66.0769 60.7991L66.0339 60.7118L65.9904 60.6272L65.9464 60.5454L65.9019 60.4665L65.8568 60.3905L65.8112 60.3176L65.7649 60.2477L65.7181 60.1809L65.6706 60.1172L65.6226 60.0569L65.5739 59.9998L65.5247 59.946Z" fill="#00897B"/>
<path fill-rule="evenodd" clip-rule="evenodd" d="M66.1611 60.9818L102.767 97.5873L102.812 97.6914L102.857 97.7984L102.901 97.9083L102.944 98.021L102.987 98.1365L103.03 98.2546L103.072 98.3753L103.113 98.4984L103.154 98.624L103.195 98.7518L103.235 98.8821L103.275 99.0143L103.314 99.1487L103.353 99.2851L103.391 99.4235L103.429 99.5636L103.467 99.7055L103.504 99.8491L103.541 99.9944L103.578 100.141L103.614 100.289L103.65 100.439L103.685 100.59L103.721 100.742L103.756 100.895L103.791 101.049L103.826 101.204L103.86 101.36L103.894 101.517L103.928 101.674L103.962 101.832L103.996 101.991L67.3901 65.3856L67.3565 65.2269L67.3226 65.0688L67.2886 64.9112L67.2544 64.7544L67.22 64.5984L67.1854 64.4433L67.1505 64.2891L67.1154 64.136L67.0799 63.984L67.0442 63.8331L67.0082 63.6837L66.972 63.5355L66.9353 63.3888L66.8984 63.2436L66.8611 63.0999L66.8235 62.958L66.7855 62.8178L66.7471 62.6795L66.7082 62.5431L66.669 62.4087L66.6294 62.2764L66.5893 62.1463L66.5487 62.0183L66.5077 61.8929L66.4663 61.7697L66.4242 61.649L66.3818 61.5309L66.3387 61.4155L66.2951 61.3027L66.251 61.1928L66.2064 61.0858L66.1611 60.9818Z" fill="#00897B"/>
<path fill-rule="evenodd" clip-rule="evenodd" d="M67.3901 65.3856L103.996 101.991L104.009 102.053L104.022 102.114L104.034 102.176L104.047 102.237L104.06 102.299L104.073 102.36L104.086 102.422L104.099 102.484L104.111 102.546L104.124 102.608L104.137 102.669L104.15 102.731L104.162 102.793L104.175 102.855L104.188 102.917L104.2 102.979L104.213 103.041L104.226 103.103L104.238 103.164L104.251 103.226L104.264 103.288L104.276 103.35L104.289 103.412L104.302 103.473L104.314 103.535L104.327 103.597L104.339 103.658L104.352 103.72L104.365 103.781L104.377 103.843L104.39 103.904L104.402 103.965L67.7968 67.3599L67.7842 67.2986L67.7716 67.2372L67.7591 67.1758L67.7465 67.1143L67.7338 67.0528L67.7213 66.9912L67.7087 66.9296L67.696 66.8678L67.6835 66.8061L67.6708 66.7444L67.6582 66.6825L67.6456 66.6207L67.6329 66.5588L67.6202 66.497L67.6076 66.4351L67.595 66.3732L67.5822 66.3113L67.5696 66.2494L67.5568 66.1875L67.5441 66.1257L67.5314 66.0637L67.5186 66.002L67.5059 65.9401L67.4931 65.8783L67.4802 65.8166L67.4675 65.7548L67.4546 65.6932L67.4418 65.6316L67.4289 65.57L67.4159 65.5085L67.4031 65.447L67.3901 65.3856Z" fill="#00897B"/>
<path fill-rule="evenodd" clip-rule="evenodd" d="M67.7968 67.3599L104.402 103.965L104.411 104.009L104.42 104.052L104.429 104.095L104.438 104.137L104.447 104.18L104.456 104.223L104.464 104.266L104.473 104.309L104.482 104.351L104.491 104.394L104.5 104.437L104.509 104.479L104.518 104.522L104.526 104.564L104.535 104.606L104.544 104.649L67.9387 68.0432L67.9298 68.0008L67.921 67.9585L67.9121 67.916L67.9032 67.8736L67.8943 67.831L67.8854 67.7885L67.8765 67.7459L67.8676 67.7031L67.8588 67.6604L67.8499 67.6176L67.8411 67.5747L67.8322 67.5318L67.8233 67.489L67.8144 67.446L67.8057 67.4029L67.7968 67.3599Z" fill="#00897B"/>
<path fill-rule="evenodd" clip-rule="evenodd" d="M67.9396 68.0469L104.545 104.652L104.545 104.652V104.652L104.545 104.651V104.651L104.545 104.65L104.544 104.65L104.544 104.649L104.544 104.649L67.9387 68.0432L67.9389 68.0435V68.044L67.9391 68.0445L67.9392 68.045L67.9393 68.0455L67.9394 68.046L67.9395 68.0464L67.9396 68.0469Z" fill="#00897B"/>
<path fill-rule="evenodd" clip-rule="evenodd" d="M45.9215 47.513L82.5271 84.1187V84.2606L82.5204 84.3261L82.5014 84.3872L82.4712 84.4426L82.4313 84.491L82.3829 84.5309L82.3275 84.5611L82.2664 84.5802L82.2009 84.5869H81.2946L81.2315 84.5853L81.1691 84.5804L81.1076 84.5726L81.0471 84.5617L80.9876 84.5478L80.9293 84.5312L80.872 84.5118L80.8162 84.4896L80.7616 84.4649L80.7085 84.4375L80.6569 84.4077L80.6068 84.3756L80.5585 84.3412L80.5119 84.3045L80.4671 84.2657L80.4243 84.2248L43.8187 47.6193L43.8616 47.6601L43.9063 47.6989L43.953 47.7356L44.0014 47.7701L44.0513 47.8022L44.1029 47.8319L44.156 47.8593L44.2106 47.884L44.2665 47.9062L44.3237 47.9256L44.382 47.9423L44.4415 47.9561L44.5021 47.967L44.5635 47.9748L44.6259 47.9797L44.689 47.9812H45.5953L45.6609 47.9745L45.722 47.9555L45.7774 47.9253L45.8257 47.8854L45.8656 47.8371L45.8958 47.7817L45.9149 47.7206L45.9215 47.655V47.513Z" fill="#00897B"/>
<path fill-rule="evenodd" clip-rule="evenodd" d="M44.9984 54.7469L81.604 91.3525L81.6649 91.4102L45.0593 54.8046L44.9984 54.7469Z" fill="#00897B"/>
<path fill-rule="evenodd" clip-rule="evenodd" d="M53.4066 68.0469L90.012 104.653H81.3784L44.7729 68.0469H53.4066Z" fill="#00897B"/>
<path fill-rule="evenodd" clip-rule="evenodd" d="M44.773 68.0469L81.3784 104.653H75.9338L39.3282 68.0469H44.773Z" fill="#00897B"/>
<path fill-rule="evenodd" clip-rule="evenodd" d="M39.3283 68.0469L75.9338 104.653H75.9238L39.3183 68.0469H39.3283Z" fill="#00897B"/>
<path fill-rule="evenodd" clip-rule="evenodd" d="M38.8754 68.0358L75.481 104.641L75.4256 104.639L75.3701 104.637L75.3147 104.634L75.2592 104.631L75.2036 104.628L75.1481 104.625L75.0925 104.621L75.0369 104.617L74.9814 104.613L74.9257 104.609L74.8701 104.605L74.8144 104.6L74.7587 104.596L74.7029 104.591L74.6472 104.586L74.5914 104.58L74.5357 104.575L74.4799 104.569L74.424 104.563L74.3681 104.557L74.3122 104.55L74.2564 104.544L74.2004 104.537L74.1445 104.53L74.0885 104.523L74.0325 104.515L73.9765 104.508L73.9204 104.5L73.8643 104.492L73.8083 104.484L73.7522 104.475L73.696 104.466L37.0905 67.8608L37.1466 67.8695L37.2028 67.878L37.2588 67.8862L37.3149 67.8943L37.371 67.9022L37.427 67.9097L37.4829 67.9172L37.5389 67.9244L37.5949 67.9315L37.6508 67.9383L37.7067 67.9448L37.7625 67.9512L37.8184 67.9574L37.8743 67.9634L37.9301 67.9691L37.9859 67.9747L38.0417 67.98L38.0974 67.9851L38.1531 67.9902L38.2088 67.9948L38.2645 67.9994L38.3202 68.0037L38.3758 68.0079L38.4314 68.0117L38.487 68.0155L38.5425 68.019L38.598 68.0223L38.6536 68.0254L38.7091 68.0283L38.7645 68.031L38.82 68.0335L38.8754 68.0358Z" fill="#00897B"/>
<path fill-rule="evenodd" clip-rule="evenodd" d="M39.3183 68.0469L75.9238 104.653H75.4787L38.8731 68.0469H39.3183Z" fill="#00897B"/>
<path fill-rule="evenodd" clip-rule="evenodd" d="M37.0905 67.8608L73.696 104.466L73.6259 104.455L73.5557 104.444L73.4854 104.432L73.4151 104.42L73.3448 104.407L73.2744 104.395L73.2041 104.381L73.1336 104.368L73.0631 104.354L72.9926 104.34L72.922 104.326L72.8515 104.311L72.7808 104.296L72.7102 104.28L72.6395 104.265L72.5687 104.248L72.4979 104.232L72.4271 104.215L72.3563 104.198L72.2853 104.181L72.2144 104.163L72.1434 104.145L72.0723 104.126L72.0013 104.107L71.9302 104.088L71.8591 104.069L71.7879 104.049L71.7166 104.029L71.6454 104.008L71.5741 103.987L71.5028 103.966L71.4313 103.945L34.8259 67.3389L34.8972 67.3605L34.9686 67.3817L35.0398 67.4025L35.1111 67.423L35.1823 67.4432L35.2535 67.4631L35.3246 67.4826L35.3958 67.5017L35.4669 67.5206L35.5378 67.5391L35.6089 67.5572L35.6797 67.575L35.7507 67.5925L35.8216 67.6096L35.8923 67.6264L35.9631 67.6429L36.0339 67.6589L36.1046 67.6748L36.1753 67.6903L36.2459 67.7053L36.3165 67.7201L36.3871 67.7345L36.4576 67.7487L36.528 67.7625L36.5985 67.7759L36.6689 67.7891L36.7393 67.8018L36.8095 67.8143L36.8798 67.8264L36.9501 67.8382L37.0203 67.8497L37.0905 67.8608Z" fill="#00897B"/>
<path fill-rule="evenodd" clip-rule="evenodd" d="M34.8259 67.3389L71.4314 103.945L71.3832 103.93L71.3358 103.914L71.2887 103.898L71.2424 103.882L71.1965 103.865L71.1512 103.847L71.1064 103.83L71.0623 103.811L71.0187 103.792L70.9757 103.773L70.9332 103.753L70.8912 103.733L70.8498 103.712L70.809 103.69L70.7686 103.668L70.7289 103.646L70.6896 103.623L70.651 103.599L70.6128 103.575L70.5751 103.551L70.538 103.526L70.5014 103.5L70.4652 103.474L70.4297 103.447L70.3946 103.42L70.3601 103.392L33.7546 66.7869L33.7891 66.8146L33.8242 66.8419L33.8597 66.8686L33.8958 66.8947L33.9325 66.9203L33.9696 66.9454L34.0072 66.9699L34.0454 66.9939L34.0841 67.0174L34.1233 67.0404L34.1631 67.0627L34.2035 67.0848L34.2443 67.1061L34.2856 67.127L34.3276 67.1474L34.3701 67.1673L34.4132 67.1867L34.4568 67.2056L34.5009 67.224L34.5456 67.2419L34.591 67.2593L34.6368 67.2762L34.6832 67.2925L34.7302 67.3085L34.7777 67.324L34.8259 67.3389Z" fill="#00897B"/>
<path fill-rule="evenodd" clip-rule="evenodd" d="M45.0593 54.8046L81.6649 91.4102L81.7255 91.4712L81.7842 91.5338L81.841 91.5983L81.8958 91.6647L81.9488 91.7329L81.9998 91.8032L82.0491 91.8755L82.0966 91.9498L82.1423 92.0264L82.1863 92.1051L82.2285 92.1861L82.2691 92.2696L82.3079 92.3554L82.3452 92.4437L82.3809 92.5345L82.4149 92.6278L45.8095 56.0223L45.7753 55.9289L45.7397 55.8381L45.7023 55.7498L45.6635 55.664L45.623 55.5805L45.5807 55.4995L45.5367 55.4207L45.491 55.3443L45.4435 55.2698L45.3942 55.1976L45.3432 55.1273L45.2903 55.0591L45.2354 54.9927L45.1786 54.9282L45.1199 54.8656L45.0593 54.8046Z" fill="#00897B"/>
<path fill-rule="evenodd" clip-rule="evenodd" d="M45.8095 56.0223L82.415 92.6279L82.4348 92.6844L82.4542 92.7409L82.4734 92.7973L82.4923 92.8537L82.511 92.9102L82.5294 92.9665L82.5474 93.0228L82.5653 93.0792L82.5828 93.1354L82.6001 93.1916L82.6171 93.2479L82.634 93.304L82.6504 93.3602L82.6667 93.4163L82.6826 93.4724L82.6984 93.5284L46.0928 56.9228L46.0771 56.8668L46.0612 56.8107L46.0449 56.7545L46.0284 56.6985L46.0117 56.6423L45.9946 56.586L45.9772 56.5298L45.9597 56.4736L45.9419 56.4172L45.9238 56.3608L45.9054 56.3046L45.8868 56.2481L45.8679 56.1918L45.8487 56.1353L45.8292 56.0788L45.8095 56.0223Z" fill="#00897B"/>
<path fill-rule="evenodd" clip-rule="evenodd" d="M48.3686 55.7856L84.9741 92.3912L84.9748 92.3951L84.9755 92.3989L84.9762 92.4028L84.977 92.4067L84.9776 92.4105L84.9784 92.4144L84.9792 92.4183L84.9799 92.4221L48.3744 55.8165L48.3736 55.8127L48.3728 55.8088L48.3722 55.8049L48.3714 55.8011L48.3707 55.7972L48.37 55.7933L48.3693 55.7895L48.3686 55.7856Z" fill="#00897B"/>
<path fill-rule="evenodd" clip-rule="evenodd" d="M62.0395 68.0469L98.6451 104.653H90.012L53.4066 68.0469H62.0395Z" fill="#00897B"/>
<path fill-rule="evenodd" clip-rule="evenodd" d="M46.5833 47.634L83.1889 84.2396L83.1494 84.2508L83.1095 84.2593L83.0692 84.2651L83.0286 84.2684L82.9875 84.2691L82.9463 84.2673L82.9047 84.2629L82.8629 84.2562L82.8211 84.2471L82.779 84.2355L82.737 84.2216L82.6949 84.2055L82.6529 84.187L82.6108 84.1664L82.5688 84.1435L82.5271 84.1187L45.9215 47.513L45.9634 47.5379L46.0052 47.5609L46.0473 47.5815L46.0893 47.5998L46.1315 47.616L46.1736 47.6299L46.2155 47.6414L46.2574 47.6506L46.2991 47.6573L46.3407 47.6617L46.382 47.6635L46.423 47.6629L46.4637 47.6596L46.5039 47.6537L46.5438 47.6452L46.5833 47.634Z" fill="#00897B"/>
<path fill-rule="evenodd" clip-rule="evenodd" d="M50.2874 52.7329L86.8929 89.3385L86.7719 89.2526L86.6516 89.1656L86.532 89.0777L86.4133 88.9889L86.2958 88.8996L86.1793 88.8097L86.0641 88.7194L85.9504 88.6288L85.8383 88.5381L85.7279 88.4474L85.6193 88.3568L85.5127 88.2666L85.4081 88.1767L85.3058 88.0874L85.2057 87.9986L85.1083 87.9108L85.0133 87.8238L84.9212 87.7379L84.832 87.6532L84.7456 87.5699L48.1401 50.9643L48.2264 51.0476L48.3156 51.1323L48.4078 51.2183L48.5027 51.3052L48.6002 51.3931L48.7002 51.4817L48.8026 51.5711L48.9071 51.661L49.0137 51.7513L49.1224 51.8419L49.2328 51.9325L49.3449 52.0232L49.4586 52.1137L49.5737 52.2041L49.6902 52.294L49.8078 52.3834L49.9264 52.472L50.046 52.56L50.1664 52.6469L50.2874 52.7329Z" fill="#00897B"/>
<path fill-rule="evenodd" clip-rule="evenodd" d="M67.9396 68.0469L104.545 104.653H98.6451L62.0395 68.0469H67.9396Z" fill="#00897B"/>
<path fill-rule="evenodd" clip-rule="evenodd" d="M60.3313 38.6575L96.9369 75.2631L97.0159 75.3607L97.093 75.4605L97.1682 75.5627L97.2416 75.6674L97.3131 75.7745L97.3826 75.8841L97.4501 75.9962L97.5157 76.1108L97.5792 76.228L97.6408 76.3478L97.7003 76.4701L97.7577 76.5951L97.8129 76.7228L97.8661 76.8531L97.9171 76.9862L97.9659 77.1221L98.0126 77.2607L98.0571 77.4021L98.0993 77.5464L98.1393 77.6936L98.177 77.8436L98.2123 77.9966L98.2453 78.1526L98.276 78.3114L98.3043 78.4734L98.3302 78.6384L98.3537 78.8063L98.3748 78.9775L98.3934 79.1518L98.4094 79.3292L98.423 79.5098L98.4341 79.6936L61.8285 43.088L61.8175 42.9041L61.8039 42.7236L61.7878 42.5462L61.7692 42.3719L61.7481 42.2008L61.7247 42.0327L61.6987 41.8678L61.6705 41.7058L61.6398 41.547L61.6068 41.3911L61.5714 41.238L61.5337 41.088L61.4938 40.9408L61.4515 40.7966L61.4071 40.6551L61.3605 40.5165L61.3115 40.3807L61.2606 40.2475L61.2074 40.1172L61.1521 39.9895L61.0947 39.8645L61.0352 39.7421L60.9737 39.6224L60.9101 39.5052L60.8446 39.3907L60.777 39.2785L60.7075 39.169L60.636 39.0618L60.5627 38.9571L60.4874 38.855L60.4103 38.7551L60.3313 38.6575Z" fill="#00897B"/>
<path fill-rule="evenodd" clip-rule="evenodd" d="M63.0349 43.4928L99.6405 80.0984L99.6793 80.1432L99.716 80.1897L99.7504 80.238L99.7826 80.2881L99.8124 80.3398L99.8396 80.3928L99.8644 80.4474L99.8865 80.5032L99.906 80.5605L99.9227 80.6189L99.9365 80.6783L99.9473 80.7388L99.9553 80.8003L99.96 80.8627L99.9616 80.9259V83.3544L99.96 83.4177L99.9553 83.48L99.9473 83.5415L99.9365 83.602L99.9227 83.6615L99.906 83.7199L99.8865 83.7771L99.8644 83.833L99.8396 83.8875L99.8124 83.9407L99.7826 83.9922L99.7504 84.0422L99.716 84.0906L99.6793 84.1372L99.6405 84.182L99.5997 84.2248L99.5567 84.2657L99.512 84.3045L99.4654 84.3412L99.417 84.3757L99.3671 84.4077L99.3154 84.4375L99.2624 84.4649L99.2078 84.4896L99.1519 84.5118L99.0947 84.5312L99.0363 84.5478L98.9769 84.5617L98.9163 84.5726L98.8548 84.5804L98.7925 84.5853L98.7293 84.5869H97.823L97.7574 84.5802L97.6963 84.5611L97.6409 84.5309L97.5926 84.491L60.9871 47.8854L61.0355 47.9253L61.0908 47.9555L61.152 47.9746L61.2175 47.9812H62.1237L62.1869 47.9797L62.2493 47.9748L62.3108 47.967L62.3713 47.9561L62.4307 47.9423L62.4891 47.9256L62.5464 47.9062L62.6023 47.884L62.6568 47.8593L62.7099 47.832L62.7615 47.8022L62.8115 47.7701L62.8598 47.7356L62.9064 47.6989L62.9512 47.6602L62.9941 47.6193L63.0349 47.5764L63.0738 47.5317L63.1104 47.4851L63.1448 47.4366L63.177 47.3866L63.2068 47.3351L63.2341 47.2819L63.2588 47.2274L63.2809 47.1714L63.3005 47.1143L63.3171 47.0559L63.3309 46.9964L63.3418 46.9359L63.3497 46.8744L63.3545 46.8121L63.3561 46.7488V44.3203L63.3545 44.2571L63.3497 44.1948L63.3418 44.1333L63.3309 44.0728L63.3171 44.0132L63.3005 43.9549L63.2809 43.8977L63.2588 43.8418L63.2341 43.7873L63.2068 43.7341L63.177 43.6826L63.1448 43.6325L63.1104 43.5841L63.0738 43.5375L63.0349 43.4928Z" fill="#00897B"/>
<path fill-rule="evenodd" clip-rule="evenodd" d="M58.563 32.0258L95.1686 68.6314L95.1677 68.655L95.1447 68.6902L95.1018 68.7362L95.041 68.7917L94.9644 68.8558L94.8742 68.9274L94.7724 69.0056L94.6611 69.0893L94.5426 69.1776L94.4186 69.2693L94.2917 69.3635L94.1636 69.4591L94.0366 69.5552L93.9128 69.6507L93.7942 69.7445L93.683 69.8358L93.5813 69.9234L93.4912 70.0063L93.4146 70.0835L93.354 70.154L93.3112 70.2168L93.2884 70.2709L93.2876 70.3151L93.3111 70.3486L56.7055 33.743L56.682 33.7095L56.6828 33.6653L56.7056 33.6112L56.7484 33.5484L56.8091 33.4779L56.8856 33.4007L56.9757 33.3177L57.0775 33.2302L57.1887 33.139L57.3072 33.0451L57.4311 32.9497L57.558 32.8536L57.6861 32.7579L57.8132 32.6638L57.937 32.572L58.0556 32.4838L58.1668 32.4L58.2686 32.3218L58.3589 32.2502L58.4354 32.1861L58.4962 32.1306L58.5391 32.0847L58.5621 32.0495L58.563 32.0258Z" fill="#00897B"/>
<path fill-rule="evenodd" clip-rule="evenodd" d="M58.9429 35.4785L95.5485 72.0842L95.5681 72.1688L95.5911 72.2529L95.6172 72.3362L95.6462 72.4193L95.678 72.5021L95.7123 72.5849L95.749 72.6677L95.7881 72.7509L95.8291 72.8344L95.872 72.9187L95.9168 73.0036L95.9629 73.0895L96.0104 73.1765L96.0592 73.2649L96.1089 73.3546L96.1594 73.446L96.2107 73.5392L96.2623 73.6342L96.3143 73.7315L96.3664 73.8309L96.4184 73.9329L96.4703 74.0374L96.5217 74.1447L96.5724 74.255L96.6225 74.3683L96.6716 74.485L96.7197 74.6051L96.7664 74.7288L96.8116 74.8563L96.8552 74.9877L96.897 75.1233L96.9368 75.2631L60.3313 38.6575L60.2915 38.5177L60.2497 38.3822L60.2061 38.2507L60.1608 38.1233L60.1141 37.9995L60.0662 37.8794L60.0169 37.7627L59.967 37.6493L59.9161 37.5391L59.8647 37.4318L59.8129 37.3273L59.7608 37.2253L59.7087 37.1258L59.6568 37.0286L59.6051 36.9335L59.5539 36.8404L59.5034 36.7491L59.4536 36.6592L59.4049 36.571L59.3573 36.484L59.3112 36.398L59.2665 36.313L59.2236 36.2288L59.1825 36.1453L59.1434 36.0621L59.1067 35.9793L59.0724 35.8965L59.0406 35.8137L59.0116 35.7306L58.9856 35.6472L58.9626 35.5632L58.9429 35.4785Z" fill="#00897B"/>
<path fill-rule="evenodd" clip-rule="evenodd" d="M61.0082 32.0035L97.6137 68.6091L97.6259 68.6364L97.6288 68.6692L97.6228 68.7073L97.6084 68.7506L97.5861 68.7988L97.5566 68.8517L97.5199 68.9092L97.4769 68.9709L97.4279 69.0368L97.3734 69.1066L97.3138 69.18L97.2497 69.257L97.1814 69.3371L97.1096 69.4204L97.0347 69.5064L96.9571 69.5953L96.8773 69.6863L96.7958 69.7797L96.713 69.8751L96.6296 69.9723L96.5458 70.0711L96.4622 70.1714L96.3794 70.2727L96.2976 70.3751L96.2175 70.4781L96.1394 70.5818L96.064 70.6858L95.9916 70.7899L95.9227 70.8941L59.3172 34.2885L59.386 34.1843L59.4585 34.0802L59.5339 33.9762L59.612 33.8726L59.692 33.7695L59.7738 33.6671L59.8567 33.5657L59.9403 33.4655L60.024 33.3667L60.1076 33.2696L60.1902 33.1741L60.2717 33.0807L60.3516 32.9896L60.4291 32.9008L60.504 32.8148L60.5759 32.7315L60.6441 32.6514L60.7082 32.5744L60.7678 32.501L60.8224 32.4313L60.8714 32.3653L60.9144 32.3036L60.951 32.2461L60.9807 32.1932L61.0029 32.145L61.0172 32.1017L61.0232 32.0636L61.0204 32.0308L61.0082 32.0035Z" fill="#00897B"/>
<path fill-rule="evenodd" clip-rule="evenodd" d="M60.3633 33.9631L96.9688 70.5688L96.9813 70.5863L96.9861 70.6075L96.9837 70.632L96.9744 70.6599L96.9586 70.6909L96.9365 70.725L96.9087 70.7621L96.8753 70.8019L96.8368 70.8445L96.7936 70.8897L96.7461 70.9372L96.6944 70.987L96.639 71.0392L96.5805 71.0934L96.5189 71.1495L96.4547 71.2075L96.3882 71.267L96.3199 71.3283L96.25 71.391L96.1789 71.4551L96.1071 71.5203L96.0348 71.5867L95.9624 71.6539L95.8903 71.7221L95.8187 71.791L95.7481 71.8604L95.6789 71.9304L95.6113 72.0007L95.5459 72.0712L58.9403 35.4656L59.0059 35.3952L59.0733 35.3248L59.1426 35.2549L59.2131 35.1855L59.2847 35.1165L59.3568 35.0484L59.4292 34.9811L59.5015 34.9148L59.5735 34.8495L59.6444 34.7854L59.7143 34.7227L59.7827 34.6615L59.8491 34.6018L59.9133 34.5439L59.9749 34.4877L60.0336 34.4336L60.0889 34.3815L60.1405 34.3316L60.1881 34.284L60.2313 34.2389L60.2698 34.1963L60.3031 34.1565L60.331 34.1195L60.353 34.0853L60.3688 34.0543L60.3782 34.0264L60.3806 34.0018L60.3758 33.9807L60.3633 33.9631Z" fill="#00897B"/>
<path fill-rule="evenodd" clip-rule="evenodd" d="M58.9403 35.4656L95.5459 72.0712L95.5462 72.0729L95.5466 72.0745L95.5469 72.076L95.5471 72.0777L95.5474 72.0793L95.5478 72.0809L95.5481 72.0825L95.5485 72.0842L58.9429 35.4785L58.9426 35.4769L58.9422 35.4753L58.942 35.4737L58.9416 35.4721L58.9413 35.4705L58.941 35.4688L58.9407 35.4673L58.9403 35.4656Z" fill="#00897B"/>
<path fill-rule="evenodd" clip-rule="evenodd" d="M67.794 67.3465C67.6495 66.6476 67.4522 65.6889 67.3913 65.3914C67.3912 65.3912 67.3913 65.3916 67.3913 65.3914C67.528 66.0392 67.6611 66.6998 67.794 67.3465C67.7941 67.3467 67.794 67.3463 67.794 67.3465ZM67.9365 68.0325C67.9094 67.9038 67.8581 67.6563 67.7969 67.3607C67.8421 67.5804 67.8873 67.7986 67.9326 68.0143C67.9339 68.0204 67.9352 68.0265 67.9365 68.0325ZM58.943 35.4786C59.1343 36.3866 59.918 37.1427 60.3313 38.6576C61.1834 39.6853 61.7243 41.1103 61.8284 43.088H62.1237C62.8015 43.088 63.3561 43.6425 63.3561 44.3204V46.7489C63.3561 47.4268 62.8015 47.9813 62.1237 47.9813H61.2175C61.038 47.9813 60.8913 47.8345 60.8913 47.6551V47.5965C60.7182 47.6694 60.5446 47.6854 60.3838 47.6324C60.3343 47.6161 60.2878 47.5939 60.2442 47.5662C59.959 48.8893 59.5967 49.865 59.4261 50.1161C59.0239 50.7086 57.8188 51.8226 56.5252 52.733V54.0113V54.9588C57.2149 55.2622 57.8509 55.5497 58.438 55.822C58.44 55.8116 58.4419 55.8012 58.4438 55.7909C58.5984 55.8623 58.7496 55.9328 58.8975 56.0023C58.8957 56.013 58.8939 56.0236 58.8921 56.0342C63.3198 58.1187 64.7725 59.2725 65.4242 59.8491C65.6956 60.0892 65.9389 60.4809 66.1612 60.9818C66.6468 62.0755 67.0333 63.6959 67.3913 65.3914C67.5295 66.0459 67.6627 66.7074 67.7969 67.3607C67.8442 67.5904 67.8913 67.8178 67.9387 68.0432C67.9385 68.0419 67.939 68.0445 67.9387 68.0432L62.0395 68.047H53.4065H44.7729L39.3282 68.047H39.3182L38.8731 68.047C38.8739 68.0433 38.8746 68.0396 38.8754 68.0359C38.2843 68.0125 37.6893 67.9547 37.0905 67.8609C36.3422 67.7438 35.5874 67.5708 34.8258 67.339C34.3093 67.1818 33.8917 66.9433 33.5577 66.6089C33.2246 66.2755 32.9872 65.8591 32.8296 65.3453C32.3733 63.8573 32.0902 62.3439 32.0626 60.7931C32.0349 59.2357 32.2653 57.6486 32.837 56.0224C33.0147 55.5171 33.2584 55.1254 33.5872 54.8047C33.9078 54.492 34.2962 54.261 34.7734 54.0686C35.5285 53.7639 36.2857 53.5509 37.0445 53.4173C37.794 53.2852 38.5541 53.2303 39.3232 53.2404C40.0924 53.2303 40.8525 53.2852 41.6019 53.4173C42.3608 53.5509 43.118 53.7639 43.8731 54.0686C44.3503 54.261 44.7387 54.492 45.0593 54.8047C45.3881 55.1254 45.6318 55.5171 45.8094 56.0224C45.9154 56.3239 46.0097 56.624 46.0928 56.9229C46.6384 56.6456 47.2451 56.3481 47.9204 56.0292C47.9186 56.0187 47.9168 56.0082 47.9151 55.9977C48.063 55.928 48.2141 55.8573 48.3685 55.7856C48.3704 55.796 48.3723 55.8063 48.3743 55.8166C48.9619 55.5433 49.598 55.2552 50.2873 54.9514V54.0115V52.733C48.9937 51.8225 47.7888 50.7085 47.3867 50.1161C47.219 49.8693 46.8661 48.9226 46.5833 47.6341C46.3743 47.7009 46.1439 47.6518 45.9215 47.5131V47.6551C45.9215 47.8345 45.7747 47.9813 45.5953 47.9813H44.6891C44.0113 47.9813 43.4567 47.4268 43.4567 46.749V44.3204C43.4567 43.6426 44.0113 43.088 44.6891 43.088H44.9844C45.0608 41.6355 45.3729 40.4812 45.8708 39.5634C45.7503 37.7513 46.2727 35.4665 49.528 33.7965C50.0138 33.704 48.2974 34.9395 48.8151 34.7457C50.2812 34.3141 51.4645 33.1398 52.4983 32.9948C52.7891 32.8952 51.1333 34.3237 52.0292 34.0288C53.545 33.3516 54.6948 32.4363 55.7754 32.4072C56.094 32.3898 53.3761 34.0238 53.8312 33.8706C56.2216 33.0656 57.3313 32.1992 58.4901 32.0177C59.1665 31.9119 54.9986 34.3159 57.4719 33.6602C59.4851 33.1267 60.2338 31.8716 60.911 31.9574C61.4282 32.0228 60.0314 33.1796 59.3171 34.2885C59.7123 34.0667 60.0009 33.9058 60.2766 33.9331C60.7238 33.9775 59.6266 34.7127 58.9403 35.4657C58.9411 35.47 58.942 35.4743 58.943 35.4786Z" fill="#00897B"/>
</g>
<path fill-rule="evenodd" clip-rule="evenodd" d="M50.5008 54.8575C44.0771 57.6736 42.1503 59.175 41.3887 59.849C40.2149 60.8877 39.5656 64.7595 38.8731 68.0469H53.4066H67.9396C67.2473 64.7595 66.598 60.8876 65.4242 59.849C64.6625 59.175 62.8061 57.7122 56.3826 54.8961L50.5008 54.8575Z" fill="#689F38"/>
<path fill-rule="evenodd" clip-rule="evenodd" d="M50.5008 54.8575C49.575 55.2634 48.7431 55.6417 47.9941 55.9945C48.4525 58.7302 50.7012 60.8072 53.4063 60.8072C56.1099 60.8072 58.3576 58.7325 58.8177 55.9991C58.0889 55.6568 57.2804 55.2897 56.3826 54.8961L50.5008 54.8575Z" fill="#E3B8A4"/>
<path fill-rule="evenodd" clip-rule="evenodd" d="M48.3686 55.7856C48.2143 55.8573 48.0631 55.9279 47.9152 55.9976C48.3802 58.7735 50.6619 60.881 53.4068 60.881C56.15 60.881 58.4308 58.7759 58.8976 56.0023C58.7497 55.9328 58.5985 55.8623 58.4439 55.7908C57.9811 58.2992 55.9019 60.1917 53.4068 60.1917C50.9099 60.1917 48.8296 58.2965 48.3686 55.7856Z" fill="#1565C0"/>
<path fill-rule="evenodd" clip-rule="evenodd" d="M56.5253 49.2441V56.3645C55.6529 57.4607 54.5115 58.1284 53.4066 58.1804C52.2287 58.2358 51.0892 57.6021 50.2874 56.3645V49.2441C50.2874 45.3994 56.5253 45.3994 56.5253 49.2441Z" fill="#E3B8A4"/>
<path fill-rule="evenodd" clip-rule="evenodd" d="M56.5253 49.2441V54.0113C55.3452 54.8716 54.2073 55.3536 53.4066 55.3536C52.6055 55.3536 51.4675 54.8716 50.2874 54.0114V49.2441C50.2874 45.3994 56.5253 45.3994 56.5253 49.2441Z" fill="#D9AE9A"/>
<path fill-rule="evenodd" clip-rule="evenodd" d="M53.4066 36.4604C42.9384 36.4604 46.7029 49.1093 47.3868 50.1161C48.1405 51.2264 51.715 54.1696 53.4066 54.1696C55.0977 54.1696 58.6723 51.2266 59.4262 50.1161C60.11 49.1092 63.8746 36.4604 53.4066 36.4604Z" fill="#EDC5B2"/>
<path fill-rule="evenodd" clip-rule="evenodd" d="M46.3215 42.0282C46.0646 40.6106 44.3833 36.4357 49.528 33.7964C50.0138 33.7039 48.2974 34.9395 48.8151 34.7456C50.2812 34.3139 51.4645 33.1397 52.4984 32.9947C52.7891 32.8951 51.1333 34.3236 52.0292 34.0287C53.545 33.3515 54.6949 32.4362 55.7754 32.4071C56.0941 32.3897 53.3761 34.0237 53.8313 33.8705C56.2217 33.0655 57.3313 32.1991 58.4902 32.0176C59.1665 31.9118 54.9987 34.3158 57.4719 33.6601C59.4852 33.1266 60.2339 31.8716 60.911 31.9573C61.6265 32.0478 58.6792 34.2267 58.9429 35.4785C59.2417 36.8959 60.9839 37.9433 60.5071 42.0848C59.7778 39.9364 57.6211 38.807 55.3502 39.1571C51.7375 39.6027 48.091 37.1916 46.3215 42.0282Z" fill="#A13F0F"/>
<path fill-rule="evenodd" clip-rule="evenodd" d="M46.6214 41.2871C46.3834 40.2569 44.9653 37.1878 49.7314 35.2697C50.1814 35.2024 48.5914 36.1004 49.071 35.9595C50.4291 35.6458 51.5254 34.7924 52.4832 34.687C52.7525 34.6146 51.2185 35.6528 52.0485 35.4385C53.4528 34.9463 54.518 34.2811 55.519 34.26C55.8142 34.2473 53.2963 35.4348 53.718 35.3235C55.9325 34.7385 56.9604 34.1088 58.034 33.9769C58.6605 33.9 54.7995 35.6472 57.0907 35.1706C58.9557 34.7829 59.6494 33.8708 60.2767 33.9331C60.9395 33.9988 58.2091 35.5824 58.4534 36.4922C58.7302 37.5223 60.6232 38.3184 60.1814 41.3283C59.5058 39.7669 57.2289 38.9112 55.1251 39.1657C51.7783 39.4895 48.2606 37.7721 46.6214 41.2871Z" fill="#AD4916"/>
<path fill-rule="evenodd" clip-rule="evenodd" d="M45.4559 44.1919C46.005 44.0111 46.7041 44.6345 47.0169 45.5846C47.33 46.5346 47.1383 47.4514 46.5886 47.6323C46.0394 47.8133 45.3403 47.1898 45.0275 46.2398C44.7147 45.2897 44.9064 44.373 45.4559 44.1919Z" fill="#EDC5B2"/>
<path fill-rule="evenodd" clip-rule="evenodd" d="M61.5168 44.1921C60.9673 44.0111 60.2685 44.6345 59.9555 45.5846C59.6427 46.5346 59.8343 47.4514 60.3838 47.6323C60.9332 47.8133 61.6323 47.1898 61.9451 46.2399C62.2579 45.2898 62.0661 44.3729 61.5168 44.1921Z" fill="#EDC5B2"/>
<path fill-rule="evenodd" clip-rule="evenodd" d="M40.6515 60.9818C39.9123 62.647 39.4054 65.5195 38.8732 68.0469H44.773C44.6411 63.9235 44.6336 61.7303 40.6515 60.9818Z" fill="#1565C0"/>
<path fill-rule="evenodd" clip-rule="evenodd" d="M66.1612 60.9818C66.9004 62.647 67.4073 65.5195 67.9396 68.0469H62.0396C62.1716 63.9235 62.1791 61.7303 66.1612 60.9818Z" fill="#1565C0"/>
<path fill-rule="evenodd" clip-rule="evenodd" d="M67.3902 65.3856C67.4762 65.8058 67.8535 67.6381 67.9396 68.0469H62.0396C62.0537 67.6098 62.0665 67.1947 62.0824 66.8004L67.3902 65.3856Z" fill="#E3B8A4"/>
<path fill-rule="evenodd" clip-rule="evenodd" d="M39.5001 65.0219C39.4143 65.4421 38.9593 67.6382 38.8731 68.047H44.773C44.759 67.6098 44.7464 67.1947 44.7305 66.8004L39.5001 65.0219Z" fill="#E3B8A4"/>
<path d="M51.5676 37.4061C51.59 37.413 51.6016 37.4164 51.5676 37.4061V37.4061Z" fill="#424242"/>
<path d="M45.4872 43.1886C45.6099 40.5738 46.5373 39.0046 47.9416 38.064C49.3735 37.1048 51.3109 36.7772 53.4064 36.6619L53.3826 36.1009C51.2124 36.2202 49.1973 36.5654 47.6794 37.5821C46.1338 38.6174 45.1138 40.3275 44.9808 43.16L45.4872 43.1886Z" fill="#37474F"/>
<path d="M61.3258 43.1886C61.203 40.5738 60.2756 39.0046 58.8714 38.064C57.4394 37.1048 55.502 36.7772 53.4064 36.6619L53.4303 36.1009C55.6005 36.2202 57.6156 36.5654 59.1335 37.5821C60.6791 38.6174 61.6991 40.3275 61.832 43.16L61.3258 43.1886Z" fill="#37474F"/>
<path fill-rule="evenodd" clip-rule="evenodd" d="M44.6891 43.088H45.5954C45.7748 43.088 45.9216 43.2348 45.9216 43.4142V47.6551C45.9216 47.8345 45.7748 47.9813 45.5954 47.9813H44.6891C44.0113 47.9813 43.4568 47.4267 43.4568 46.7489V44.3204C43.4568 43.6425 44.0113 43.088 44.6891 43.088Z" fill="#263238"/>
<path fill-rule="evenodd" clip-rule="evenodd" d="M62.1237 43.088H61.2175C61.0381 43.088 60.8913 43.2348 60.8913 43.4142V47.6551C60.8913 47.8345 61.0381 47.9813 61.2175 47.9813H62.1237C62.8016 47.9813 63.3561 47.4267 63.3561 46.7489V44.3204C63.3561 43.6425 62.8016 43.088 62.1237 43.088Z" fill="#263238"/>
<path fill-rule="evenodd" clip-rule="evenodd" d="M33.9202 56.3455C33.3884 57.8585 33.1739 59.3322 33.1996 60.7761C33.2254 62.2268 33.4942 63.6557 33.9279 65.0699C34.0259 65.3894 34.1639 65.6387 34.3507 65.8256C34.5364 66.0116 34.7835 66.1488 35.1008 66.2453C35.8212 66.4645 36.5337 66.628 37.2386 66.7383C37.9411 66.8482 38.636 66.9057 39.3233 66.9132C40.0106 66.9057 40.7054 66.8482 41.408 66.7383C42.1128 66.628 42.8254 66.4645 43.5458 66.2453C43.863 66.1488 44.1102 66.0116 44.2959 65.8256C44.4827 65.6387 44.6206 65.3894 44.7187 65.0699C45.1523 63.6558 45.4212 62.2268 45.447 60.7761C45.4727 59.3322 45.2582 57.8585 44.7263 56.3455C44.6148 56.0283 44.4703 55.7905 44.2812 55.6061C44.0837 55.4135 43.8239 55.263 43.4921 55.1291C42.812 54.8548 42.1241 54.6619 41.4295 54.5395C40.7277 54.4159 40.0283 54.3645 39.331 54.3741H39.3156C38.6183 54.3645 37.9189 54.4159 37.2171 54.5395C36.5225 54.6619 35.8345 54.8548 35.1545 55.1291C34.8227 55.263 34.5628 55.4135 34.3654 55.6061C34.1763 55.7905 34.0318 56.0283 33.9202 56.3455Z" fill="#8F1010"/>
<path fill-rule="evenodd" clip-rule="evenodd" d="M37.8168 58.0126V63.2736C37.8168 63.4263 37.8751 63.5792 37.9917 63.6957C38.2249 63.9289 38.6029 63.9289 38.8361 63.6957L41.4665 61.0653C41.6996 60.8321 41.6996 60.4541 41.4665 60.2209L38.8398 57.5941C38.7314 57.4839 38.5807 57.4155 38.4139 57.4155C38.0841 57.4155 37.8168 57.6828 37.8168 58.0126Z" fill="#F08888"/>
<path d="M34.7734 54.0685C35.5285 53.7639 36.2857 53.5509 37.0446 53.4172C37.794 53.2851 38.5542 53.2302 39.3233 53.2404C40.0924 53.2302 40.8526 53.2851 41.602 53.4172C42.3609 53.5509 43.1181 53.7639 43.8732 54.0685C44.3503 54.2609 44.7387 54.4919 45.0594 54.8046C45.3881 55.1253 45.6318 55.517 45.8095 56.0223C46.3812 57.6485 46.6117 59.2356 46.5839 60.7931C46.5563 62.3438 46.2733 63.8572 45.817 65.3452C45.6594 65.859 45.4219 66.2754 45.0888 66.6088C44.7547 66.9433 44.3373 67.1818 43.8207 67.3389C43.0591 67.5707 42.3043 67.7437 41.5561 67.8608C40.8074 67.978 40.0649 68.0391 39.3283 68.0469H39.3183C38.5817 68.0391 37.8392 67.978 37.0905 67.8608C36.3423 67.7437 35.5875 67.5707 34.8259 67.3389C34.3093 67.1818 33.8918 66.9433 33.5578 66.6088C33.2247 66.2754 32.9872 65.859 32.8296 65.3452C32.3733 63.8572 32.0902 62.3438 32.0626 60.7931C32.0349 59.2356 32.2654 57.6485 32.8371 56.0223C33.0147 55.517 33.2585 55.1253 33.5872 54.8046C33.9079 54.4919 34.2963 54.2609 34.7734 54.0685ZM37.2645 54.6769C36.5855 54.7965 35.9131 54.9851 35.2483 55.2532C34.924 55.3841 34.6699 55.5312 34.477 55.7195C34.2922 55.8997 34.1509 56.1321 34.0419 56.4422C33.5219 57.9211 33.3123 59.3617 33.3374 60.7731C33.3626 62.1911 33.6254 63.5879 34.0494 64.9703C34.1451 65.2827 34.28 65.5263 34.4626 65.709C34.6441 65.8908 34.8857 66.0249 35.1958 66.1192C35.9 66.3335 36.5965 66.4933 37.2855 66.6011C37.9722 66.7086 38.6514 66.7647 39.3233 66.7721C39.9951 66.7647 40.6743 66.7086 41.3611 66.6011C42.0501 66.4933 42.7466 66.3335 43.4508 66.1192C43.7609 66.0249 44.0025 65.8908 44.184 65.709C44.3666 65.5263 44.5015 65.2827 44.5973 64.9703C45.0212 63.588 45.284 62.1911 45.3092 60.7731C45.3343 59.3617 45.1247 57.9211 44.6048 56.4422C44.4957 56.1321 44.3545 55.8997 44.1696 55.7195C43.9766 55.5312 43.7226 55.3841 43.3983 55.2532C42.7335 54.9851 42.0611 54.7965 41.3821 54.6769C40.6961 54.5561 40.0124 54.5058 39.3308 54.5152H39.3158C38.6342 54.5058 37.9505 54.556 37.2645 54.6769Z" fill="#B71C1C"/>
<path fill-rule="evenodd" clip-rule="evenodd" d="M39.3232 55.7968C41.9998 55.7968 44.1695 57.9666 44.1695 60.6431C44.1695 63.3196 41.9998 65.4894 39.3232 65.4894C36.6467 65.4894 34.477 63.3196 34.477 60.6431C34.477 57.9666 36.6467 55.7968 39.3232 55.7968ZM38.8397 57.5941L41.4664 60.221C41.6996 60.4541 41.6996 60.8321 41.4664 61.0653L38.836 63.6958C38.6029 63.9289 38.2248 63.9289 37.9917 63.6958C37.8751 63.5792 37.8168 63.4264 37.8168 63.2736L37.8167 58.0127C37.8167 57.6829 38.0841 57.4156 38.4138 57.4156C38.5806 57.4156 38.7314 57.4839 38.8397 57.5941Z" fill="#B71C1C"/>
<path fill-rule="evenodd" clip-rule="evenodd" d="M50.6506 48.9724C52.4807 49.6273 54.6049 49.5211 56.1622 48.9724C55.654 51.3137 51.6224 51.3706 50.6506 48.9724Z" fill="#E4B7A0"/>
</g>
<defs>
<clipPath id="clip0_316_23">
<rect width="66" height="66" fill="white" transform="translate(17 17)"/>
</clipPath>
</defs>
</svg>
