<svg width="50" height="50" viewBox="0 0 50 50" fill="none" xmlns="http://www.w3.org/2000/svg">
<path d="M25.0001 0C14.2126 0 5.02039 6.83281 1.51648 16.4062H48.4845C44.9798 6.83281 35.7876 0 25.0001 0Z" fill="white"/>
<path d="M0 25C0 28.0195 0.535156 30.9141 1.51641 33.5938H48.4844C49.4648 30.9141 50 28.0195 50 25C50 21.9805 49.4648 19.0859 48.4836 16.4062H1.51641C0.535156 19.0859 0 21.9805 0 25Z" fill="#0547AF"/>
<path d="M25.0001 50C35.7876 50 44.9798 43.1672 48.4837 33.5938H1.51648C5.02039 43.1672 14.2126 50 25.0001 50Z" fill="#D82E25"/>
</svg>
