<svg width="41" height="42" viewBox="0 0 41 42" fill="none" xmlns="http://www.w3.org/2000/svg">
<mask id="path-1-inside-1_550_14" fill="white">
<path d="M20.4483 18.6667C20.4483 17.6161 20.2485 16.5758 19.8603 15.6052C19.4721 14.6346 18.9032 13.7527 18.1859 13.0098C17.4687 12.267 16.6172 11.6777 15.68 11.2757C14.7429 10.8736 13.7385 10.6667 12.7241 10.6667C11.7098 10.6667 10.7054 10.8736 9.76824 11.2757C8.8311 11.6777 7.9796 12.267 7.26235 13.0098C6.54509 13.7527 5.97614 14.6346 5.58796 15.6052C5.19979 16.5758 5 17.6161 5 18.6667L12.7241 18.6667H20.4483Z"/>
</mask>
<path d="M20.4483 18.6667C20.4483 17.6161 20.2485 16.5758 19.8603 15.6052C19.4721 14.6346 18.9032 13.7527 18.1859 13.0098C17.4687 12.267 16.6172 11.6777 15.68 11.2757C14.7429 10.8736 13.7385 10.6667 12.7241 10.6667C11.7098 10.6667 10.7054 10.8736 9.76824 11.2757C8.8311 11.6777 7.9796 12.267 7.26235 13.0098C6.54509 13.7527 5.97614 14.6346 5.58796 15.6052C5.19979 16.5758 5 17.6161 5 18.6667L12.7241 18.6667H20.4483Z" fill="white" stroke="#CD2266" stroke-width="4" mask="url(#path-1-inside-1_550_14)"/>
<path d="M18.4184 6.93333C18.4184 10.2436 15.8362 12.8667 12.7242 12.8667C9.6121 12.8667 7.02991 10.2436 7.02991 6.93333C7.02991 3.62308 9.6121 1 12.7242 1C15.8362 1 18.4184 3.62308 18.4184 6.93333Z" fill="white" stroke="#CD2266" stroke-width="2"/>
<mask id="path-3-inside-2_550_14" fill="white">
<path d="M37 18.6667C37 17.6161 36.8002 16.5758 36.412 15.6052C36.0238 14.6346 35.4549 13.7527 34.7376 13.0098C34.0204 12.267 33.1689 11.6777 32.2317 11.2757C31.2946 10.8736 30.2902 10.6667 29.2758 10.6667C28.2615 10.6667 27.2571 10.8736 26.3199 11.2757C25.3828 11.6777 24.5313 12.267 23.814 13.0098C23.0968 13.7527 22.5278 14.6346 22.1397 15.6052C21.7515 16.5758 21.5517 17.6161 21.5517 18.6667L29.2758 18.6667H37Z"/>
</mask>
<path d="M37 18.6667C37 17.6161 36.8002 16.5758 36.412 15.6052C36.0238 14.6346 35.4549 13.7527 34.7376 13.0098C34.0204 12.267 33.1689 11.6777 32.2317 11.2757C31.2946 10.8736 30.2902 10.6667 29.2758 10.6667C28.2615 10.6667 27.2571 10.8736 26.3199 11.2757C25.3828 11.6777 24.5313 12.267 23.814 13.0098C23.0968 13.7527 22.5278 14.6346 22.1397 15.6052C21.7515 16.5758 21.5517 17.6161 21.5517 18.6667L29.2758 18.6667H37Z" fill="white" stroke="#CD2266" stroke-width="4" mask="url(#path-3-inside-2_550_14)"/>
<path d="M34.9702 6.93333C34.9702 10.2436 32.388 12.8667 29.2759 12.8667C26.1639 12.8667 23.5817 10.2436 23.5817 6.93333C23.5817 3.62308 26.1639 1 29.2759 1C32.388 1 34.9702 3.62308 34.9702 6.93333Z" fill="white" stroke="#CD2266" stroke-width="2"/>
<mask id="path-5-inside-3_550_14" fill="white">
<path d="M29.2759 23.4286C29.2759 22.303 29.0618 21.1884 28.6459 20.1485C28.23 19.1085 27.6204 18.1636 26.852 17.3677C26.0835 16.5718 25.1712 15.9404 24.1671 15.5096C23.163 15.0789 22.0868 14.8572 21 14.8572C19.9132 14.8572 18.8371 15.0789 17.833 15.5096C16.8289 15.9404 15.9166 16.5718 15.1481 17.3677C14.3796 18.1636 13.77 19.1085 13.3541 20.1485C12.9382 21.1884 12.7242 22.303 12.7242 23.4286L21 23.4286H29.2759Z"/>
</mask>
<path d="M29.2759 23.4286C29.2759 22.303 29.0618 21.1884 28.6459 20.1485C28.23 19.1085 27.6204 18.1636 26.852 17.3677C26.0835 16.5718 25.1712 15.9404 24.1671 15.5096C23.163 15.0789 22.0868 14.8572 21 14.8572C19.9132 14.8572 18.8371 15.0789 17.833 15.5096C16.8289 15.9404 15.9166 16.5718 15.1481 17.3677C14.3796 18.1636 13.77 19.1085 13.3541 20.1485C12.9382 21.1884 12.7242 22.303 12.7242 23.4286L21 23.4286H29.2759Z" fill="white" stroke="#CD2266" stroke-width="4" mask="url(#path-5-inside-3_550_14)"/>
<path d="M27.1724 10.8572C27.1724 14.4409 24.3761 17.2857 21 17.2857C17.6238 17.2857 14.8276 14.4409 14.8276 10.8572C14.8276 7.27339 17.6238 4.42859 21 4.42859C24.3761 4.42859 27.1724 7.27339 27.1724 10.8572Z" fill="white" stroke="#CD2266" stroke-width="2"/>
<path d="M7.69922 38.0801V39H1.24219V38.0801H7.69922ZM1.42383 38.0801V41.0977H0.304688L0.298828 38.0801H1.42383ZM8.68359 38.0801L8.67188 41.0918H7.55273V38.0801H8.68359ZM6.5918 30.4688V31.3945H2.85352V30.4688H6.5918ZM7.56445 30.4688V39H6.43945V30.4688H7.56445ZM2.4668 30.4688H3.59766L3.42188 33.9023C3.39844 34.418 3.34961 34.8945 3.27539 35.332C3.20117 35.7656 3.10938 36.1621 3 36.5215C2.89062 36.8809 2.76562 37.2031 2.625 37.4883C2.48438 37.7695 2.33398 38.0137 2.17383 38.2207C2.01367 38.4238 1.8457 38.5918 1.66992 38.7246C1.49805 38.8535 1.32422 38.9453 1.14844 39H0.632812V38.0801H0.996094C1.09766 37.9707 1.21289 37.8125 1.3418 37.6055C1.47461 37.3984 1.60547 37.1309 1.73438 36.8027C1.86719 36.4707 1.98242 36.0664 2.08008 35.5898C2.18164 35.1133 2.25 34.5508 2.28516 33.9023L2.4668 30.4688ZM10.9336 33.8789V41.4375H9.84375V32.6602H10.8398L10.9336 33.8789ZM15.2051 35.7773V35.9004C15.2051 36.3613 15.1504 36.7891 15.041 37.1836C14.9316 37.5742 14.7715 37.9141 14.5605 38.2031C14.3535 38.4922 14.0977 38.7168 13.793 38.877C13.4883 39.0371 13.1387 39.1172 12.7441 39.1172C12.3418 39.1172 11.9863 39.0508 11.6777 38.918C11.3691 38.7852 11.1074 38.5918 10.8926 38.3379C10.6777 38.084 10.5059 37.7793 10.377 37.4238C10.252 37.0684 10.166 36.668 10.1191 36.2227V35.5664C10.166 35.0977 10.2539 34.6777 10.3828 34.3066C10.5117 33.9355 10.6816 33.6191 10.8926 33.3574C11.1074 33.0918 11.3672 32.8906 11.6719 32.7539C11.9766 32.6133 12.3281 32.543 12.7266 32.543C13.125 32.543 13.4785 32.6211 13.7871 32.7773C14.0957 32.9297 14.3555 33.1484 14.5664 33.4336C14.7773 33.7188 14.9355 34.0605 15.041 34.459C15.1504 34.8535 15.2051 35.293 15.2051 35.7773ZM14.1152 35.9004V35.7773C14.1152 35.4609 14.082 35.1641 14.0156 34.8867C13.9492 34.6055 13.8457 34.3594 13.7051 34.1484C13.5684 33.9336 13.3926 33.7656 13.1777 33.6445C12.9629 33.5195 12.707 33.457 12.4102 33.457C12.1367 33.457 11.8984 33.5039 11.6953 33.5977C11.4961 33.6914 11.3262 33.8184 11.1855 33.9785C11.0449 34.1348 10.9297 34.3145 10.8398 34.5176C10.7539 34.7168 10.6895 34.9238 10.6465 35.1387V36.6562C10.7246 36.9297 10.834 37.1875 10.9746 37.4297C11.1152 37.668 11.3027 37.8613 11.5371 38.0098C11.7715 38.1543 12.0664 38.2266 12.4219 38.2266C12.7148 38.2266 12.9668 38.166 13.1777 38.0449C13.3926 37.9199 13.5684 37.75 13.7051 37.5352C13.8457 37.3203 13.9492 37.0742 14.0156 36.7969C14.082 36.5156 14.1152 36.2168 14.1152 35.9004ZM18.2988 38.3438L20.0625 32.6602H21.2227L18.6797 39.9785C18.6211 40.1348 18.543 40.3027 18.4453 40.4824C18.3516 40.666 18.2305 40.8398 18.082 41.0039C17.9336 41.168 17.7539 41.3008 17.543 41.4023C17.3359 41.5078 17.0879 41.5605 16.7988 41.5605C16.7129 41.5605 16.6035 41.5488 16.4707 41.5254C16.3379 41.502 16.2441 41.4824 16.1895 41.4668L16.1836 40.5879C16.2148 40.5918 16.2637 40.5957 16.3301 40.5996C16.4004 40.6074 16.4492 40.6113 16.4766 40.6113C16.7227 40.6113 16.9316 40.5781 17.1035 40.5117C17.2754 40.4492 17.4199 40.3418 17.5371 40.1895C17.6582 40.041 17.7617 39.8359 17.8477 39.5742L18.2988 38.3438ZM17.0039 32.6602L18.6504 37.582L18.9316 38.7246L18.1523 39.123L15.8203 32.6602H17.0039ZM24.5684 35.9707H23.4023V35.3027H24.4805C24.7812 35.3027 25.0195 35.2656 25.1953 35.1914C25.3711 35.1133 25.4961 35.0059 25.5703 34.8691C25.6445 34.7324 25.6816 34.5723 25.6816 34.3887C25.6816 34.2246 25.6387 34.0703 25.5527 33.9258C25.4707 33.7773 25.3379 33.6582 25.1543 33.5684C24.9707 33.4746 24.7246 33.4277 24.416 33.4277C24.166 33.4277 23.9395 33.4727 23.7363 33.5625C23.5332 33.6484 23.3711 33.7676 23.25 33.9199C23.1328 34.0684 23.0742 34.2363 23.0742 34.4238H21.9902C21.9902 34.0371 22.0996 33.7051 22.3184 33.4277C22.541 33.1465 22.8359 32.9297 23.2031 32.7773C23.5742 32.625 23.9785 32.5488 24.416 32.5488C24.7832 32.5488 25.1113 32.5898 25.4004 32.6719C25.6934 32.75 25.9414 32.8672 26.1445 33.0234C26.3477 33.1758 26.502 33.3672 26.6074 33.5977C26.7168 33.8242 26.7715 34.0879 26.7715 34.3887C26.7715 34.6035 26.7207 34.8066 26.6191 34.998C26.5176 35.1895 26.3711 35.3594 26.1797 35.5078C25.9883 35.6523 25.7559 35.7656 25.4824 35.8477C25.2129 35.9297 24.9082 35.9707 24.5684 35.9707ZM23.4023 35.5605H24.5684C24.9473 35.5605 25.2812 35.5977 25.5703 35.6719C25.8594 35.7422 26.1016 35.8477 26.2969 35.9883C26.4922 36.1289 26.6387 36.3027 26.7363 36.5098C26.8379 36.7129 26.8887 36.9473 26.8887 37.2129C26.8887 37.5098 26.8281 37.7773 26.707 38.0156C26.5898 38.25 26.4219 38.4492 26.2031 38.6133C25.9844 38.7773 25.7227 38.9023 25.418 38.9883C25.1172 39.0742 24.7832 39.1172 24.416 39.1172C24.0059 39.1172 23.6074 39.0469 23.2207 38.9062C22.834 38.7656 22.5156 38.5488 22.2656 38.2559C22.0156 37.959 21.8906 37.582 21.8906 37.125H22.9746C22.9746 37.3164 23.0352 37.498 23.1562 37.6699C23.2773 37.8418 23.4453 37.9805 23.6602 38.0859C23.8789 38.1914 24.1309 38.2441 24.416 38.2441C24.7207 38.2441 24.9746 38.1973 25.1777 38.1035C25.3809 38.0098 25.5332 37.8848 25.6348 37.7285C25.7402 37.5723 25.793 37.4023 25.793 37.2188C25.793 36.9805 25.7461 36.7891 25.6523 36.6445C25.5586 36.5 25.4141 36.3945 25.2188 36.3281C25.0273 36.2578 24.7812 36.2227 24.4805 36.2227H23.4023V35.5605ZM29.1855 34.8398H31.0898C31.6016 34.8398 32.0332 34.9297 32.3848 35.1094C32.7363 35.2852 33.002 35.5293 33.1816 35.8418C33.3652 36.1504 33.457 36.502 33.457 36.8965C33.457 37.1895 33.4062 37.4648 33.3047 37.7227C33.2031 37.9766 33.0508 38.1992 32.8477 38.3906C32.6484 38.582 32.4004 38.7324 32.1035 38.8418C31.8105 38.9473 31.4727 39 31.0898 39H28.3945V32.6602H29.4785V38.1094H31.0898C31.4023 38.1094 31.6523 38.0527 31.8398 37.9395C32.0273 37.8262 32.1621 37.6797 32.2441 37.5C32.3262 37.3203 32.3672 37.1328 32.3672 36.9375C32.3672 36.7461 32.3262 36.5586 32.2441 36.375C32.1621 36.1914 32.0273 36.0391 31.8398 35.918C31.6523 35.793 31.4023 35.7305 31.0898 35.7305H29.1855V34.8398ZM36.0938 35.9766H37.2656L35.4316 39H34.2598L36.0938 35.9766ZM37.002 32.6602H39.6504V39H38.5664V33.5391H37.002C36.6934 33.5391 36.4414 33.5918 36.2461 33.6973C36.0508 33.7988 35.9082 33.9316 35.8184 34.0957C35.7285 34.2598 35.6836 34.4297 35.6836 34.6055C35.6836 34.7773 35.7246 34.9434 35.8066 35.1035C35.8887 35.2598 36.0176 35.3887 36.1934 35.4902C36.3691 35.5918 36.5957 35.6426 36.873 35.6426H38.8594V36.5332H36.873C36.5098 36.5332 36.1875 36.4844 35.9062 36.3867C35.625 36.2891 35.3867 36.1543 35.1914 35.9824C34.9961 35.8066 34.8477 35.6016 34.7461 35.3672C34.6445 35.1289 34.5938 34.8711 34.5938 34.5938C34.5938 34.3164 34.6465 34.0605 34.752 33.8262C34.8613 33.5918 35.0176 33.3867 35.2207 33.2109C35.4277 33.0352 35.6797 32.9004 35.9766 32.8066C36.2773 32.709 36.6191 32.6602 37.002 32.6602Z" fill="white"/>
</svg>
