<svg width="325" height="60" viewBox="0 0 325 60" fill="none" xmlns="http://www.w3.org/2000/svg">
<rect x="0.5" y="0.5" width="324" height="59" rx="19.5" stroke="white"/>
<path d="M80.3011 21.7812V36H78.4261V23.3242H71.4144V36H69.5297V21.7812H80.3011ZM85.2523 27.4648V40.0625H83.4359V25.4336H85.0961L85.2523 27.4648ZM92.3715 30.6289V30.834C92.3715 31.6022 92.2803 32.3151 92.098 32.9727C91.9157 33.6237 91.6488 34.1901 91.2972 34.6719C90.9522 35.1536 90.5258 35.528 90.0179 35.7949C89.5101 36.0618 88.9274 36.1953 88.2699 36.1953C87.5993 36.1953 87.0069 36.0846 86.4926 35.8633C85.9782 35.6419 85.542 35.3197 85.184 34.8965C84.8259 34.4733 84.5394 33.9655 84.3246 33.373C84.1163 32.7806 83.973 32.1133 83.8949 31.3711V30.2773C83.973 29.4961 84.1195 28.7962 84.3344 28.1777C84.5492 27.5592 84.8324 27.0319 85.184 26.5957C85.542 26.153 85.975 25.8177 86.4828 25.5898C86.9906 25.3555 87.5765 25.2383 88.2406 25.2383C88.9047 25.2383 89.4939 25.3685 90.0082 25.6289C90.5225 25.8828 90.9554 26.2474 91.307 26.7227C91.6586 27.1979 91.9222 27.7676 92.098 28.4316C92.2803 29.0892 92.3715 29.8216 92.3715 30.6289ZM90.5551 30.834V30.6289C90.5551 30.1016 90.4997 29.6068 90.389 29.1445C90.2784 28.6758 90.1058 28.2656 89.8715 27.9141C89.6436 27.556 89.3506 27.276 88.9926 27.0742C88.6345 26.8659 88.208 26.7617 87.7133 26.7617C87.2575 26.7617 86.8604 26.8398 86.5219 26.9961C86.1898 27.1523 85.9066 27.3639 85.6722 27.6309C85.4379 27.8913 85.2458 28.1908 85.0961 28.5293C84.9528 28.8613 84.8454 29.2064 84.7738 29.5645V32.0938C84.904 32.5495 85.0863 32.9792 85.3207 33.3828C85.5551 33.7799 85.8676 34.1022 86.2582 34.3496C86.6488 34.5905 87.1403 34.7109 87.7328 34.7109C88.2211 34.7109 88.641 34.61 88.9926 34.4082C89.3506 34.1999 89.6436 33.9167 89.8715 33.5586C90.1058 33.2005 90.2784 32.7904 90.389 32.3281C90.4997 31.8594 90.5551 31.3613 90.5551 30.834ZM96.6293 33.1387L101.502 25.4336H103.319V36H101.502V28.2949L96.6293 36H94.8324V25.4336H96.6293V33.1387ZM113.045 25.4336V26.9277H108.162V36H106.356V25.4336H113.045ZM121.287 25.4336V26.9277H116.18V25.4336H121.287ZM122.879 25.4336V36H121.073V25.4336H122.879ZM115.741 25.4336H117.557L117.284 30.5312C117.238 31.319 117.163 32.0156 117.059 32.6211C116.961 33.2201 116.825 33.7344 116.649 34.1641C116.48 34.5938 116.265 34.9453 116.004 35.2188C115.75 35.4857 115.444 35.6842 115.086 35.8145C114.728 35.9382 114.315 36 113.846 36H113.28V34.4082L113.67 34.3789C113.95 34.3594 114.188 34.2943 114.383 34.1836C114.585 34.0729 114.754 33.9102 114.891 33.6953C115.028 33.474 115.138 33.1908 115.223 32.8457C115.314 32.5007 115.383 32.0905 115.428 31.6152C115.48 31.14 115.519 30.5866 115.545 29.9551L115.741 25.4336ZM132.02 34.1934V28.7539C132.02 28.3372 131.935 27.9759 131.766 27.6699C131.603 27.3574 131.356 27.1165 131.024 26.9473C130.692 26.778 130.282 26.6934 129.793 26.6934C129.338 26.6934 128.937 26.7715 128.592 26.9277C128.254 27.084 127.987 27.2891 127.791 27.543C127.603 27.7969 127.508 28.0703 127.508 28.3633H125.702C125.702 27.9857 125.799 27.6113 125.995 27.2402C126.19 26.8691 126.47 26.5339 126.834 26.2344C127.205 25.9284 127.648 25.6875 128.162 25.5117C128.683 25.3294 129.263 25.2383 129.901 25.2383C130.669 25.2383 131.346 25.3685 131.932 25.6289C132.524 25.8893 132.987 26.2832 133.319 26.8105C133.657 27.3314 133.827 27.9857 133.827 28.7734V33.6953C133.827 34.0469 133.856 34.4212 133.914 34.8184C133.98 35.2155 134.074 35.5573 134.198 35.8438V36H132.313C132.222 35.7917 132.15 35.515 132.098 35.1699C132.046 34.8184 132.02 34.4928 132.02 34.1934ZM132.332 29.5938L132.352 30.8633H130.526C130.011 30.8633 129.552 30.9056 129.149 30.9902C128.745 31.0684 128.407 31.1888 128.133 31.3516C127.86 31.5143 127.651 31.7194 127.508 31.9668C127.365 32.2077 127.293 32.4909 127.293 32.8164C127.293 33.1484 127.368 33.4512 127.518 33.7246C127.668 33.998 127.892 34.2161 128.192 34.3789C128.498 34.5352 128.872 34.6133 129.315 34.6133C129.868 34.6133 130.356 34.4961 130.78 34.2617C131.203 34.0273 131.538 33.7409 131.786 33.4023C132.039 33.0638 132.176 32.735 132.196 32.416L132.967 33.2852C132.922 33.5586 132.798 33.8613 132.596 34.1934C132.394 34.5254 132.124 34.8444 131.786 35.1504C131.453 35.4499 131.056 35.7005 130.594 35.9023C130.138 36.0977 129.624 36.1953 129.051 36.1953C128.335 36.1953 127.707 36.0553 127.166 35.7754C126.633 35.4954 126.216 35.1211 125.916 34.6523C125.623 34.1771 125.477 33.6465 125.477 33.0605C125.477 32.4941 125.588 31.9961 125.809 31.5664C126.03 31.1302 126.349 30.7689 126.766 30.4824C127.183 30.1895 127.684 29.9681 128.27 29.8184C128.856 29.6686 129.51 29.5938 130.233 29.5938H132.332ZM140.897 34.7109C141.327 34.7109 141.724 34.623 142.088 34.4473C142.453 34.2715 142.752 34.0306 142.987 33.7246C143.221 33.4121 143.355 33.0573 143.387 32.6602H145.106C145.073 33.2852 144.862 33.8678 144.471 34.4082C144.087 34.9421 143.582 35.375 142.957 35.707C142.332 36.0326 141.646 36.1953 140.897 36.1953C140.103 36.1953 139.409 36.0553 138.817 35.7754C138.231 35.4954 137.743 35.1113 137.352 34.623C136.968 34.1348 136.678 33.5749 136.483 32.9434C136.294 32.3053 136.2 31.6315 136.2 30.9219V30.5117C136.2 29.8021 136.294 29.1315 136.483 28.5C136.678 27.862 136.968 27.2988 137.352 26.8105C137.743 26.3223 138.231 25.9382 138.817 25.6582C139.409 25.3783 140.103 25.2383 140.897 25.2383C141.724 25.2383 142.446 25.4076 143.065 25.7461C143.683 26.0781 144.168 26.5339 144.52 27.1133C144.878 27.6862 145.073 28.3372 145.106 29.0664H143.387C143.355 28.6302 143.231 28.2363 143.016 27.8848C142.808 27.5332 142.521 27.2533 142.157 27.0449C141.799 26.8301 141.379 26.7227 140.897 26.7227C140.343 26.7227 139.878 26.8333 139.5 27.0547C139.129 27.2695 138.833 27.5625 138.612 27.9336C138.397 28.2982 138.241 28.7051 138.143 29.1543C138.052 29.597 138.006 30.0495 138.006 30.5117V30.9219C138.006 31.3841 138.052 31.8398 138.143 32.2891C138.234 32.7383 138.387 33.1452 138.602 33.5098C138.823 33.8743 139.12 34.1673 139.491 34.3887C139.868 34.6035 140.337 34.7109 140.897 34.7109ZM149.09 33.1387L153.963 25.4336H155.78V36H153.963V28.2949L149.09 36H147.293V25.4336H149.09V33.1387ZM162.987 25.4336V36H161.17V25.4336H162.987ZM166.532 25.4336V26.8984H157.694V25.4336H166.532ZM169.793 29.0664H172.967C173.82 29.0664 174.539 29.2161 175.125 29.5156C175.711 29.8086 176.154 30.2155 176.453 30.7363C176.759 31.2507 176.912 31.8366 176.912 32.4941C176.912 32.9824 176.828 33.4414 176.659 33.8711C176.489 34.2943 176.235 34.6654 175.897 34.9844C175.565 35.3034 175.151 35.554 174.657 35.7363C174.168 35.9121 173.605 36 172.967 36H168.475V25.4336H170.282V34.5156H172.967C173.488 34.5156 173.905 34.4212 174.217 34.2324C174.53 34.0436 174.754 33.7995 174.891 33.5C175.028 33.2005 175.096 32.888 175.096 32.5625C175.096 32.2435 175.028 31.931 174.891 31.625C174.754 31.319 174.53 31.0651 174.217 30.8633C173.905 30.6549 173.488 30.5508 172.967 30.5508H169.793V29.0664ZM186.034 25.4336H187.84L187.684 29.3887C187.645 30.3913 187.531 31.2572 187.342 31.9863C187.153 32.7155 186.912 33.3372 186.62 33.8516C186.327 34.3594 185.998 34.7858 185.633 35.1309C185.275 35.4759 184.904 35.7656 184.52 36H183.621L183.67 34.5254L184.041 34.5156C184.256 34.2617 184.465 34.0013 184.666 33.7344C184.868 33.4609 185.054 33.1387 185.223 32.7676C185.392 32.39 185.532 31.931 185.643 31.3906C185.76 30.8438 185.835 30.1764 185.868 29.3887L186.034 25.4336ZM186.483 25.4336H192.84V36H191.034V27.1035H186.483V25.4336ZM183.211 34.5156H194.198V39.1152H192.391V36H185.018V39.1152H183.202L183.211 34.5156ZM198.006 27.4648V40.0625H196.19V25.4336H197.85L198.006 27.4648ZM205.125 30.6289V30.834C205.125 31.6022 205.034 32.3151 204.852 32.9727C204.67 33.6237 204.403 34.1901 204.051 34.6719C203.706 35.1536 203.28 35.528 202.772 35.7949C202.264 36.0618 201.681 36.1953 201.024 36.1953C200.353 36.1953 199.761 36.0846 199.246 35.8633C198.732 35.6419 198.296 35.3197 197.938 34.8965C197.58 34.4733 197.293 33.9655 197.078 33.373C196.87 32.7806 196.727 32.1133 196.649 31.3711V30.2773C196.727 29.4961 196.873 28.7962 197.088 28.1777C197.303 27.5592 197.586 27.0319 197.938 26.5957C198.296 26.153 198.729 25.8177 199.237 25.5898C199.745 25.3555 200.33 25.2383 200.995 25.2383C201.659 25.2383 202.248 25.3685 202.762 25.6289C203.276 25.8828 203.709 26.2474 204.061 26.7227C204.412 27.1979 204.676 27.7676 204.852 28.4316C205.034 29.0892 205.125 29.8216 205.125 30.6289ZM203.309 30.834V30.6289C203.309 30.1016 203.254 29.6068 203.143 29.1445C203.032 28.6758 202.86 28.2656 202.625 27.9141C202.398 27.556 202.105 27.276 201.746 27.0742C201.388 26.8659 200.962 26.7617 200.467 26.7617C200.011 26.7617 199.614 26.8398 199.276 26.9961C198.944 27.1523 198.661 27.3639 198.426 27.6309C198.192 27.8913 198 28.1908 197.85 28.5293C197.707 28.8613 197.599 29.2064 197.528 29.5645V32.0938C197.658 32.5495 197.84 32.9792 198.075 33.3828C198.309 33.7799 198.621 34.1022 199.012 34.3496C199.403 34.5905 199.894 34.7109 200.487 34.7109C200.975 34.7109 201.395 34.61 201.746 34.4082C202.105 34.1999 202.398 33.9167 202.625 33.5586C202.86 33.2005 203.032 32.7904 203.143 32.3281C203.254 31.8594 203.309 31.3613 203.309 30.834ZM210.282 34.9062L213.221 25.4336H215.155L210.916 37.6309C210.819 37.8913 210.689 38.1712 210.526 38.4707C210.37 38.7767 210.168 39.0664 209.92 39.3398C209.673 39.6133 209.373 39.8346 209.022 40.0039C208.677 40.1797 208.263 40.2676 207.782 40.2676C207.638 40.2676 207.456 40.248 207.235 40.209C207.013 40.1699 206.857 40.1374 206.766 40.1113L206.756 38.6465C206.808 38.653 206.89 38.6595 207 38.666C207.118 38.679 207.199 38.6855 207.245 38.6855C207.655 38.6855 208.003 38.6302 208.289 38.5195C208.576 38.4154 208.817 38.2363 209.012 37.9824C209.214 37.735 209.386 37.3932 209.53 36.957L210.282 34.9062ZM208.123 25.4336L210.868 33.6367L211.336 35.541L210.037 36.2051L206.151 25.4336H208.123ZM223.612 25.4336V26.9277H218.729V36H216.922V25.4336H223.612ZM231.414 34.1934V28.7539C231.414 28.3372 231.33 27.9759 231.161 27.6699C230.998 27.3574 230.75 27.1165 230.418 26.9473C230.086 26.778 229.676 26.6934 229.188 26.6934C228.732 26.6934 228.332 26.7715 227.987 26.9277C227.648 27.084 227.381 27.2891 227.186 27.543C226.997 27.7969 226.903 28.0703 226.903 28.3633H225.096C225.096 27.9857 225.194 27.6113 225.389 27.2402C225.584 26.8691 225.864 26.5339 226.229 26.2344C226.6 25.9284 227.043 25.6875 227.557 25.5117C228.078 25.3294 228.657 25.2383 229.295 25.2383C230.064 25.2383 230.741 25.3685 231.327 25.6289C231.919 25.8893 232.381 26.2832 232.713 26.8105C233.052 27.3314 233.221 27.9857 233.221 28.7734V33.6953C233.221 34.0469 233.25 34.4212 233.309 34.8184C233.374 35.2155 233.468 35.5573 233.592 35.8438V36H231.707C231.616 35.7917 231.545 35.515 231.493 35.1699C231.44 34.8184 231.414 34.4928 231.414 34.1934ZM231.727 29.5938L231.746 30.8633H229.92C229.406 30.8633 228.947 30.9056 228.543 30.9902C228.14 31.0684 227.801 31.1888 227.528 31.3516C227.254 31.5143 227.046 31.7194 226.903 31.9668C226.759 32.2077 226.688 32.4909 226.688 32.8164C226.688 33.1484 226.763 33.4512 226.912 33.7246C227.062 33.998 227.287 34.2161 227.586 34.3789C227.892 34.5352 228.267 34.6133 228.709 34.6133C229.263 34.6133 229.751 34.4961 230.174 34.2617C230.597 34.0273 230.933 33.7409 231.18 33.4023C231.434 33.0638 231.571 32.735 231.59 32.416L232.362 33.2852C232.316 33.5586 232.192 33.8613 231.991 34.1934C231.789 34.5254 231.519 34.8444 231.18 35.1504C230.848 35.4499 230.451 35.7005 229.989 35.9023C229.533 36.0977 229.019 36.1953 228.446 36.1953C227.73 36.1953 227.101 36.0553 226.561 35.7754C226.027 35.4954 225.61 35.1211 225.311 34.6523C225.018 34.1771 224.871 33.6465 224.871 33.0605C224.871 32.4941 224.982 31.9961 225.203 31.5664C225.425 31.1302 225.744 30.7689 226.161 30.4824C226.577 30.1895 227.078 29.9681 227.664 29.8184C228.25 29.6686 228.905 29.5938 229.627 29.5938H231.727Z" fill="white"/>
</svg>
