<svg width="48" height="24" viewBox="0 0 48 24" fill="none" xmlns="http://www.w3.org/2000/svg">
<path d="M30 10L27 13L28 18L24 15L20 18L21 13L18 10H22L24 6L26 10H30Z" fill="#FFCE54"/>
<path d="M47 17.91V22C47 22.2652 46.8946 22.5196 46.7071 22.7071C46.5196 22.8946 46.2652 23 46 23H2C1.73478 23 1.48043 22.8946 1.29289 22.7071C1.10536 22.5196 1 22.2652 1 22V17.91C1.00207 17.6723 1.08876 17.4431 1.24453 17.2635C1.4003 17.0839 1.61495 16.9657 1.85 16.93C3.01499 16.733 4.07257 16.1298 4.83522 15.2273C5.59786 14.3249 6.01627 13.1815 6.01627 12C6.01627 10.8185 5.59786 9.67511 4.83522 8.77267C4.07257 7.87023 3.01499 7.26701 1.85 7.07C1.61495 7.03435 1.4003 6.91613 1.24453 6.73653C1.08876 6.55694 1.00207 6.32773 1 6.09V2C1 1.73478 1.10536 1.48043 1.29289 1.29289C1.48043 1.10536 1.73478 1 2 1H46C46.2652 1 46.5196 1.10536 46.7071 1.29289C46.8946 1.48043 47 1.73478 47 2V6.09C46.9979 6.32773 46.9112 6.55694 46.7555 6.73653C46.5997 6.91613 46.385 7.03435 46.15 7.07C44.985 7.26701 43.9274 7.87023 43.1648 8.77267C42.4021 9.67511 41.9837 10.8185 41.9837 12C41.9837 13.1815 42.4021 14.3249 43.1648 15.2273C43.9274 16.1298 44.985 16.733 46.15 16.93C46.385 16.9657 46.5997 17.0839 46.7555 17.2635C46.9112 17.4431 46.9979 17.6723 47 17.91ZM27 13L30 10H26L24 6L22 10H18L21 13L20 18L24 15L28 18L27 13Z" fill="#B785FF"/>
<path d="M30 10L27 13L28 18L24 15L20 18L21 13L18 10H22L24 6L26 10H30Z" fill="#FEA740"/>
<path d="M22 10H18L24 12L22 10Z" fill="#FFCE54"/>
<path d="M26 10L24 6V12L26 10Z" fill="#FFCE54"/>
<path d="M24 6L22 10L24 12V6Z" fill="#FFB844"/>
<path d="M30 10H26L24 12L30 10Z" fill="#FFB844"/>
<path d="M27 13L30 10L24 12L27 13Z" fill="#FF942C"/>
<path d="M21 13L20 18L24 12L21 13Z" fill="#FE792C"/>
<path d="M24 15L28 18L24 12V15Z" fill="#FF942C"/>
<path d="M24 12L28 18L27 13L24 12Z" fill="#FFB844"/>
<path d="M20 18L24 15V12L20 18Z" fill="#FEA740"/>
<path d="M18 10L21 13L24 12L18 10Z" fill="#FF942C"/>
<path d="M46.15 7.07C46.385 7.03435 46.5997 6.91613 46.7555 6.73653C46.9112 6.55694 46.9979 6.32773 47 6.09V2C47 1.73478 46.8946 1.48043 46.7071 1.29289C46.5196 1.10536 46.2652 1 46 1H2C1.73478 1 1.48043 1.10536 1.29289 1.29289C1.10536 1.48043 1 1.73478 1 2V6.09C1.00207 6.32773 1.08876 6.55694 1.24453 6.73653C1.4003 6.91613 1.61495 7.03435 1.85 7.07C3.01499 7.26701 4.07257 7.87023 4.83522 8.77267C5.59786 9.67511 6.01627 10.8185 6.01627 12C6.01627 13.1815 5.59786 14.3249 4.83522 15.2273C4.07257 16.1298 3.01499 16.733 1.85 16.93C1.61495 16.9657 1.4003 17.0839 1.24453 17.2635C1.08876 17.4431 1.00207 17.6723 1 17.91V22C1 22.2652 1.10536 22.5196 1.29289 22.7071C1.48043 22.8946 1.73478 23 2 23H46C46.2652 23 46.5196 22.8946 46.7071 22.7071C46.8946 22.5196 47 22.2652 47 22V17.91C46.9979 17.6723 46.9112 17.4431 46.7555 17.2635C46.5997 17.0839 46.385 16.9657 46.15 16.93C44.985 16.733 43.9274 16.1298 43.1648 15.2273C42.4021 14.3249 41.9837 13.1815 41.9837 12C41.9837 10.8185 42.4021 9.67511 43.1648 8.77267C43.9274 7.87023 44.985 7.26701 46.15 7.07ZM40.5 12C40.4986 13.4636 40.9917 14.8848 41.8992 16.033C42.8068 17.1813 44.0756 17.9893 45.5 18.326V21.5H2.5V18.327C3.92545 17.9909 5.19561 17.1832 6.10462 16.0349C7.01364 14.8867 7.50822 13.465 7.50822 12.0005C7.50822 10.536 7.01364 9.11434 6.10462 7.96606C5.19561 6.81777 3.92545 6.01012 2.5 5.674V2.5H45.5V5.673C44.0753 6.00943 42.8061 6.81749 41.8985 7.96602C40.9909 9.11455 40.498 10.5361 40.5 12Z" fill="#FFDF64"/>
<path d="M45.5 18.326V21.5H2.5V18.327C3.92469 17.9906 5.19387 17.1825 6.10151 16.034C7.00915 14.8855 7.50198 13.4639 7.5 12H6C5.99998 12.3019 5.97254 12.6031 5.918 12.9C5.81314 13.4761 5.60695 14.029 5.309 14.533C4.8692 15.2794 4.24399 15.8994 3.494 16.333C2.98553 16.6281 2.42901 16.8312 1.85 16.933C1.61495 16.9686 1.4003 17.0869 1.24453 17.2665C1.08876 17.4461 1.00207 17.6753 1 17.913V22C1 22.2652 1.10536 22.5196 1.29289 22.7071C1.48043 22.8946 1.73478 23 2 23H46C46.2652 23 46.5196 22.8946 46.7071 22.7071C46.8946 22.5196 47 22.2652 47 22V17.91C46.9979 17.6723 46.9112 17.4431 46.7555 17.2635C46.5997 17.0839 46.385 16.9657 46.15 16.93C44.988 16.7295 43.9342 16.1248 43.1748 15.2227C42.4155 14.3206 41.9993 13.1792 42 12H40.5C40.4986 13.4636 40.9917 14.8848 41.8992 16.033C42.8068 17.1813 44.0756 17.9893 45.5 18.326Z" fill="#FFCE54"/>
<path d="M40.5 12H28L27 13L28 18L24 15L20 18L21 13L20 12H7.5C7.50198 13.4639 7.00915 14.8855 6.10151 16.034C5.19387 17.1825 3.92469 17.9906 2.5 18.327V21.5H45.5V18.326C44.0756 17.9893 42.8068 17.1813 41.8992 16.033C40.9917 14.8848 40.4986 13.4636 40.5 12Z" fill="#A672F1"/>
<path d="M39.3015 8.31103C39.9426 7.66957 39.7382 6.4261 38.8452 5.53368C37.9521 4.64125 36.7085 4.43781 36.0675 5.07927C35.4265 5.72074 35.6308 6.9642 36.5239 7.85663C37.4169 8.74905 38.6605 8.9525 39.3015 8.31103Z" fill="#F6FAFD"/>
<path d="M33.4937 6.51914C33.8158 6.19684 33.7133 5.57226 33.2649 5.12409C32.8164 4.67593 32.1917 4.57389 31.8697 4.89619C31.5476 5.21848 31.6501 5.84306 32.0985 6.29123C32.547 6.73939 33.1717 6.84143 33.4937 6.51914Z" fill="#F6FAFD"/>
<path d="M30.924 9.617C30.8483 9.43431 30.7201 9.27819 30.5556 9.16837C30.3911 9.05854 30.1978 8.99995 30 9H26.618L24.9 5.553C24.8076 5.39802 24.6766 5.2697 24.5197 5.18058C24.3628 5.09146 24.1855 5.04461 24.005 5.04461C23.8246 5.04461 23.6473 5.09146 23.4904 5.18058C23.3335 5.2697 23.2024 5.39802 23.11 5.553L21.382 9H18C17.8023 9.00004 17.609 9.05871 17.4446 9.1686C17.2802 9.27848 17.152 9.43464 17.0764 9.61734C17.0007 9.80004 16.9809 10.0011 17.0194 10.195C17.058 10.389 17.1532 10.5671 17.293 10.707L19.914 13.329L19.02 17.8C18.9794 17.9988 19.0002 18.2052 19.0797 18.3919C19.1592 18.5786 19.2936 18.7367 19.465 18.8452C19.6364 18.9537 19.8368 19.0075 20.0395 18.9994C20.2423 18.9913 20.4378 18.9218 20.6 18.8L24 16.25L27.4 18.8C27.5623 18.9218 27.7578 18.9913 27.9605 18.9994C28.1632 19.0075 28.3636 18.9537 28.5351 18.8452C28.7065 18.7367 28.8409 18.5786 28.9204 18.3919C28.9998 18.2052 29.0206 17.9988 28.98 17.8L28.086 13.325L30.707 10.703C30.8462 10.5635 30.941 10.386 30.9796 10.1928C31.0182 9.99957 30.9989 9.79926 30.924 9.617ZM26.293 12.293C26.1772 12.4091 26.0917 12.552 26.0441 12.7089C25.9965 12.8659 25.9882 13.0321 26.02 13.193L26.506 15.626L24.6 14.2C24.4269 14.0702 24.2164 14 24 14C23.7837 14 23.5731 14.0702 23.4 14.2L21.494 15.629L21.98 13.2C22.0118 13.0391 22.0035 12.8729 21.9559 12.7159C21.9083 12.559 21.8229 12.4161 21.707 12.3L20.414 11H22C22.1859 11.0001 22.368 10.9484 22.5261 10.8507C22.6842 10.753 22.812 10.6132 22.895 10.447L24 8.236L25.105 10.447C25.1881 10.6132 25.3158 10.753 25.4739 10.8507C25.632 10.9484 25.8142 11.0001 26 11H27.586L26.293 12.293Z" fill="black"/>
<path d="M8 0H6V2H8V0Z" fill="black"/>
<path d="M46.318 8.058C46.7863 7.98258 47.2126 7.74316 47.5207 7.38248C47.8288 7.0218 47.9987 6.56336 48 6.089V2C48 1.46957 47.7893 0.96086 47.4142 0.585787C47.0391 0.210714 46.5304 0 46 0H10V2H46L45.98 6.086C44.5868 6.329 43.3241 7.05634 42.415 8.13966C41.5058 9.22299 41.0085 10.5926 41.0109 12.0069C41.0133 13.4212 41.5152 14.7892 42.428 15.8694C43.3409 16.9496 44.6059 17.6727 46 17.911V22H42V24H46C46.5304 24 47.0391 23.7893 47.4142 23.4142C47.7893 23.0391 48 22.5304 48 22V17.911C47.9987 17.4366 47.8288 16.9782 47.5207 16.6175C47.2126 16.2568 46.7863 16.0174 46.318 15.942C45.3885 15.782 44.5454 15.2986 43.9377 14.5773C43.33 13.856 42.9967 12.9432 42.9967 12C42.9967 11.0568 43.33 10.144 43.9377 9.42268C44.5454 8.70138 45.3885 8.21803 46.318 8.058Z" fill="black"/>
<path d="M2.02 17.914C3.41325 17.671 4.67587 16.9437 5.58504 15.8603C6.49421 14.777 6.99148 13.4074 6.98909 11.9931C6.9867 10.5788 6.4848 9.21083 5.57197 8.13059C4.65914 7.05035 3.39406 6.32728 2 6.089V2H4V0H2C1.46957 0 0.960859 0.210714 0.585786 0.585787C0.210714 0.96086 0 1.46957 0 2L0 6.089C0.00131834 6.56336 0.171196 7.0218 0.479301 7.38248C0.787405 7.74316 1.21368 7.98258 1.682 8.058C2.61151 8.21803 3.45456 8.70138 4.06229 9.42268C4.67001 10.144 5.0033 11.0568 5.0033 12C5.0033 12.9432 4.67001 13.856 4.06229 14.5773C3.45456 15.2986 2.61151 15.782 1.682 15.942C1.21368 16.0174 0.787405 16.2568 0.479301 16.6175C0.171196 16.9782 0.00131834 17.4366 0 17.911L0 22C0 22.5304 0.210714 23.0391 0.585786 23.4142C0.960859 23.7893 1.46957 24 2 24H40V22H2L2.02 17.914Z" fill="black"/>
</svg>
