<svg width="48" height="48" viewBox="0 0 48 48" fill="none" xmlns="http://www.w3.org/2000/svg">
<g clip-path="url(#clip0_367_643)">
<path d="M30 34L27 37L28 42L24 39L20 42L21 37L18 34H22L24 30L26 34H30Z" fill="#FFCE54"/>
<path d="M47 41.91V46C47 46.2652 46.8946 46.5196 46.7071 46.7071C46.5196 46.8946 46.2652 47 46 47H2C1.73478 47 1.48043 46.8946 1.29289 46.7071C1.10536 46.5196 1 46.2652 1 46V41.91C1.00207 41.6723 1.08876 41.4431 1.24453 41.2635C1.4003 41.0839 1.61495 40.9657 1.85 40.93C3.01499 40.733 4.07257 40.1298 4.83522 39.2273C5.59786 38.3249 6.01627 37.1815 6.01627 36C6.01627 34.8185 5.59786 33.6751 4.83522 32.7727C4.07257 31.8702 3.01499 31.267 1.85 31.07C1.61495 31.0343 1.4003 30.9161 1.24453 30.7365C1.08876 30.5569 1.00207 30.3277 1 30.09V26C1 25.7348 1.10536 25.4804 1.29289 25.2929C1.48043 25.1054 1.73478 25 2 25H46C46.2652 25 46.5196 25.1054 46.7071 25.2929C46.8946 25.4804 47 25.7348 47 26V30.09C46.9979 30.3277 46.9112 30.5569 46.7555 30.7365C46.5997 30.9161 46.385 31.0343 46.15 31.07C44.985 31.267 43.9274 31.8702 43.1648 32.7727C42.4021 33.6751 41.9837 34.8185 41.9837 36C41.9837 37.1815 42.4021 38.3249 43.1648 39.2273C43.9274 40.1298 44.985 40.733 46.15 40.93C46.385 40.9657 46.5997 41.0839 46.7555 41.2635C46.9112 41.4431 46.9979 41.6723 47 41.91ZM27 37L30 34H26L24 30L22 34H18L21 37L20 42L24 39L28 42L27 37Z" fill="#B785FF"/>
<path d="M30 21L27.09 17.85L28.49 14.04L24.99 15.65L22 13V17L18 19L22 20L23.01 25L25.28 20.79L30 21Z" fill="#FFB844"/>
<path d="M22 20L18 19L22 17V13L24.99 15.65L28.49 14.04L27.09 17.85L30 21L25.28 20.79L23.01 25H35.132L46.47 19.62C46.5799 19.5684 46.6785 19.4956 46.7602 19.4058C46.8418 19.3159 46.9049 19.2108 46.9458 19.0965C46.9867 18.9822 47.0046 18.8609 46.9984 18.7397C46.9923 18.6184 46.9622 18.4996 46.91 18.39L45.33 14.94C45.2383 14.7427 45.0789 14.5848 44.8808 14.4949C44.6826 14.405 44.4589 14.3891 44.25 14.45C43.2056 14.7336 42.0944 14.6357 41.1157 14.1739C40.137 13.712 39.355 12.9165 38.91 11.93C38.4546 10.9387 38.3582 9.8199 38.6374 8.76534C38.9165 7.71078 39.5538 6.78617 40.44 6.15C40.6218 6.02298 40.754 5.83692 40.8142 5.62345C40.8743 5.40998 40.8587 5.18226 40.77 4.979L39.19 1.539C39.1409 1.42813 39.07 1.32825 38.9816 1.24527C38.8931 1.1623 38.7889 1.09792 38.6752 1.05595C38.5614 1.01399 38.4404 0.995291 38.3192 1.00097C38.1981 1.00664 38.0793 1.03658 37.97 1.089L1.52999 18.38C1.42009 18.4316 1.32148 18.5044 1.23982 18.5942C1.15816 18.6841 1.09507 18.7892 1.05418 18.9035C1.01329 19.0178 0.995402 19.1391 1.00155 19.2603C1.00769 19.3816 1.03775 19.5004 1.08999 19.61L2.66999 23.06C2.7617 23.2573 2.92107 23.4152 3.1192 23.5051C3.31734 23.595 3.54112 23.6109 3.74999 23.55C4.58094 23.3258 5.45858 23.3431 6.28003 23.5999C7.10148 23.8568 7.83271 24.3424 8.38799 25H23.01L22 20Z" fill="#A672F1"/>
<path d="M30 34L27 37L28 42L24 39L20 42L21 37L18 34H22L24 30L26 34H30Z" fill="#FEA740"/>
<path d="M22 34H18L24 36L22 34Z" fill="#FFCE54"/>
<path d="M26 34L24 30V36L26 34Z" fill="#FFCE54"/>
<path d="M24 30L22 34L24 36V30Z" fill="#FFB844"/>
<path d="M30 34H26L24 36L30 34Z" fill="#FFB844"/>
<path d="M27 37L30 34L24 36L27 37Z" fill="#FF942C"/>
<path d="M21 37L20 42L24 36L21 37Z" fill="#FE792C"/>
<path d="M24 39L28 42L24 36V39Z" fill="#FF942C"/>
<path d="M24 36L28 42L27 37L24 36Z" fill="#FFB844"/>
<path d="M20 42L24 39V36L20 42Z" fill="#FEA740"/>
<path d="M18 34L21 37L24 36L18 34Z" fill="#FF942C"/>
<path d="M46.15 31.07C46.385 31.0343 46.5997 30.9161 46.7555 30.7365C46.9112 30.5569 46.9979 30.3277 47 30.09V26C47 25.7348 46.8946 25.4804 46.7071 25.2929C46.5196 25.1054 46.2652 25 46 25H2C1.73478 25 1.48043 25.1054 1.29289 25.2929C1.10536 25.4804 1 25.7348 1 26V30.09C1.00207 30.3277 1.08876 30.5569 1.24453 30.7365C1.4003 30.9161 1.61495 31.0343 1.85 31.07C3.01499 31.267 4.07257 31.8702 4.83522 32.7727C5.59786 33.6751 6.01627 34.8185 6.01627 36C6.01627 37.1815 5.59786 38.3249 4.83522 39.2273C4.07257 40.1298 3.01499 40.733 1.85 40.93C1.61495 40.9657 1.4003 41.0839 1.24453 41.2635C1.08876 41.4431 1.00207 41.6723 1 41.91V46C1 46.2652 1.10536 46.5196 1.29289 46.7071C1.48043 46.8946 1.73478 47 2 47H46C46.2652 47 46.5196 46.8946 46.7071 46.7071C46.8946 46.5196 47 46.2652 47 46V41.91C46.9979 41.6723 46.9112 41.4431 46.7555 41.2635C46.5997 41.0839 46.385 40.9657 46.15 40.93C44.985 40.733 43.9274 40.1298 43.1648 39.2273C42.4021 38.3249 41.9837 37.1815 41.9837 36C41.9837 34.8185 42.4021 33.6751 43.1648 32.7727C43.9274 31.8702 44.985 31.267 46.15 31.07ZM40.5 36C40.4986 37.4636 40.9917 38.8848 41.8992 40.033C42.8068 41.1813 44.0756 41.9893 45.5 42.326V45.5H2.5V42.327C3.92545 41.9909 5.19561 41.1832 6.10462 40.0349C7.01364 38.8867 7.50822 37.465 7.50822 36.0005C7.50822 34.536 7.01364 33.1143 6.10462 31.9661C5.19561 30.8178 3.92545 30.0101 2.5 29.674V26.5H45.5V29.673C44.0753 30.0094 42.8061 30.8175 41.8985 31.966C40.9909 33.1145 40.498 34.5361 40.5 36Z" fill="#FFDF64"/>
<path d="M45.5 42.326V45.5H2.5V42.327C3.92469 41.9906 5.19387 41.1825 6.10151 40.034C7.00915 38.8855 7.50198 37.4639 7.5 36H6C5.99998 36.3019 5.97254 36.6031 5.918 36.9C5.81314 37.4761 5.60695 38.029 5.309 38.533C4.8692 39.2794 4.24399 39.8994 3.494 40.333C2.98553 40.6281 2.42901 40.8312 1.85 40.933C1.61495 40.9686 1.4003 41.0869 1.24453 41.2665C1.08876 41.4461 1.00207 41.6753 1 41.913V46C1 46.2652 1.10536 46.5196 1.29289 46.7071C1.48043 46.8946 1.73478 47 2 47H46C46.2652 47 46.5196 46.8946 46.7071 46.7071C46.8946 46.5196 47 46.2652 47 46V41.91C46.9979 41.6723 46.9112 41.4431 46.7555 41.2635C46.5997 41.0839 46.385 40.9657 46.15 40.93C44.988 40.7295 43.9342 40.1248 43.1748 39.2227C42.4155 38.3206 41.9993 37.1792 42 36H40.5C40.4986 37.4636 40.9917 38.8848 41.8992 40.033C42.8068 41.1813 44.0756 41.9893 45.5 42.326Z" fill="#FFCE54"/>
<path d="M40.5 36H28L27 37L28 42L24 39L20 42L21 37L20 36H7.5C7.50198 37.4639 7.00915 38.8855 6.10151 40.034C5.19387 41.1825 3.92469 41.9906 2.5 42.327V45.5H45.5V42.326C44.0756 41.9893 42.8068 41.1813 41.8992 40.033C40.9917 38.8848 40.4986 37.4636 40.5 36Z" fill="#A672F1"/>
<path d="M3.83099 21.992L2.68599 19.492L38.073 2.7L39.219 5.2C38.1679 6.07015 37.4339 7.26338 37.1313 8.59398C36.8287 9.92457 36.9745 11.3179 37.546 12.557C38.1014 13.7931 39.0569 14.8061 40.2584 15.4327C41.4599 16.0594 42.8375 16.2631 44.169 16.011L45.314 18.511L31.632 25H35.132L46.47 19.62C46.5799 19.5684 46.6785 19.4956 46.7602 19.4058C46.8418 19.3159 46.9049 19.2108 46.9458 19.0965C46.9867 18.9822 47.0046 18.8609 46.9984 18.7397C46.9923 18.6184 46.9622 18.4996 46.91 18.39L45.33 14.94C45.2383 14.7427 45.0789 14.5848 44.8808 14.4949C44.6826 14.405 44.4589 14.3891 44.25 14.45C43.2056 14.7336 42.0944 14.6357 41.1157 14.1739C40.137 13.712 39.355 12.9165 38.91 11.93C38.4546 10.9387 38.3582 9.8199 38.6374 8.76534C38.9165 7.71078 39.5538 6.78617 40.44 6.15C40.6218 6.02298 40.754 5.83692 40.8142 5.62345C40.8743 5.40998 40.8587 5.18226 40.77 4.979L39.19 1.539C39.1409 1.42813 39.07 1.32825 38.9816 1.24527C38.8931 1.1623 38.7889 1.09792 38.6752 1.05595C38.5614 1.01399 38.4404 0.995291 38.3192 1.00097C38.1981 1.00664 38.0793 1.03658 37.97 1.089L1.52999 18.38C1.42009 18.4316 1.32148 18.5044 1.23982 18.5942C1.15816 18.6841 1.09507 18.7892 1.05418 18.9035C1.01329 19.0178 0.995402 19.1391 1.00155 19.2603C1.00769 19.3816 1.03775 19.5004 1.08999 19.61L2.66999 23.06C2.7617 23.2573 2.92107 23.4152 3.1192 23.5051C3.31734 23.595 3.54112 23.6109 3.74999 23.55C4.58094 23.3258 5.45858 23.3431 6.28003 23.5999C7.10148 23.8568 7.83271 24.3424 8.38799 25H10.2C9.58974 23.8924 8.6457 23.0055 7.50222 22.4654C6.35874 21.9254 5.07406 21.7597 3.83099 21.992Z" fill="#FFCE54"/>
<path d="M45.33 14.94C45.2382 14.7427 45.0789 14.5848 44.8807 14.4949C44.6826 14.405 44.4588 14.3891 44.25 14.45C43.2559 14.718 42.2003 14.6398 41.2566 14.2284C40.3128 13.8169 39.5371 13.0967 39.057 12.186L37.697 12.823C38.2863 13.9823 39.2356 14.9193 40.4025 15.4935C41.5693 16.0677 42.8909 16.2483 44.169 16.008L45.314 18.508L31.632 25H35.132L46.47 19.62C46.5799 19.5684 46.6785 19.4956 46.7601 19.4058C46.8418 19.3159 46.9049 19.2108 46.9458 19.0965C46.9867 18.9822 47.0045 18.8609 46.9984 18.7397C46.9923 18.6184 46.9622 18.4996 46.91 18.39L45.33 14.94Z" fill="#FEA740"/>
<path d="M30 21L27.09 17.85L27.118 17.775L22.031 20.156L23.01 25L25.28 20.79L30 21Z" fill="#FEA740"/>
<path d="M44.169 16.008C42.8914 16.2476 41.5705 16.0667 40.4042 15.4925C39.238 14.9183 38.2892 13.9817 37.7 12.823L28.4 17.173L27.114 17.773L27.086 17.848L30 21L25.28 20.79L23.01 25H31.632L45.314 18.508L44.169 16.008Z" fill="#8B69FF"/>
<path d="M20.802 20.731L11.682 25H21.989H23.01L22.031 20.156L20.802 20.731Z" fill="#8B69FF"/>
<path d="M39.3015 32.311C39.9426 31.6696 39.7382 30.4261 38.8452 29.5337C37.9521 28.6413 36.7085 28.4378 36.0675 29.0793C35.4265 29.7207 35.6308 30.9642 36.5239 31.8566C37.4169 32.7491 38.6605 32.9525 39.3015 32.311Z" fill="#F6FAFD"/>
<path d="M33.4936 30.5191C33.8157 30.1968 33.7132 29.5723 33.2647 29.1241C32.8163 28.6759 32.1916 28.5739 31.8695 28.8962C31.5475 29.2185 31.6499 29.8431 32.0984 30.2912C32.5469 30.7394 33.1716 30.8414 33.4936 30.5191Z" fill="#F6FAFD"/>
<path d="M34.4937 8.51887C34.8158 8.19657 34.7133 7.57199 34.2649 7.12383C33.8164 6.67566 33.1917 6.57362 32.8697 6.89592C32.5476 7.21821 32.6501 7.8428 33.0985 8.29096C33.547 8.73913 34.1717 8.84116 34.4937 8.51887Z" fill="#F6FAFD"/>
<path d="M31.8327 9.6135C31.994 9.45216 31.9429 9.13971 31.7186 8.91563C31.4944 8.69155 31.1819 8.64068 31.0207 8.80203C30.8595 8.96337 30.9105 9.27582 31.1348 9.4999C31.359 9.72399 31.6715 9.77485 31.8327 9.6135Z" fill="#F6FAFD"/>
<path d="M30.924 33.617C30.8483 33.4343 30.7201 33.2782 30.5556 33.1684C30.3911 33.0585 30.1978 33 30 33H26.618L24.9 29.553C24.8076 29.398 24.6766 29.2697 24.5197 29.1806C24.3628 29.0915 24.1855 29.0446 24.005 29.0446C23.8246 29.0446 23.6473 29.0915 23.4904 29.1806C23.3335 29.2697 23.2024 29.398 23.11 29.553L21.382 33H18C17.8023 33 17.609 33.0587 17.4446 33.1686C17.2802 33.2785 17.152 33.4346 17.0764 33.6173C17.0007 33.8 16.9809 34.0011 17.0194 34.195C17.058 34.389 17.1532 34.5671 17.293 34.707L19.914 37.329L19.02 41.8C18.9794 41.9988 19.0002 42.2052 19.0797 42.3919C19.1592 42.5786 19.2936 42.7367 19.465 42.8452C19.6364 42.9537 19.8368 43.0075 20.0395 42.9994C20.2423 42.9913 20.4378 42.9218 20.6 42.8L24 40.25L27.4 42.8C27.5623 42.9218 27.7578 42.9913 27.9605 42.9994C28.1632 43.0075 28.3636 42.9537 28.5351 42.8452C28.7065 42.7367 28.8409 42.5786 28.9204 42.3919C28.9998 42.2052 29.0206 41.9988 28.98 41.8L28.086 37.325L30.707 34.703C30.8462 34.5635 30.941 34.386 30.9796 34.1928C31.0182 33.9996 30.9989 33.7993 30.924 33.617ZM26.293 36.293C26.1772 36.4091 26.0917 36.552 26.0441 36.7089C25.9965 36.8659 25.9882 37.0321 26.02 37.193L26.506 39.626L24.6 38.2C24.4269 38.0702 24.2164 38 24 38C23.7837 38 23.5731 38.0702 23.4 38.2L21.494 39.629L21.98 37.2C22.0118 37.0391 22.0035 36.8729 21.9559 36.7159C21.9083 36.559 21.8229 36.4161 21.707 36.3L20.414 35H22C22.1859 35.0001 22.368 34.9484 22.5261 34.8507C22.6842 34.753 22.812 34.6132 22.895 34.447L24 32.236L25.105 34.447C25.1881 34.6132 25.3158 34.753 25.4739 34.8507C25.632 34.9484 25.8142 35.0001 26 35H27.586L26.293 36.293Z" fill="black"/>
<path d="M8 24H6V26H8V24Z" fill="black"/>
<path d="M46.318 32.058C46.7863 31.9826 47.2126 31.7432 47.5207 31.3825C47.8288 31.0218 47.9987 30.5634 48 30.089V26C48 25.4696 47.7893 24.9609 47.4142 24.5858C47.0391 24.2107 46.5304 24 46 24H10V26H46L45.98 30.086C44.5868 30.329 43.3241 31.0563 42.415 32.1397C41.5058 33.223 41.0085 34.5926 41.0109 36.0069C41.0133 37.4212 41.5152 38.7892 42.428 39.8694C43.3409 40.9496 44.6059 41.6727 46 41.911V46H42V48H46C46.5304 48 47.0391 47.7893 47.4142 47.4142C47.7893 47.0391 48 46.5304 48 46V41.911C47.9987 41.4366 47.8288 40.9782 47.5207 40.6175C47.2126 40.2568 46.7863 40.0174 46.318 39.942C45.3885 39.782 44.5454 39.2986 43.9377 38.5773C43.33 37.856 42.9967 36.9432 42.9967 36C42.9967 35.0568 43.33 34.144 43.9377 33.4227C44.5454 32.7014 45.3885 32.218 46.318 32.058Z" fill="black"/>
<path d="M2.02 41.914C3.41325 41.671 4.67587 40.9437 5.58504 39.8603C6.49421 38.777 6.99148 37.4074 6.98909 35.9931C6.9867 34.5788 6.4848 33.2108 5.57197 32.1306C4.65914 31.0504 3.39406 30.3273 2 30.089V26H4V24H2C1.46957 24 0.960859 24.2107 0.585786 24.5858C0.210714 24.9609 0 25.4696 0 26L0 30.089C0.00131834 30.5634 0.171196 31.0218 0.479301 31.3825C0.787405 31.7432 1.21368 31.9826 1.682 32.058C2.61151 32.218 3.45456 32.7014 4.06229 33.4227C4.67001 34.144 5.0033 35.0568 5.0033 36C5.0033 36.9432 4.67001 37.856 4.06229 38.5773C3.45456 39.2986 2.61151 39.782 1.682 39.942C1.21368 40.0174 0.787405 40.2568 0.479301 40.6175C0.171196 40.9782 0.00131834 41.4366 0 41.911L0 46C0 46.5304 0.210714 47.0391 0.585786 47.4142C0.960859 47.7893 1.46957 48 2 48H40V46H2L2.02 41.914Z" fill="black"/>
<path d="M1.72897 23.413L3.54697 22.58L1.95697 19.28L32.429 4.824L31.571 3.018L1.09997 17.472C0.641725 17.6917 0.288101 18.0826 0.115273 18.5605C-0.0575543 19.0384 -0.0357562 19.565 0.175972 20.027L1.72897 23.413Z" fill="black"/>
<path d="M38.3169 2.032L39.8669 5.332C38.7868 6.09959 38.009 7.22061 37.668 8.50108C37.3271 9.78156 37.4445 11.1409 37.9999 12.344C38.5354 13.5407 39.479 14.5081 40.662 15.0732C41.8451 15.6384 43.1905 15.7645 44.4579 15.429L46.0419 18.721L41.0359 21.1L41.8939 22.907L46.8999 20.528C47.3582 20.3083 47.7118 19.9174 47.8846 19.4395C48.0575 18.9616 48.0357 18.435 47.8239 17.973L46.2439 14.526C46.0532 14.1113 45.7205 13.7785 45.3058 13.5878C44.8911 13.397 44.4219 13.3609 43.9829 13.486C43.1675 13.7087 42.2993 13.632 41.5356 13.2697C40.7719 12.9074 40.1632 12.2834 39.8199 11.511C39.4576 10.7319 39.3792 9.85059 39.5984 9.01978C39.8175 8.18896 40.3204 7.46099 41.0199 6.962C41.3925 6.70166 41.6622 6.31918 41.7824 5.88085C41.9026 5.44251 41.8656 4.97594 41.6779 4.562L40.0999 1.12C39.9944 0.888007 39.8435 0.679481 39.6561 0.506709C39.4687 0.333936 39.2487 0.200411 39.0089 0.114C38.7728 0.0270694 38.5216 -0.0115295 38.2703 0.000495398C38.019 0.0125203 37.7727 0.0749236 37.5459 0.184L33.5709 2.069L34.4289 3.876L38.3169 2.032Z" fill="black"/>
<path d="M25 22H30C30.1944 22 30.3846 21.9433 30.5474 21.8368C30.7101 21.7303 30.8382 21.5787 30.9161 21.4006C30.994 21.2224 31.0183 21.0254 30.9859 20.8336C30.9536 20.6419 30.866 20.4638 30.734 20.321L28.234 17.621L29.423 14.388C29.4913 14.2024 29.503 14.0007 29.4566 13.8084C29.4103 13.6161 29.3079 13.4419 29.1626 13.3078C29.0172 13.1737 28.8354 13.0857 28.64 13.0549C28.4446 13.0242 28.2445 13.052 28.065 13.135L25.165 14.475L22.665 12.254C22.521 12.1258 22.343 12.042 22.1525 12.0125C21.962 11.9831 21.767 12.0094 21.5911 12.0883C21.4152 12.1671 21.2658 12.2951 21.1609 12.4568C21.056 12.6186 21.0001 12.8072 21 13V16.382L17.553 18.105C17.37 18.1959 17.2193 18.3407 17.1211 18.5199C17.0229 18.699 16.982 18.904 17.0037 19.1071C17.0255 19.3103 17.109 19.5019 17.243 19.6561C17.3769 19.8104 17.5549 19.9199 17.753 19.97L21 20.781V23H23V20C22.9999 19.7769 22.9253 19.5603 22.7879 19.3845C22.6506 19.2088 22.4584 19.084 22.242 19.03L20.865 18.686L22.447 17.895C22.6132 17.8119 22.753 17.6842 22.8507 17.5261C22.9484 17.368 23.0001 17.1858 23 17V15.224L24.328 16.4C24.4735 16.5289 24.6534 16.6126 24.8458 16.6408C25.0381 16.6691 25.2345 16.6406 25.411 16.559L26.717 15.959L26.149 17.5C26.0848 17.6726 26.0696 17.8595 26.1048 18.0402C26.1401 18.2208 26.2246 18.3883 26.349 18.524L27.715 20H25V22Z" fill="black"/>
</g>
<defs>
<clipPath id="clip0_367_643">
<rect width="48" height="48" fill="white"/>
</clipPath>
</defs>
</svg>
