<svg width="500" height="100" viewBox="0 0 500 100" fill="none" xmlns="http://www.w3.org/2000/svg">
<rect x="1" y="1" width="498" height="98" rx="49" stroke="white" stroke-width="2"/>
<path d="M166.25 50.3477H162.871V47.9453H166.113C167.546 47.9453 168.704 47.7435 169.59 47.3398C170.475 46.9362 171.12 46.3763 171.523 45.6602C171.927 44.944 172.129 44.1172 172.129 43.1797C172.129 42.2812 171.908 41.4609 171.465 40.7188C171.022 39.9635 170.339 39.3646 169.414 38.9219C168.49 38.4661 167.298 38.2383 165.84 38.2383C164.746 38.2383 163.757 38.4466 162.871 38.8633C161.986 39.2669 161.283 39.8333 160.762 40.5625C160.241 41.2786 159.98 42.1055 159.98 43.043H156.211C156.211 41.832 156.465 40.7448 156.973 39.7812C157.48 38.8047 158.177 37.9779 159.062 37.3008C159.948 36.6107 160.97 36.0833 162.129 35.7188C163.301 35.3542 164.538 35.1719 165.84 35.1719C167.363 35.1719 168.743 35.3477 169.98 35.6992C171.217 36.0378 172.279 36.5456 173.164 37.2227C174.049 37.8997 174.727 38.7396 175.195 39.7422C175.664 40.7448 175.898 41.9102 175.898 43.2383C175.898 44.2148 175.671 45.1328 175.215 45.9922C174.759 46.8516 174.108 47.6068 173.262 48.2578C172.415 48.9089 171.4 49.4232 170.215 49.8008C169.03 50.1654 167.708 50.3477 166.25 50.3477ZM162.871 48.6875H166.25C167.852 48.6875 169.277 48.8503 170.527 49.1758C171.777 49.5013 172.832 49.9766 173.691 50.6016C174.551 51.2266 175.202 52.0013 175.645 52.9258C176.1 53.8372 176.328 54.8854 176.328 56.0703C176.328 57.3984 176.068 58.5768 175.547 59.6055C175.039 60.6341 174.316 61.5065 173.379 62.2227C172.441 62.9388 171.328 63.4792 170.039 63.8438C168.763 64.2083 167.363 64.3906 165.84 64.3906C164.616 64.3906 163.405 64.2344 162.207 63.9219C161.022 63.5964 159.948 63.1016 158.984 62.4375C158.021 61.7604 157.246 60.901 156.66 59.8594C156.087 58.8177 155.801 57.5677 155.801 56.1094H159.57C159.57 57.0599 159.831 57.9323 160.352 58.7266C160.885 59.5208 161.621 60.1589 162.559 60.6406C163.496 61.1094 164.59 61.3438 165.84 61.3438C167.272 61.3438 168.483 61.1224 169.473 60.6797C170.475 60.224 171.237 59.6055 171.758 58.8242C172.292 58.0299 172.559 57.138 172.559 56.1484C172.559 55.276 172.415 54.5208 172.129 53.8828C171.855 53.2318 171.445 52.6979 170.898 52.2812C170.365 51.8646 169.694 51.5586 168.887 51.3633C168.092 51.1549 167.168 51.0508 166.113 51.0508H162.871V48.6875ZM193.203 60.3867V49.5078C193.203 48.6745 193.034 47.9518 192.695 47.3398C192.37 46.7148 191.875 46.2331 191.211 45.8945C190.547 45.556 189.727 45.3867 188.75 45.3867C187.839 45.3867 187.038 45.543 186.348 45.8555C185.671 46.168 185.137 46.5781 184.746 47.0859C184.368 47.5938 184.18 48.1406 184.18 48.7266H180.566C180.566 47.9714 180.762 47.2227 181.152 46.4805C181.543 45.7383 182.103 45.0677 182.832 44.4688C183.574 43.8568 184.46 43.375 185.488 43.0234C186.53 42.6589 187.689 42.4766 188.965 42.4766C190.501 42.4766 191.855 42.737 193.027 43.2578C194.212 43.7786 195.137 44.5664 195.801 45.6211C196.478 46.6628 196.816 47.9714 196.816 49.5469V59.3906C196.816 60.0938 196.875 60.8424 196.992 61.6367C197.122 62.431 197.311 63.1146 197.559 63.6875V64H193.789C193.607 63.5833 193.464 63.0299 193.359 62.3398C193.255 61.6367 193.203 60.9857 193.203 60.3867ZM193.828 51.1875L193.867 53.7266H190.215C189.186 53.7266 188.268 53.8112 187.461 53.9805C186.654 54.1367 185.977 54.3776 185.43 54.7031C184.883 55.0286 184.466 55.4388 184.18 55.9336C183.893 56.4154 183.75 56.9818 183.75 57.6328C183.75 58.2969 183.9 58.9023 184.199 59.4492C184.499 59.9961 184.948 60.4323 185.547 60.7578C186.159 61.0703 186.908 61.2266 187.793 61.2266C188.9 61.2266 189.876 60.9922 190.723 60.5234C191.569 60.0547 192.24 59.4818 192.734 58.8047C193.242 58.1276 193.516 57.4701 193.555 56.832L195.098 58.5703C195.007 59.1172 194.759 59.7227 194.355 60.3867C193.952 61.0508 193.411 61.6888 192.734 62.3008C192.07 62.8997 191.276 63.401 190.352 63.8047C189.44 64.1953 188.411 64.3906 187.266 64.3906C185.833 64.3906 184.577 64.1107 183.496 63.5508C182.428 62.9909 181.595 62.2422 180.996 61.3047C180.41 60.3542 180.117 59.293 180.117 58.1211C180.117 56.9883 180.339 55.9922 180.781 55.1328C181.224 54.2604 181.862 53.5378 182.695 52.9648C183.529 52.3789 184.531 51.9362 185.703 51.6367C186.875 51.3372 188.184 51.1875 189.629 51.1875H193.828ZM216.582 42.8672V45.8555H205.898V42.8672H216.582ZM206.426 42.8672V64H202.812V42.8672H206.426ZM219.785 42.8672V64H216.152V42.8672H219.785ZM231.523 61.8125L237.402 42.8672H241.27L232.793 67.2617C232.598 67.7826 232.337 68.3424 232.012 68.9414C231.699 69.5534 231.296 70.1328 230.801 70.6797C230.306 71.2266 229.707 71.6693 229.004 72.0078C228.314 72.3594 227.487 72.5352 226.523 72.5352C226.237 72.5352 225.872 72.4961 225.43 72.418C224.987 72.3398 224.674 72.2747 224.492 72.2227L224.473 69.293C224.577 69.306 224.74 69.319 224.961 69.332C225.195 69.3581 225.358 69.3711 225.449 69.3711C226.27 69.3711 226.966 69.2604 227.539 69.0391C228.112 68.8307 228.594 68.4727 228.984 67.9648C229.388 67.4701 229.733 66.7865 230.02 65.9141L231.523 61.8125ZM227.207 42.8672L232.695 59.2734L233.633 63.082L231.035 64.4102L223.262 42.8672H227.207ZM252.715 61.4219C253.574 61.4219 254.368 61.2461 255.098 60.8945C255.827 60.543 256.426 60.0612 256.895 59.4492C257.363 58.8242 257.63 58.1146 257.695 57.3203H261.133C261.068 58.5703 260.645 59.7357 259.863 60.8164C259.095 61.8841 258.086 62.75 256.836 63.4141C255.586 64.0651 254.212 64.3906 252.715 64.3906C251.126 64.3906 249.74 64.1107 248.555 63.5508C247.383 62.9909 246.406 62.2227 245.625 61.2461C244.857 60.2695 244.277 59.1497 243.887 57.8867C243.509 56.6107 243.32 55.263 243.32 53.8438V53.0234C243.32 51.6042 243.509 50.263 243.887 49C244.277 47.724 244.857 46.5977 245.625 45.6211C246.406 44.6445 247.383 43.8763 248.555 43.3164C249.74 42.7565 251.126 42.4766 252.715 42.4766C254.368 42.4766 255.814 42.8151 257.051 43.4922C258.288 44.1562 259.258 45.0677 259.961 46.2266C260.677 47.3724 261.068 48.6745 261.133 50.1328H257.695C257.63 49.2604 257.383 48.4727 256.953 47.7695C256.536 47.0664 255.964 46.5065 255.234 46.0898C254.518 45.6602 253.678 45.4453 252.715 45.4453C251.608 45.4453 250.677 45.6667 249.922 46.1094C249.18 46.5391 248.587 47.125 248.145 47.8672C247.715 48.5964 247.402 49.4102 247.207 50.3086C247.025 51.194 246.934 52.099 246.934 53.0234V53.8438C246.934 54.7682 247.025 55.6797 247.207 56.5781C247.389 57.4766 247.695 58.2904 248.125 59.0195C248.568 59.7487 249.16 60.3346 249.902 60.7773C250.658 61.207 251.595 61.4219 252.715 61.4219ZM273.809 42.8672V64H270.176V42.8672H273.809ZM280.898 42.8672V45.7969H263.223V42.8672H280.898ZM288.359 58.2773L298.105 42.8672H301.738V64H298.105V48.5898L288.359 64H284.766V42.8672H288.359V58.2773ZM316.152 42.8672V64H312.52V42.8672H316.152ZM323.242 42.8672V45.7969H305.566V42.8672H323.242ZM329.766 50.1328H336.113C337.819 50.1328 339.258 50.4323 340.43 51.0312C341.602 51.6172 342.487 52.431 343.086 53.4727C343.698 54.5013 344.004 55.6732 344.004 56.9883C344.004 57.9648 343.835 58.8828 343.496 59.7422C343.158 60.5885 342.65 61.3307 341.973 61.9688C341.309 62.6068 340.482 63.1081 339.492 63.4727C338.516 63.8242 337.389 64 336.113 64H327.129V42.8672H330.742V61.0312H336.113C337.155 61.0312 337.988 60.8424 338.613 60.4648C339.238 60.0872 339.688 59.599 339.961 59C340.234 58.401 340.371 57.776 340.371 57.125C340.371 56.487 340.234 55.862 339.961 55.25C339.688 54.638 339.238 54.1302 338.613 53.7266C337.988 53.3099 337.155 53.1016 336.113 53.1016H329.766V50.1328Z" fill="white"/>
</svg>
