<svg width="27" height="25" viewBox="0 0 27 25" fill="none" xmlns="http://www.w3.org/2000/svg">
<path d="M13.5032 23.8947L3.10672 13.5005C1.75773 12.1503 1 10.3199 1 8.41153C1 6.50311 1.75773 4.67275 3.10672 3.32255L3.32305 3.10627C4.67354 1.75757 6.50429 1 8.41311 1C10.3219 1 12.1527 2.87518 13.5032 4.22388C14.8537 2.87518 16.6844 1 18.5932 1C20.5021 1 22.3328 1.75757 23.6833 3.10627L23.8933 3.31619C25.2423 4.66639 26 6.49675 26 8.40516C26 10.3136 25.2423 12.1439 23.8933 13.4941L13.5032 23.8947Z" stroke="white" stroke-linecap="round" stroke-linejoin="round"/>
</svg>
