<svg width="34" height="42" viewBox="0 0 34 42" fill="none" xmlns="http://www.w3.org/2000/svg">
<path d="M7 9.48208C7 9.17238 7.14349 8.88016 7.38855 8.69079L16.3886 1.73625C16.7487 1.45796 17.2513 1.45796 17.6114 1.73625L26.6114 8.69079C26.8565 8.88016 27 9.17238 27 9.48208V21.5C27 22.0523 26.5523 22.5 26 22.5H21C20.4477 22.5 20 22.0523 20 21.5V16.5C20 15.3954 19.1046 14.5 18 14.5H17H16C14.8954 14.5 14 15.3954 14 16.5V21.5C14 22.0523 13.5523 22.5 13 22.5H8C7.44772 22.5 7 22.0523 7 21.5V9.48208Z" fill="#CD2266" stroke="white" stroke-width="2"/>
<path d="M1.34766 30.4688H2.44336L5.23828 37.4238L8.02734 30.4688H9.12891L5.66016 39H4.80469L1.34766 30.4688ZM0.990234 30.4688H1.95703L2.11523 35.6719V39H0.990234V30.4688ZM8.51367 30.4688H9.48047V39H8.35547V35.6719L8.51367 30.4688ZM13.9336 39.1172C13.4922 39.1172 13.0918 39.043 12.7324 38.8945C12.377 38.7422 12.0703 38.5293 11.8125 38.2559C11.5586 37.9824 11.3633 37.6582 11.2266 37.2832C11.0898 36.9082 11.0215 36.498 11.0215 36.0527V35.8066C11.0215 35.291 11.0977 34.832 11.25 34.4297C11.4023 34.0234 11.6094 33.6797 11.8711 33.3984C12.1328 33.1172 12.4297 32.9043 12.7617 32.7598C13.0938 32.6152 13.4375 32.543 13.793 32.543C14.2461 32.543 14.6367 32.6211 14.9648 32.7773C15.2969 32.9336 15.5684 33.1523 15.7793 33.4336C15.9902 33.7109 16.1465 34.0391 16.248 34.418C16.3496 34.793 16.4004 35.2031 16.4004 35.6484V36.1348H11.666V35.25H15.3164V35.168C15.3008 34.8867 15.2422 34.6133 15.1406 34.3477C15.043 34.082 14.8867 33.8633 14.6719 33.6914C14.457 33.5195 14.1641 33.4336 13.793 33.4336C13.5469 33.4336 13.3203 33.4863 13.1133 33.5918C12.9062 33.6934 12.7285 33.8457 12.5801 34.0488C12.4316 34.252 12.3164 34.5 12.2344 34.793C12.1523 35.0859 12.1113 35.4238 12.1113 35.8066V36.0527C12.1113 36.3535 12.1523 36.6367 12.2344 36.9023C12.3203 37.1641 12.4434 37.3945 12.6035 37.5938C12.7676 37.793 12.9648 37.9492 13.1953 38.0625C13.4297 38.1758 13.6953 38.2324 13.9922 38.2324C14.375 38.2324 14.6992 38.1543 14.9648 37.998C15.2305 37.8418 15.4629 37.6328 15.6621 37.3711L16.3184 37.8926C16.1816 38.0996 16.0078 38.2969 15.7969 38.4844C15.5859 38.6719 15.3262 38.8242 15.0176 38.9414C14.7129 39.0586 14.3516 39.1172 13.9336 39.1172ZM21.9668 35.4082V36.2871H18.6152V35.4082H21.9668ZM18.8438 32.6602V39H17.7598V32.6602H18.8438ZM22.8457 32.6602V39H21.7559V32.6602H22.8457ZM28.2012 35.3496V36.2344H24.832V35.3496H28.2012ZM25.7754 32.6602V39H24.6914V32.6602H25.7754ZM27.2754 35.9004V35.7656C27.2754 35.3086 27.3418 34.8848 27.4746 34.4941C27.6074 34.0996 27.7988 33.7578 28.0488 33.4688C28.3027 33.1758 28.6055 32.9492 28.957 32.7891C29.3125 32.625 29.7109 32.543 30.1523 32.543C30.6016 32.543 31.0039 32.625 31.3594 32.7891C31.7148 32.9492 32.0176 33.1758 32.2676 33.4688C32.5215 33.7578 32.7148 34.0996 32.8477 34.4941C32.9805 34.8848 33.0469 35.3086 33.0469 35.7656V35.9004C33.0469 36.3574 32.9805 36.7812 32.8477 37.1719C32.7148 37.5625 32.5234 37.9043 32.2734 38.1973C32.0234 38.4863 31.7207 38.7129 31.3652 38.877C31.0098 39.0371 30.6094 39.1172 30.1641 39.1172C29.7188 39.1172 29.3184 39.0371 28.9629 38.877C28.6074 38.7129 28.3027 38.4863 28.0488 38.1973C27.7988 37.9043 27.6074 37.5625 27.4746 37.1719C27.3418 36.7812 27.2754 36.3574 27.2754 35.9004ZM28.3652 35.7656V35.9004C28.3652 36.2168 28.4023 36.5156 28.4766 36.7969C28.5508 37.0742 28.6621 37.3203 28.8105 37.5352C28.9629 37.75 29.1504 37.9199 29.373 38.0449C29.5996 38.166 29.8633 38.2266 30.1641 38.2266C30.4648 38.2266 30.7266 38.166 30.9492 38.0449C31.1758 37.9199 31.3633 37.75 31.5117 37.5352C31.6602 37.3203 31.7715 37.0742 31.8457 36.7969C31.9238 36.5156 31.9629 36.2168 31.9629 35.9004V35.7656C31.9629 35.4531 31.9238 35.1582 31.8457 34.8809C31.7715 34.5996 31.6582 34.3516 31.5059 34.1367C31.3574 33.918 31.1699 33.7461 30.9434 33.6211C30.7168 33.4961 30.4531 33.4336 30.1523 33.4336C29.8555 33.4336 29.5957 33.4961 29.373 33.6211C29.1504 33.7461 28.9629 33.918 28.8105 34.1367C28.6621 34.3516 28.5508 34.5996 28.4766 34.8809C28.4023 35.1582 28.3652 35.4531 28.3652 35.7656Z" fill="white"/>
</svg>
