<svg width="33" height="21" viewBox="0 0 33 21" fill="none" xmlns="http://www.w3.org/2000/svg">
<path d="M0 10.5C0 4.70101 4.70101 0 10.5 0H22.5C28.299 0 33 4.70101 33 10.5C33 16.299 28.299 21 22.5 21H10.5C4.70101 21 0 16.299 0 10.5Z" fill="white" fill-opacity="0.5"/>
<path d="M5 5.39996C17.88 5.39996 12.36 15.5998 23.86 15.5998" stroke="white" stroke-width="2"/>
<path d="M5 15.5998C17.88 15.5998 12.36 5.39994 23.86 5.39994" stroke="white" stroke-width="2"/>
<path d="M24.36 3.42469L27.1373 5.39999L24.36 7.3753V3.42469Z" fill="white" stroke="white"/>
<path d="M24.36 13.6247L27.1373 15.6L24.36 17.5753V13.6247Z" fill="white" stroke="white"/>
</svg>
