<svg width="28" height="26" viewBox="0 0 28 26" fill="none" xmlns="http://www.w3.org/2000/svg">
<g clip-path="url(#clip0_374_749)">
<path d="M23.1479 3.78C21.4601 2.08189 19.3304 0.89039 17.0002 0.340467C14.67 -0.209456 12.2323 -0.0958216 9.96338 0.668499L11.4404 5.10183C12.9125 4.60944 14.4941 4.54476 16.0016 4.91529C17.509 5.28582 18.8804 6.07636 19.9566 7.19512C21.0327 8.31388 21.7694 9.71495 22.0811 11.2356C22.3928 12.7563 22.2667 14.3343 21.7175 15.7862L19.8334 13.8728V22.1468H28L25.1919 19.3013C26.6017 16.8484 27.1654 13.9998 26.796 11.1948C26.4266 8.38985 25.1447 5.78429 23.1479 3.78Z" fill="white"/>
<path d="M1.16667 12.7657C1.1685 16.1761 2.52162 19.4468 4.92974 21.8617C7.33787 24.2766 10.6048 25.6389 14.0152 25.6503C15.4116 25.6494 16.7988 25.4229 18.123 24.9795L16.646 20.5462C15.1675 21.0405 13.5788 21.1035 12.0658 20.7278C10.5528 20.3522 9.17807 19.5534 8.10248 18.4249C7.0269 17.2964 6.29494 15.885 5.99226 14.3557C5.68958 12.8264 5.8287 11.2426 6.39333 9.7895L8.16667 11.5395V7.03966C8.19117 7.01633 8.211 6.98833 8.23667 6.96383L8.16667 6.89383V3.479H0L2.89567 6.33616C1.76122 8.28886 1.16463 10.5074 1.16667 12.7657Z" fill="white"/>
</g>
<defs>
<clipPath id="clip0_374_749">
<rect width="28" height="25.6503" fill="white"/>
</clipPath>
</defs>
</svg>
