<svg width="24" height="24" viewBox="0 0 24 24" fill="none" xmlns="http://www.w3.org/2000/svg">
<g clip-path="url(#clip0_438_1723)">
<path d="M8.7886 17.5007C4.02816 17.5007 0.154032 13.5761 0.152345 8.7525C0.15122 6.42656 1.04578 4.23356 2.67122 2.57737C4.30472 0.915188 6.47672 0 8.7871 0C11.0992 0 13.2676 0.910688 14.902 2.56444C16.5352 4.21763 17.4346 6.414 17.4346 8.74894C17.435 11.0751 16.541 13.2669 14.9174 14.9205C13.2807 16.5844 11.1067 17.5007 8.79572 17.5007C8.79553 17.5007 8.79591 17.5007 8.79572 17.5007L8.78841 17.1257L8.79385 16.7507C10.9038 16.7507 12.8881 15.9141 14.3825 14.3949C15.8673 12.8828 16.6848 10.8776 16.6844 8.74912C16.6844 6.61256 15.8618 4.6035 14.3682 3.09169C12.8761 1.58156 10.8972 0.75 8.79628 0.75C6.67959 0.75 4.69753 1.58569 3.20634 3.10294C1.71947 4.61775 0.901407 6.62419 0.902345 8.75212C0.903657 13.1625 4.4416 16.7507 8.7886 16.7507V17.5007Z" fill="white"/>
<path d="M8.78904 15.4373C7.0271 15.4373 5.36923 14.7405 4.12104 13.4752C2.87398 12.2111 2.18773 10.5334 2.18848 8.75081C2.1881 6.97256 2.8721 5.29706 4.11485 4.03331C5.36323 2.76206 7.0241 2.06119 8.79148 2.06006C10.5581 2.06006 12.2169 2.75719 13.4645 4.02319C14.7114 5.28506 15.3994 6.963 15.4012 8.74744C15.4016 10.5264 14.7176 12.2012 13.4754 13.4638C12.225 14.7362 10.5626 15.4371 8.79429 15.4373H8.78904ZM8.79391 2.81006C7.22735 2.811 5.75641 3.432 4.64998 4.55906C3.54598 5.68181 2.93829 7.17037 2.93866 8.751C2.9381 10.3352 3.54766 11.8258 4.65523 12.9486C5.76129 14.0698 7.22941 14.6873 8.78923 14.6873V15.0623L8.7941 14.6873C10.3599 14.6871 11.8325 14.0659 12.9409 12.9381C14.0445 11.8166 14.652 10.3284 14.6516 8.74781C14.6501 7.16194 14.0389 5.67112 12.9309 4.54988C11.825 3.42787 10.356 2.81006 8.79391 2.81006Z" fill="white"/>
<path d="M5.24731 8.75006L4.49731 8.74987C4.4975 7.59337 4.94225 6.50381 5.74944 5.68237C6.56281 4.85475 7.64375 4.39894 8.79294 4.39894V5.14894C7.84644 5.14894 6.95563 5.52506 6.28456 6.20812C5.61575 6.88856 5.2475 7.79137 5.24731 8.75006Z" fill="white"/>
<path d="M21.4167 24C21.0968 24 20.779 23.9347 20.4722 23.8059L20.4032 23.7771L14.5952 17.8907L17.8142 14.6293L23.6288 20.5213L23.6569 20.5899C23.9758 21.3701 23.8928 22.2141 23.4285 22.9054C22.9684 23.5907 22.2162 24 21.4167 24ZM20.8292 23.1409C21.5612 23.4156 22.3703 23.1364 22.806 22.4874C23.1154 22.0264 23.1805 21.4663 22.9883 20.9402L17.8142 15.6971L15.6488 17.8907L20.8292 23.1409Z" fill="white"/>
<path d="M19.3021 17.2859L18.7681 16.7593L16.6908 18.8655L17.2248 19.3922L19.3021 17.2859Z" fill="white"/>
<path d="M16.5389 16.0662L15.0723 14.5795L14.5383 15.1062L16.005 16.5929L16.5389 16.0662Z" fill="white"/>
</g>
<defs>
<clipPath id="clip0_438_1723">
<rect width="24" height="24" fill="white"/>
</clipPath>
</defs>
</svg>
