<svg width="50" height="44" viewBox="0 0 50 44" fill="none" xmlns="http://www.w3.org/2000/svg">
<path fill-rule="evenodd" clip-rule="evenodd" d="M49.7747 7.25781L43.1872 38.9812C42.4716 42.4977 40.095 43.75 38.1083 43.75C37.0833 43.75 36.0192 43.443 34.9427 42.8352L34.7638 42.7328L34.5966 42.6078L20.8981 32.2672L20.3833 38.3102C20.1145 39.7219 18.8302 40.7359 17.3684 40.6156C16.245 40.5227 15.3341 39.7875 14.9536 38.8031L12.6677 31.9398C12.563 31.7289 12.4997 31.4977 12.4997 31.25C12.4997 30.3867 13.1989 29.6875 14.0622 29.6875C14.7442 29.6875 15.3161 30.125 15.5302 30.7328C15.5317 30.7328 15.5341 30.7313 15.5356 30.7289L17.4122 36.3656L17.6872 33.1398C17.6872 33.1359 17.6872 33.1359 17.6872 33.1344C17.8575 31.068 19.67 29.5305 21.7364 29.7C22.4184 29.7547 23.038 29.9977 23.5606 30.3617L36.4786 40.1133C37.0802 40.4523 37.627 40.6242 38.1083 40.6242C39.1059 40.6242 39.8145 39.882 40.1247 38.3578L46.7247 6.575C47.2638 4.37188 46.288 3.125 44.9747 3.125C44.6395 3.125 44.2833 3.20625 43.9216 3.37266L5.16844 18.6438C2.52235 19.7289 2.53797 21.2359 4.68563 21.907L11.0911 23.9508C11.0927 23.9508 11.0989 23.9469 11.1005 23.9484C11.5395 24.0852 12.0341 24.0375 12.4544 23.7742C12.4622 23.7703 12.4677 23.7719 12.4747 23.768L29.6138 12.9672C31.0661 12.0719 32.9739 12.5055 33.8903 13.9523C34.6692 15.1812 34.477 16.7422 33.5247 17.757L24.5419 26.7391V26.7406L24.5177 26.7633L24.5161 26.7617C24.2356 27.0305 23.8567 27.1977 23.4388 27.1977C22.5755 27.1977 21.8763 26.4984 21.8763 25.6352C21.8763 25.2164 22.0427 24.8375 22.3122 24.557L22.3106 24.5555L31.2122 15.6523L14.0739 26.4523C12.8505 27.1945 11.4208 27.3273 10.1497 26.9242C10.1403 26.9203 10.1309 26.9242 10.1208 26.9203L3.7536 24.8898C0.398128 23.8406 0.0356282 21.4086 0.00359695 20.6891C-0.0471843 19.4766 0.39891 17.2219 3.9825 15.7516L4.00125 15.7438L4.02157 15.7359L42.7052 0.49375C43.445 0.166406 44.2083 0 44.9747 0C46.5052 0 47.9169 0.679687 48.8481 1.86797C49.9419 3.25781 50.2692 5.17031 49.7747 7.25781ZM23.4372 35.9375C24.3005 35.9375 24.9997 36.6367 24.9997 37.5C24.9997 38.3633 24.3005 39.0625 23.4372 39.0625C22.5739 39.0625 21.8747 38.3633 21.8747 37.5C21.8747 36.6367 22.5739 35.9375 23.4372 35.9375Z" fill="white"/>
</svg>
