<svg width="25" height="23" viewBox="0 0 25 23" fill="none" xmlns="http://www.w3.org/2000/svg">
<path fill-rule="evenodd" clip-rule="evenodd" d="M24.8876 4.19141L21.5938 20.0531C21.236 21.8113 20.0477 22.4375 19.0544 22.4375C18.5419 22.4375 18.0099 22.284 17.4716 21.9801L17.3821 21.9289L17.2985 21.8664L10.4493 16.6961L10.1919 19.7176C10.0575 20.4234 9.41532 20.9305 8.68446 20.8703C8.12275 20.8238 7.66728 20.4562 7.47704 19.9641L6.33407 16.5324C6.28173 16.427 6.25009 16.3113 6.25009 16.1875C6.25009 15.7559 6.5997 15.4062 7.03134 15.4062C7.37235 15.4062 7.65829 15.625 7.76532 15.9289C7.7661 15.9289 7.76728 15.9281 7.76806 15.927L8.70634 18.7453L8.84384 17.1324C8.84384 17.1305 8.84384 17.1305 8.84384 17.1297C8.929 16.0965 9.83525 15.3277 10.8684 15.4125C11.2095 15.4398 11.5192 15.5613 11.7806 15.7434L18.2395 20.6191C18.5403 20.7887 18.8138 20.8746 19.0544 20.8746C19.5532 20.8746 19.9075 20.5035 20.0626 19.7414L23.3626 3.85C23.6321 2.74844 23.1442 2.125 22.4876 2.125C22.32 2.125 22.1419 2.16563 21.961 2.24883L2.58446 9.88438C1.26142 10.427 1.26923 11.1805 2.34306 11.516L5.54579 12.5379C5.54657 12.5379 5.5497 12.5359 5.55048 12.5367C5.77001 12.6051 6.01728 12.5813 6.22743 12.4496C6.23134 12.4477 6.23407 12.4484 6.23759 12.4465L14.8071 7.04609C15.5333 6.59844 16.4872 6.81523 16.9454 7.53867C17.3349 8.15312 17.2388 8.93359 16.7626 9.44102L12.2712 13.932V13.9328L12.2591 13.9441L12.2583 13.9434C12.1181 14.0777 11.9286 14.1613 11.7196 14.1613C11.288 14.1613 10.9384 13.8117 10.9384 13.3801C10.9384 13.1707 11.0216 12.9812 11.1563 12.841L11.1556 12.8402L15.6063 8.38867L7.0372 13.7887C6.42548 14.1598 5.71064 14.2262 5.07509 14.0246C5.0704 14.0227 5.06571 14.0246 5.06064 14.0227L1.87704 13.0074C0.199308 12.4828 0.0180582 11.2668 0.00204261 10.907C-0.023348 10.3008 0.199699 9.17344 1.9915 8.43828L2.00087 8.43438L2.01103 8.43047L21.3528 0.809375C21.7227 0.645703 22.1044 0.5625 22.4876 0.5625C23.2528 0.5625 23.9587 0.902344 24.4243 1.49648C24.9712 2.19141 25.1349 3.14766 24.8876 4.19141ZM11.7188 18.5312C12.1505 18.5312 12.5001 18.8809 12.5001 19.3125C12.5001 19.7441 12.1505 20.0938 11.7188 20.0938C11.2872 20.0938 10.9376 19.7441 10.9376 19.3125C10.9376 18.8809 11.2872 18.5312 11.7188 18.5312Z" fill="white"/>
</svg>
