<svg width="30" height="30" viewBox="0 0 30 30" fill="none" xmlns="http://www.w3.org/2000/svg">
<path d="M15.833 18.5957H13.835C13.8421 17.9082 13.903 17.346 14.0176 16.9092C14.1393 16.4652 14.3363 16.0605 14.6084 15.6953C14.8805 15.3301 15.2422 14.9147 15.6934 14.4492C16.0228 14.1126 16.3236 13.7975 16.5957 13.5039C16.875 13.2031 17.1006 12.8809 17.2725 12.5371C17.4443 12.1862 17.5303 11.7673 17.5303 11.2803C17.5303 10.7861 17.4408 10.36 17.2617 10.002C17.0898 9.64388 16.832 9.36816 16.4883 9.1748C16.1517 8.98145 15.7327 8.88477 15.2314 8.88477C14.8161 8.88477 14.4222 8.95996 14.0498 9.11035C13.6774 9.26074 13.3766 9.49349 13.1475 9.80859C12.9183 10.1165 12.8001 10.5212 12.793 11.0225H10.8057C10.82 10.2132 11.0205 9.51855 11.4072 8.93848C11.8011 8.3584 12.3311 7.91439 12.9971 7.60645C13.6631 7.2985 14.4079 7.14453 15.2314 7.14453C16.141 7.14453 16.9144 7.30924 17.5518 7.63867C18.1963 7.9681 18.6868 8.44076 19.0234 9.05664C19.36 9.66536 19.5283 10.3887 19.5283 11.2266C19.5283 11.8711 19.3958 12.4655 19.1309 13.0098C18.873 13.5469 18.54 14.0518 18.1318 14.5244C17.7236 14.9971 17.2904 15.4482 16.832 15.8779C16.4382 16.2432 16.1732 16.6549 16.0371 17.1133C15.901 17.5716 15.833 18.0658 15.833 18.5957ZM13.749 22.001C13.749 21.6787 13.8493 21.4066 14.0498 21.1846C14.2503 20.9626 14.5404 20.8516 14.9199 20.8516C15.3066 20.8516 15.6003 20.9626 15.8008 21.1846C16.0013 21.4066 16.1016 21.6787 16.1016 22.001C16.1016 22.3089 16.0013 22.5739 15.8008 22.7959C15.6003 23.0179 15.3066 23.1289 14.9199 23.1289C14.5404 23.1289 14.2503 23.0179 14.0498 22.7959C13.8493 22.5739 13.749 22.3089 13.749 22.001Z" fill="white"/>
<circle cx="15" cy="15" r="14.5" stroke="white"/>
</svg>
