<svg width="34" height="42" viewBox="0 0 34 42" fill="none" xmlns="http://www.w3.org/2000/svg">
<rect x="3" y="1" width="28" height="20" rx="3" fill="white" stroke="#CD2266" stroke-width="2"/>
<rect x="18" y="7.28571" width="13" height="7.42857" rx="2" fill="white" stroke="#CD2266" stroke-width="2"/>
<ellipse cx="21.5" cy="11" rx="1.5" ry="1.57143" fill="#CD2266"/>
<path d="M3.23438 36.4219L4.92773 30.4688H5.74805L5.27344 32.7832L3.45117 39H2.63672L3.23438 36.4219ZM1.48242 30.4688L2.83008 36.3047L3.23438 39H2.42578L0.357422 30.4688H1.48242ZM7.93945 36.2988L9.25781 30.4688H10.3887L8.32617 39H7.51758L7.93945 36.2988ZM5.87109 30.4688L7.51758 36.4219L8.11523 39H7.30078L5.54297 32.7832L5.0625 30.4688H5.87109ZM15.0176 37.916V34.6523C15.0176 34.4023 14.9668 34.1855 14.8652 34.002C14.7676 33.8145 14.6191 33.6699 14.4199 33.5684C14.2207 33.4668 13.9746 33.416 13.6816 33.416C13.4082 33.416 13.168 33.4629 12.9609 33.5566C12.7578 33.6504 12.5977 33.7734 12.4805 33.9258C12.3672 34.0781 12.3105 34.2422 12.3105 34.418H11.2266C11.2266 34.1914 11.2852 33.9668 11.4023 33.7441C11.5195 33.5215 11.6875 33.3203 11.9062 33.1406C12.1289 32.957 12.3945 32.8125 12.7031 32.707C13.0156 32.5977 13.3633 32.543 13.7461 32.543C14.207 32.543 14.6133 32.6211 14.9648 32.7773C15.3203 32.9336 15.5977 33.1699 15.7969 33.4863C16 33.7988 16.1016 34.1914 16.1016 34.6641V37.6172C16.1016 37.8281 16.1191 38.0527 16.1543 38.291C16.1934 38.5293 16.25 38.7344 16.3242 38.9062V39H15.1934C15.1387 38.875 15.0957 38.709 15.0645 38.502C15.0332 38.291 15.0176 38.0957 15.0176 37.916ZM15.2051 35.1562L15.2168 35.918H14.1211C13.8125 35.918 13.5371 35.9434 13.2949 35.9941C13.0527 36.041 12.8496 36.1133 12.6855 36.2109C12.5215 36.3086 12.3965 36.4316 12.3105 36.5801C12.2246 36.7246 12.1816 36.8945 12.1816 37.0898C12.1816 37.2891 12.2266 37.4707 12.3164 37.6348C12.4062 37.7988 12.541 37.9297 12.7207 38.0273C12.9043 38.1211 13.1289 38.168 13.3945 38.168C13.7266 38.168 14.0195 38.0977 14.2734 37.957C14.5273 37.8164 14.7285 37.6445 14.877 37.4414C15.0293 37.2383 15.1113 37.041 15.123 36.8496L15.5859 37.3711C15.5586 37.5352 15.4844 37.7168 15.3633 37.916C15.2422 38.1152 15.0801 38.3066 14.877 38.4902C14.6777 38.6699 14.4395 38.8203 14.1621 38.9414C13.8887 39.0586 13.5801 39.1172 13.2363 39.1172C12.8066 39.1172 12.4297 39.0332 12.1055 38.8652C11.7852 38.6973 11.5352 38.4727 11.3555 38.1914C11.1797 37.9062 11.0918 37.5879 11.0918 37.2363C11.0918 36.8965 11.1582 36.5977 11.291 36.3398C11.4238 36.0781 11.6152 35.8613 11.8652 35.6895C12.1152 35.5137 12.416 35.3809 12.7676 35.291C13.1191 35.2012 13.5117 35.1562 13.9453 35.1562H15.2051ZM18.9844 30V39H17.8945V30H18.9844ZM21.9023 30V39H20.8125V30H21.9023ZM26.2734 39.1172C25.832 39.1172 25.4316 39.043 25.0723 38.8945C24.7168 38.7422 24.4102 38.5293 24.1523 38.2559C23.8984 37.9824 23.7031 37.6582 23.5664 37.2832C23.4297 36.9082 23.3613 36.498 23.3613 36.0527V35.8066C23.3613 35.291 23.4375 34.832 23.5898 34.4297C23.7422 34.0234 23.9492 33.6797 24.2109 33.3984C24.4727 33.1172 24.7695 32.9043 25.1016 32.7598C25.4336 32.6152 25.7773 32.543 26.1328 32.543C26.5859 32.543 26.9766 32.6211 27.3047 32.7773C27.6367 32.9336 27.9082 33.1523 28.1191 33.4336C28.3301 33.7109 28.4863 34.0391 28.5879 34.418C28.6895 34.793 28.7402 35.2031 28.7402 35.6484V36.1348H24.0059V35.25H27.6562V35.168C27.6406 34.8867 27.582 34.6133 27.4805 34.3477C27.3828 34.082 27.2266 33.8633 27.0117 33.6914C26.7969 33.5195 26.5039 33.4336 26.1328 33.4336C25.8867 33.4336 25.6602 33.4863 25.4531 33.5918C25.2461 33.6934 25.0684 33.8457 24.9199 34.0488C24.7715 34.252 24.6562 34.5 24.5742 34.793C24.4922 35.0859 24.4512 35.4238 24.4512 35.8066V36.0527C24.4512 36.3535 24.4922 36.6367 24.5742 36.9023C24.6602 37.1641 24.7832 37.3945 24.9434 37.5938C25.1074 37.793 25.3047 37.9492 25.5352 38.0625C25.7695 38.1758 26.0352 38.2324 26.332 38.2324C26.7148 38.2324 27.0391 38.1543 27.3047 37.998C27.5703 37.8418 27.8027 37.6328 28.002 37.3711L28.6582 37.8926C28.5215 38.0996 28.3477 38.2969 28.1367 38.4844C27.9258 38.6719 27.666 38.8242 27.3574 38.9414C27.0527 39.0586 26.6914 39.1172 26.2734 39.1172ZM32.6602 32.6602V33.4922H29.2324V32.6602H32.6602ZM30.3926 31.1191H31.4766V37.4297C31.4766 37.6445 31.5098 37.8066 31.5762 37.916C31.6426 38.0254 31.7285 38.0977 31.834 38.1328C31.9395 38.168 32.0527 38.1855 32.1738 38.1855C32.2637 38.1855 32.3574 38.1777 32.4551 38.1621C32.5566 38.1426 32.6328 38.127 32.6836 38.1152L32.6895 39C32.6035 39.0273 32.4902 39.0527 32.3496 39.0762C32.2129 39.1035 32.0469 39.1172 31.8516 39.1172C31.5859 39.1172 31.3418 39.0645 31.1191 38.959C30.8965 38.8535 30.7188 38.6777 30.5859 38.4316C30.457 38.1816 30.3926 37.8457 30.3926 37.4238V31.1191Z" fill="white"/>
</svg>
