<svg width="53" height="40" viewBox="0 0 53 40" fill="none" xmlns="http://www.w3.org/2000/svg">
<path fill-rule="evenodd" clip-rule="evenodd" d="M52.471 30.6812C52.471 30.6812 51.2804 34.7942 49.6903 36.4375C47.6755 38.5952 45.2611 39.0529 44.2242 39.179C43.8844 39.2049 43.5334 39.2267 43.1824 39.2486L43.1807 39.234C42.718 39.2711 42.2426 39.1321 41.8898 38.7779C41.2467 38.1373 41.2467 37.0949 41.8898 36.4545C42.181 36.1626 42.5587 36.0234 42.9389 35.9959L42.9372 35.9773C42.993 35.9732 43.052 35.97 43.1063 35.966C43.9644 35.8616 45.8344 35.8527 47.5048 34.0697C48.8216 32.7127 49.2486 29.6298 49.2486 29.6298C49.2486 29.6298 49.687 26.0108 49.687 22.3919V17.3402C49.687 13.7213 49.2486 10.0999 49.2486 10.0999C49.2486 10.0999 48.8216 7.01753 47.5048 5.66013C45.8344 3.87894 43.9644 3.86962 43.1063 3.76569C36.964 3.31281 26.4984 3.31447 26.4984 3.31447C26.4984 3.31447 16.0345 3.31281 9.89216 3.76569C9.03391 3.86962 7.16401 3.87894 5.49451 5.66013C4.17934 7.01753 3.75058 10.0999 3.75058 10.0999C3.74975 10.0999 3.31219 13.7213 3.31219 17.3402V22.3919C3.31219 26.0108 3.75058 29.6298 3.75058 29.6298C3.74975 29.6298 4.17934 32.7126 5.49451 34.0697C7.1639 35.8528 9.3575 35.797 10.3346 35.983C13.8466 36.3259 26.4983 36.4375 26.4983 36.4375C27.4139 36.4375 28.1548 37.1799 28.1548 38.0938C28.1548 39.0092 27.4139 39.75 26.4983 39.75C26.4708 39.75 26.4442 39.7451 26.4167 39.7436C25.3709 39.7323 13.362 39.598 9.3073 39.1993C8.12805 38.9721 5.32536 38.5952 3.30815 36.4375C1.71795 34.7942 0.529793 30.6812 0.529793 30.6812C0.529793 30.6812 0 27.1284 0 22.7461V16.982C0 12.5996 0.529793 9.0454 0.529793 9.0454C0.529793 9.0454 1.71795 4.95622 3.30815 3.31447C5.32536 1.15689 7.7381 0.674094 8.77429 0.547908C16.1921 -9.87202e-08 26.4887 0 26.4887 0H26.5114C26.5114 0 36.808 -9.87202e-08 44.2242 0.547908C45.2611 0.674094 47.6755 1.15689 49.6903 3.31447C51.2804 4.95612 52.471 9.0454 52.471 9.0454C52.471 9.0454 53 12.5996 53 16.982V22.7461C53 27.1284 52.471 30.6812 52.471 30.6812ZM33.1252 36.4375C34.0408 36.4375 34.7817 37.1799 34.7817 38.0938C34.7817 39.0092 34.0408 39.75 33.1252 39.75C32.2096 39.75 31.4688 39.0092 31.4688 38.0938C31.4688 37.1799 32.2096 36.4375 33.1252 36.4375ZM25.7203 27.9639L25.705 27.972C25.4599 28.1208 25.176 28.2098 24.8694 28.2098C23.9691 28.2098 23.2388 27.4795 23.2388 26.5794C23.2388 25.9519 23.5971 25.4132 24.1173 25.14L24.1156 25.1384L32.5639 20.633C32.5591 20.629 32.5453 20.6258 32.5534 20.6218C32.8301 20.4883 33.021 20.2041 33.021 19.8753C33.021 19.5745 32.8544 19.3108 32.614 19.1677L22.7244 13.8828C22.6095 13.8253 22.4906 13.7954 22.3588 13.7954C21.9163 13.7954 21.5637 14.1427 21.5393 14.5754L21.541 24.8278H21.528C21.528 24.8335 21.5304 24.8391 21.5304 24.8448C21.5304 25.7602 20.7871 26.5009 19.8731 26.5009C18.9575 26.5009 18.2167 25.7602 18.2167 24.8448C18.2167 24.8424 18.2167 24.8424 18.2167 24.8407V13.3089C18.2167 11.4481 19.7268 9.93864 21.5879 9.93864C22.2244 9.93864 22.819 10.1149 23.3261 10.4214C23.3463 10.4323 23.3536 10.4287 23.3706 10.436L34.7963 17.0193C35.0381 17.1604 35.2613 17.3274 35.4676 17.5336C36.7617 18.8279 36.7617 20.925 35.4676 22.2189C35.2774 22.4081 35.068 22.5666 34.8487 22.7017L25.7873 27.9234C25.7647 27.938 25.7422 27.9493 25.7203 27.9639Z" fill="white"/>
</svg>
