<svg width="28" height="22" viewBox="0 0 28 22" fill="none" xmlns="http://www.w3.org/2000/svg">
<path fill-rule="evenodd" clip-rule="evenodd" d="M27.7205 16.7089C27.7205 16.7089 27.0915 18.8818 26.2515 19.75C25.187 20.8899 23.9115 21.1317 23.3637 21.1983C23.1842 21.212 22.9988 21.2236 22.8133 21.2351L22.8125 21.2274C22.568 21.247 22.3168 21.1736 22.1304 20.9864C21.7907 20.648 21.7907 20.0973 22.1304 19.759C22.2843 19.6047 22.4838 19.5312 22.6847 19.5167L22.6838 19.5069C22.7133 19.5047 22.7445 19.503 22.7731 19.5009C23.2265 19.4458 24.2144 19.4411 25.0969 18.4991C25.7925 17.7822 26.0181 16.1535 26.0181 16.1535C26.0181 16.1535 26.2497 14.2415 26.2497 12.3297V9.66087C26.2497 7.74899 26.0181 5.8358 26.0181 5.8358C26.0181 5.8358 25.7925 4.20738 25.0969 3.49026C24.2144 2.54925 23.2265 2.54433 22.7731 2.48942C19.5281 2.25016 13.9992 2.25104 13.9992 2.25104C13.9992 2.25104 8.47104 2.25016 5.22605 2.48942C4.77263 2.54433 3.78476 2.54925 2.90276 3.49026C2.20795 4.20738 1.98144 5.8358 1.98144 5.8358C1.981 5.8358 1.74984 7.74899 1.74984 9.66087V12.3297C1.74984 14.2415 1.98144 16.1535 1.98144 16.1535C1.981 16.1535 2.20795 17.7821 2.90276 18.4991C3.7847 19.4411 4.94359 19.4116 5.45978 19.5099C7.31516 19.691 13.9991 19.75 13.9991 19.75C14.4828 19.75 14.8742 20.1422 14.8742 20.625C14.8742 21.1087 14.4828 21.5 13.9991 21.5C13.9846 21.5 13.9705 21.4974 13.956 21.4966C13.4035 21.4906 7.05917 21.4197 4.91706 21.2091C4.29406 21.089 2.8134 20.8899 1.7477 19.75C0.907594 18.8818 0.279891 16.7089 0.279891 16.7089C0.279891 16.7089 0 14.832 0 12.5168V9.47165C0 7.1564 0.279891 5.2787 0.279891 5.2787C0.279891 5.2787 0.907594 3.11838 1.7477 2.25104C2.8134 1.11119 4.08805 0.856125 4.63548 0.789461C8.55433 0.5 13.994 0.5 13.994 0.5H14.006C14.006 0.5 19.4457 0.5 23.3637 0.789461C23.9115 0.856125 25.187 1.11119 26.2515 2.25104C27.0915 3.11833 27.7205 5.2787 27.7205 5.2787C27.7205 5.2787 28 7.1564 28 9.47165V12.5168C28 14.832 27.7205 16.7089 27.7205 16.7089ZM17.5001 19.75C17.9838 19.75 18.3752 20.1422 18.3752 20.625C18.3752 21.1087 17.9838 21.5 17.5001 21.5C17.0164 21.5 16.625 21.1087 16.625 20.625C16.625 20.1422 17.0164 19.75 17.5001 19.75ZM13.5881 15.2734L13.58 15.2777C13.4505 15.3563 13.3005 15.4033 13.1386 15.4033C12.6629 15.4033 12.2771 15.0175 12.2771 14.5419C12.2771 14.2104 12.4664 13.9258 12.7412 13.7815L12.7403 13.7806L17.2036 11.4005C17.201 11.3983 17.1938 11.3966 17.198 11.3945C17.3442 11.324 17.445 11.1739 17.445 11.0002C17.445 10.8412 17.357 10.702 17.2301 10.6263L12.0053 7.8343C11.9446 7.80395 11.8818 7.78815 11.8122 7.78815C11.5784 7.78815 11.3921 7.97162 11.3793 8.20022L11.3801 13.6166H11.3733C11.3733 13.6196 11.3746 13.6225 11.3746 13.6255C11.3746 14.1091 10.9819 14.5005 10.499 14.5005C10.0153 14.5005 9.62391 14.1091 9.62391 13.6255C9.62391 13.6243 9.62391 13.6243 9.62391 13.6234V7.53112C9.62391 6.54805 10.4217 5.7506 11.4049 5.7506C11.7412 5.7506 12.0553 5.84373 12.3232 6.00566C12.3339 6.01141 12.3378 6.00949 12.3467 6.01337L18.3829 9.49134C18.5107 9.56588 18.6286 9.65409 18.7376 9.76302C19.4213 10.4468 19.4213 11.5547 18.7376 12.2383C18.6371 12.3383 18.5265 12.422 18.4107 12.4934L13.6235 15.252C13.6116 15.2597 13.5996 15.2657 13.5881 15.2734Z" fill="white"/>
</svg>
